<?xml version="1.0"?>
<svg xmlns="http://www.w3.org/2000/svg" xmlns:xlink="http://www.w3.org/1999/xlink" xmlns:svgjs="http://svgjs.com/svgjs" version="1.1" width="512" height="512" x="0" y="0" viewBox="0 0 100 100" style="enable-background:new 0 0 512 512" xml:space="preserve" class=""><g><path xmlns="http://www.w3.org/2000/svg" d="m51.3408966 90.4307022-11.6313972-8.141983s-.4652557-14.4229279 3.7220497-17.679718c4.1873016-3.256794 4.4199295-14.4229355 3.7220459-18.6102371 0 0-2.1752548-6.1704674-8.7425575-5.0052986-6.5673008 1.1651649-5.9317551 8.5798607-5.8258324 12.4990578s-4.7665901 11.4398117-8.1561642 13.6642227c0 0 1.0592422-9.1410446-3.7073479-14.7392464s-7.2028475-21.3809128-2.6481056-30.3844719 15.253088-18.0071182 35.3786926-16.947876 27.0106735 11.2279673 27.646225 15.5708609c.6355438 4.3428936-3.8132782 8.473938-3.8132782 8.473938s-5.5080566-3.7073479-10.2746506-3.4955006c0 0 .6355515 8.8976345-10.8042679 13.7701511l-.9533157 12.3931313 13.9819946 14.8293953s5.2962112-4.9784393 8.0502396-4.9784393c2.7540359 0 5.6139832 2.6481018 5.6139832 4.6606674 0 2.012558.4236984 3.8132706-2.012558 6.249527 0 0-.7414703-2.7540283-1.4829407-2.012558-.7414703.7414627-2.012558 2.5421753-.7414703 6.037674 1.2710953 3.4955063 2.224411 10.0628052-1.0592422 15.9945602-3.2836456 5.9317551-15.0412369-.7414703-18.8545074-2.012558-3.8132764-1.2710944-7.4075948-.1352988-7.4075948-.1352988z" fill="#ce9c6b" data-original="#19282f" style="" class=""/><path xmlns="http://www.w3.org/2000/svg" d="m84.311615 56.7212639c-.0697937-.4585648-.2004395-.8788223-.3504639-1.2873802-.1370087-.4170456-.3165131-.8072472-.4780121-1.2093811-.6874466-1.5816994-1.5043259-3.0879211-2.3291855-4.5870361-.7427902-1.3247719-1.5207901-2.6247673-2.3172607-3.9187965.681488-.1972847 1.3329773-.461319 1.95504-.8822632.3849335-.2732124.7773132-.6370392.9696655-1.1706161.0566025-.1289215.0782242-.2681656.0903244-.4106216.0253525-.1484222.0080338-.2667923-.0051575-.3876839-.0185242-.2537117-.0644608-.4688873-.1088486-.6833763-.1748581-.8655167-.3960571-1.6957054-.6161652-2.5318604-.221138-.8340874-.4579315-1.6629028-.7004089-2.489193-.4797821-1.6544151-.9928284-3.2978172-1.5159149-4.9375534-.544075-1.6337681-1.0664139-3.2735023-1.6502838-4.8939667.3981705 1.6757488.8403931 3.337965 1.2477493 5.0095863l1.2746429 4.9967346c.4022522 1.6649704.8604736 3.3363609 1.1640244 4.9930687.0754166.4243851.1449814.799221.0414658 1.0588989-.0998459.281929-.3570023.5464249-.6697311.7611427-.6307831.4280548-1.4485321.7076912-2.2228622.8822632l-.602623.1358032.3251724.5129318c.9072647 1.4307518 1.7856293 2.8899498 2.6387558 4.3564873.8588104 1.4637871 1.6828613 2.9493675 2.4255905 4.4627037.3518448.7567825.7097626 1.5399437.8820953 2.306591.0872269.3557968.0546494.7987633.020874 1.1942444-.0404892.4046555-.1489334.7941742-.3129578 1.159832-.3214417.7404976-.9396667 1.3350945-1.624588 1.8170586-.6885986.4847183-1.4450378.8836403-2.2085266 1.2626038.8001328-.2950058 1.5934525-.6237297 2.3321075-1.073349.7348175-.4399872 1.4474411-1.0148544 1.8753891-1.8209572.2123032-.3973198.3536682-.8350105.4234619-1.2754517.0597001-.4477844.1238176-.8646011.046631-1.3504638z" fill="#ce9c6b" data-original="#19282f" style="" class=""/><path xmlns="http://www.w3.org/2000/svg" d="m34.8246651 14.6259575c-4.4564152 1.8627796-8.6291523 4.584919-11.671423 8.3364735s-4.8776207 8.5954895-4.4901886 13.4099941c1.4154186-3.5482216 3.6722641-6.7575779 6.532608-9.2897186-3.4491024 6.8207092-3.667078 15.1912498-.5776463 22.1822281-.8832607-5.5389099 1.1440029-11.4598656 5.2368317-15.2950249-.1489906 5.5553131-.2979813 11.1106262-.4469719 16.6659355-.8729935-3.780983-.9899845-7.8475075.4390087-11.4552689s4.6001415-6.6607246 8.4366283-7.2432423c3.8364906-.5825138 8.1064758 1.7933941 9.0272217 5.563036 1.3544121-2.7760391 2.7088242-5.5520802 4.0632362-8.3281193.1367569 2.1922359.2735176 4.38447.4102745 6.5767078 1.6431847-5.13167 5.2019272-9.625267 9.8206367-12.400444 4.6629791-2.8017769 9.8783112-3.5157623 15.2076416-2.9439621-6.258255-3.0026016-11.7838058-6.6831293-18.7974129-8.0253944-7.7309873-1.4795561-15.909271-.7967291-23.1904447 2.2467995z" fill="#eb8a2b" opacity=".25" data-original="#467082" style="" class=""/><path xmlns="http://www.w3.org/2000/svg" d="m29.3430424 23.6125946c8.5994396-6.0577431 19.6231594-8.5644493 29.9965343-6.8209724-4.9226646 1.3858414-8.9015884 5.6889973-9.8983498 10.704937-1.0881996-1.0887871-1.3756943-2.8945255-.6794281-4.2674217-2.0059586 1.9961605-4.2654839 3.737236-6.7070312 5.1680984-1.5039062-1.2038212-3.6335182-1.3720646-5.5020142-.9034119s-3.5413322 1.4942455-5.1809139 2.5055218c-.3264637.2013588-.6529274.4027176-.9793892.6040764-.2320881.1431484-.4641743.2862968-.6962624.4294453-1.1594658.7151451-2.3189316 1.4302902-3.4783974 2.1454353.6922112-1.4501514 1.3879032-2.9064445 2.2867413-4.23843 2.6221809-3.8858089 6.9986572-6.5368633 11.6570206-7.0612564-4.7761345-.7936783-9.9043732 1.0140285-13.1270599 4.6272945.6282673-2.0877819 2.1705856-3.8826485 4.1400394-4.8179569" fill="#ce9c6b" opacity=".25" data-original="#19282f" style="" class=""/><path xmlns="http://www.w3.org/2000/svg" d="m76.055603 73.2299271c.348259 3.8779602.6965256 7.755928 1.0447845 11.6338882.1006012 1.1202393.1976471 2.2758789-.1444092 3.3473511-.3420639 1.0714645-1.2397537 2.0480499-2.3620453 2.1222687-1.4248047.094223-2.5025558-1.180542-3.5282288-2.173996-4.1149063-3.9856796-11.1850281-4.4182205-15.7551117-.9638824 1.4853706-2.9177551 4.8594208-4.7544098 8.1161766-4.4180298-3.4810219-1.9632187-8.1152382-1.64991-11.3003311.7639923.9864807-1.6979828 1.9729652-3.3959656 2.9594498-5.0939484-1.4810028 1.3911438-2.9620094 2.7822952-4.4430122 4.1734467.5179367-2.2381592 1.0358772-4.4763184 1.5538139-6.7144775-2.4883041.8851318-4.4871788 3.0386658-5.184761 5.5859222-1.4150925-3.8231964-.9462585-8.2942886 1.2311249-11.7407761-1.9728622 2.1046753-3.0818176 4.9962006-3.0222588 7.8803406-1.549202-1.8557739-1.4927635-4.6116638-.7059212-6.8974533s2.189518-4.3060226 3.1645699-6.5180893c1.8378716-4.1695137 2.0908432-8.8532524 2.0263062-13.4094009 1.1963348 2.9877815 2.3926697 5.975563 3.5890007 8.9633446.0350609-1.5760422.0701218-3.1520844.1051826-4.7281265 2.6948242 5.0490532 4.7666245 10.4302406 6.1535339 15.9828529.4455833-2.221817.8911667-4.4436264 1.33675-6.6654434 1.029747 1.7690277 2.0594902 3.5380554 3.0892372 5.3070831.3295212-.5368958.65905-1.0737839.9885712-1.6106796 1.2039185 1.9915085 2.4078369 3.9830246 3.6117554 5.9745331.7304077-5.7196884 6.4219818-10.3380432 12.1694794-9.8747635.5918655.2824631.5305252 1.2126617.0702896 1.679863-.4602432.4672012-1.1374207.6251907-1.7476578.8654099-3.3843155 1.3322372-4.8309784 6.0947723-2.7594376 9.0842743" fill="#eb8a2b" opacity=".25" data-original="#467082" style="" class=""/><path xmlns="http://www.w3.org/2000/svg" d="m50.9895668 73.4680328c1.7659149-1.2964172 3.1747131-3.0743027 4.0331535-5.089798-.0335541 1.9424515-.0671082 3.884903-.1006622 5.8273544-.0055923.3235703.001564.6823349.2218819.9193802.2897644.3117676.7886772.2576141 1.2070007.1790543 2.0653839-.3878784 4.1307716-.7757645 6.1961594-1.1636429-.3675194 1.3863449-.7350388 2.7726822-1.1025581 4.1590195 2.5165863-1.6331329 6.1035995-1.3806229 8.3665695.588974 1.6428299 1.429863 2.5166397 3.5259247 3.335968 5.5438614-.9496384-3.628891-1.2842331-7.417923-.9852524-11.1570816.1265335.9640274-.4380798 1.9786148-1.3240204 2.3792038-.9036636.4086075-1.9929733.1813431-2.8374329-.338707-.8444595-.5200577-1.4939575-1.2967377-2.127739-2.0595551-.3047333.864563-.6094666 1.729126-.9142075 2.593689-.2409286-1.4213638-.4818573-2.8427277-.7227859-4.2640915-1.3616791.5042648-2.7233582 1.0085297-4.0850372 1.5127945-1.0249977.3795853-2.2708321.7297592-3.1286049.0523148-.5882339-.4645691-.7747955-1.261795-.9242134-1.9963074-.3564873-1.7524338-.7129707-3.5048599-1.069458-5.2572937-.6122932.7022018-1.2245865 1.4044037-1.8368797 2.1066132-.2348404 0-1.2171326-2.7942963-1.4465981-3.0969315-.5396118 1.0474396-.3344154 2.959938-.4242592 4.1556625-.1103439 1.4684983-.220684 2.9369889-.3310241 4.4054871z" fill="#ce9c6b" data-original="#19282f" style="" class=""/></g></svg>
