<svg xmlns="http://www.w3.org/2000/svg" viewBox="0 0 750 500"><g id="freepik--background-complete--inject-156"><path d="M643.73,364.76,510.65,327.89a6.42,6.42,0,0,1-4.47-7.91L529,237.77a6.42,6.42,0,0,1,7.91-4.47l133.08,36.87a6.41,6.41,0,0,1,4.47,7.9l-22.77,82.21A6.44,6.44,0,0,1,643.73,364.76Z" style="fill:#e0e0e0"></path><path d="M526.78,295.67l-2.23,8.08-.83-.23,2-7.34-1.9-.53.2-.73Z" style="fill:#fff"></path><path d="M533.06,305.31l-.21.74-5.66-1.57.16-.59,4.27-2.36c1.16-.64,1.48-1.14,1.64-1.69.25-.94-.24-1.7-1.48-2a2.86,2.86,0,0,0-2.45.29l-.45-.67a3.79,3.79,0,0,1,3.18-.36c1.64.45,2.45,1.57,2.07,2.92-.21.78-.64,1.4-2,2.16l-3.5,1.94Z" style="fill:#fff"></path><path d="M541.94,306.28l-1.62-.45-.58,2.13-.83-.23.58-2.13-4.55-1.26.16-.6,5.77-4.17.92.26-5.57,4.07,3.5,1,.52-1.87.81.23-.52,1.86,1.61.45Z" style="fill:#fff"></path><path d="M554.31,309.71l-1.61-.45-.59,2.12-.83-.23.59-2.12-4.56-1.26.17-.6,5.76-4.17.92.26-5.57,4.07,3.51,1,.51-1.87.81.22-.52,1.87,1.62.45Z" style="fill:#fff"></path><path d="M561.44,311.41c-.38,1.37-1.63,2.18-3.6,1.63a4.27,4.27,0,0,1-2.61-1.84l.58-.54a3.68,3.68,0,0,0,2.22,1.62c1.38.38,2.29-.09,2.56-1.07s-.18-1.86-2.23-2.43l-1.72-.48,1.54-3.93,4.41,1.22-.2.74-3.69-1-1,2.5,1,.28C561.18,308.77,561.84,310,561.44,311.41Z" style="fill:#fff"></path><path d="M569.43,313.59A2.6,2.6,0,0,1,566,315.3c-2.15-.59-2.9-2.4-2.19-4.95.76-2.75,2.65-3.76,4.85-3.15a3.86,3.86,0,0,1,1.79,1l-.52.58a2.89,2.89,0,0,0-1.46-.81c-1.75-.49-3.17.32-3.78,2.51a6.85,6.85,0,0,0-.15.67,2.67,2.67,0,0,1,2.85-.7A2.53,2.53,0,0,1,569.43,313.59Zm-.82-.21a1.84,1.84,0,0,0-1.55-2.3,1.93,1.93,0,0,0-2.56,1.19c-.25.89.25,1.93,1.65,2.32A1.83,1.83,0,0,0,568.61,313.38Z" style="fill:#fff"></path><path d="M580.46,316.74c-.38,1.35-1.64,2.12-3.59,1.58a4.35,4.35,0,0,1-2.62-1.85l.58-.54a3.7,3.7,0,0,0,2.25,1.62c1.33.38,2.25,0,2.52-1.05s-.23-1.79-1.73-2.2l-.58-.16.17-.62,3-2.18-4.13-1.14.21-.74,5.19,1.44-.16.59-3.08,2.23C580.2,314.3,580.81,315.45,580.46,316.74Z" style="fill:#fff"></path><path d="M588.58,318.89a2.62,2.62,0,0,1-3.44,1.72c-2.15-.6-2.9-2.41-2.2-5,.76-2.74,2.66-3.76,4.85-3.15a3.82,3.82,0,0,1,1.79,1l-.52.57a2.92,2.92,0,0,0-1.46-.81c-1.74-.48-3.17.33-3.78,2.52-.05.18-.1.42-.14.66a2.69,2.69,0,0,1,2.85-.7A2.54,2.54,0,0,1,588.58,318.89Zm-.83-.2a1.84,1.84,0,0,0-1.54-2.31,1.85,1.85,0,1,0-.92,3.51A1.82,1.82,0,0,0,587.75,318.69Z" style="fill:#fff"></path><path d="M597.58,315.28l-.17.59L592,322.42l-.9-.25,5.35-6.41-4.15-1.15-.42,1.51-.82-.23.63-2.25Z" style="fill:#fff"></path><path d="M609.12,318.48l-.16.59-5.46,6.55-.9-.25L608,319l-4.16-1.15-.41,1.51-.82-.23.62-2.25Z" style="fill:#fff"></path><path d="M615.45,326.51c-.39,1.43-1.85,2-3.78,1.45s-2.87-1.75-2.47-3.18a2.1,2.1,0,0,1,2.11-1.56,1.89,1.89,0,0,1-.78-2.12c.36-1.32,1.71-1.83,3.42-1.35s2.62,1.6,2.26,2.92a1.92,1.92,0,0,1-1.79,1.42A2.1,2.1,0,0,1,615.45,326.51Zm-.85-.25c.28-1-.4-1.85-1.84-2.25s-2.44,0-2.71,1,.39,1.86,1.82,2.25S614.32,327.26,614.6,326.26Zm-1.65-2.9c1.25.34,2.16,0,2.4-.89s-.39-1.69-1.6-2-2.15,0-2.39.9S611.69,323,613,323.36Z" style="fill:#fff"></path><path d="M623.81,326.82c-.76,2.75-2.66,3.76-4.85,3.16a3.82,3.82,0,0,1-1.79-1l.52-.58a3,3,0,0,0,1.46.82c1.74.48,3.17-.33,3.78-2.52.05-.18.1-.42.15-.67a2.68,2.68,0,0,1-2.86.7,2.53,2.53,0,0,1-2.05-3.17,2.62,2.62,0,0,1,3.45-1.72C623.76,322.46,624.52,324.27,623.81,326.82Zm-.7-1.92c.25-.88-.26-1.93-1.65-2.32a1.83,1.83,0,1,0-.91,3.51A1.93,1.93,0,0,0,623.11,324.9Z" style="fill:#fff"></path><path d="M633.1,325.12l-2.24,8.08L630,333l2-7.34-1.9-.52.2-.74Z" style="fill:#fff"></path><path d="M639.37,334.76l-.21.74-5.66-1.57.16-.59,4.27-2.36c1.16-.64,1.48-1.14,1.64-1.69.26-.93-.24-1.69-1.48-2a2.86,2.86,0,0,0-2.45.29l-.45-.67a3.79,3.79,0,0,1,3.18-.36c1.64.46,2.45,1.57,2.08,2.92-.22.78-.65,1.4-2,2.16l-3.49,1.94Z" style="fill:#fff"></path><path d="M647.05,335.19c-.37,1.35-1.64,2.11-3.59,1.57a4.33,4.33,0,0,1-2.62-1.84l.58-.54a3.7,3.7,0,0,0,2.25,1.62c1.34.37,2.25-.05,2.52-1.05s-.23-1.79-1.73-2.21l-.58-.16.17-.61,3-2.18-4.13-1.14.2-.74,5.19,1.44-.16.58-3.08,2.24C646.79,332.75,647.41,333.9,647.05,335.19Z" style="fill:#fff"></path><rect x="612.77" y="303.46" width="3.64" height="67.12" transform="translate(125.75 839.35) rotate(-74.52)" style="fill:#fff"></rect><rect x="626.59" y="331.17" width="3.64" height="34.42" transform="translate(124.92 860.99) rotate(-74.52)" style="fill:#fff"></rect><g style="opacity:0.5"><rect x="526.08" y="270.45" width="28.16" height="21.04" rx="4.96" transform="translate(94.62 -134.01) rotate(15.48)" style="fill:#f5f5f5"></rect></g><path d="M525.34,281.73l.36-1.3,14,3.87a3,3,0,1,0,1.62-5.84l-14-3.88.36-1.3,14,3.87a4.39,4.39,0,0,1-2.35,8.46Z" style="fill:#e0e0e0"></path><rect x="548.18" y="278.72" width="1.35" height="9.95" transform="translate(128.5 736.5) rotate(-74.46)" style="fill:#e0e0e0"></rect><rect x="535.09" y="260.83" width="72.42" height="6.22" transform="translate(91.22 -142.97) rotate(15.49)" style="fill:#fff"></rect><rect x="641.88" y="278.23" width="14.58" height="14.58" rx="3.15" transform="translate(99.81 -162.98) rotate(15.49)" style="fill:#fff"></rect><path d="M667.84,128.79,651.7,67.66a6.26,6.26,0,0,0-3.09-4l-26.44-14.3a6.26,6.26,0,0,0-8.2,2.06L597.41,76.52a6.23,6.23,0,0,0-.85,5l16.13,61.13a6.26,6.26,0,0,0,7.59,4.55l43-10.79A6.26,6.26,0,0,0,667.84,128.79ZM623.3,70.53A5.87,5.87,0,1,1,628,63.71,5.87,5.87,0,0,1,623.3,70.53Z" style="fill:#e0e0e0"></path><path d="M667.84,128.79,651.7,67.66a6.26,6.26,0,0,0-3.09-4l-26.44-14.3a6.26,6.26,0,0,0-8.2,2.06L597.41,76.52a6.23,6.23,0,0,0-.85,5l16.13,61.13a6.26,6.26,0,0,0,7.59,4.55l43-10.79A6.26,6.26,0,0,0,667.84,128.79ZM623.3,70.53A5.87,5.87,0,1,1,628,63.71,5.87,5.87,0,0,1,623.3,70.53Z" style="fill:none"></path><path d="M609.13,102.41c-1.58-6,1.22-10.55,6.29-11.89s9.82,1.24,11.4,7.21-1.21,10.55-6.33,11.9S610.72,108.42,609.13,102.41Zm11.73-3.1c-.93-3.5-2.52-4.56-4.2-4.11s-2.54,2.15-1.61,5.65,2.62,4.52,4.2,4.1S621.79,102.8,620.86,99.31Zm15.08-13.75,7.1-1.88-14.42,40.73-7.1,1.88Zm1.84,26.67c-1.58-6,1.17-10.54,6.29-11.9s9.82,1.25,11.4,7.21-1.21,10.55-6.34,11.91S639.37,118.24,637.78,112.23Zm11.73-3.11c-.93-3.5-2.57-4.54-4.2-4.11s-2.54,2.15-1.61,5.65,2.57,4.54,4.2,4.11S650.44,112.62,649.51,109.12Z" style="fill:#fff"></path><path d="M141.35,358.47l-32.8-70.7a7.71,7.71,0,0,0-4.62-4.17L68.76,272a7.71,7.71,0,0,0-9.51,4.26l-14.69,34a7.74,7.74,0,0,0,0,6.22l32.79,70.7a7.71,7.71,0,0,0,10.2,3.88l49.87-22.38A7.73,7.73,0,0,0,141.35,358.47ZM74.69,297.39A7.24,7.24,0,1,1,79,288.08,7.24,7.24,0,0,1,74.69,297.39Z" style="fill:#e0e0e0"></path><path d="M141.35,358.47l-32.8-70.7a7.71,7.71,0,0,0-4.62-4.17L68.76,272a7.71,7.71,0,0,0-9.51,4.26l-14.69,34a7.74,7.74,0,0,0,0,6.22l32.79,70.7a7.71,7.71,0,0,0,10.2,3.88l49.87-22.38A7.73,7.73,0,0,0,141.35,358.47ZM74.69,297.39A7.24,7.24,0,1,1,79,288.08,7.24,7.24,0,0,1,74.69,297.39Z" style="fill:none"></path><path d="M64.39,339.14c-3.2-6.89-.81-13.07,5.06-15.79s12.2-.61,15.4,6.28.81,13.07-5.12,15.83S67.62,346.1,64.39,339.14ZM78,332.84c-1.89-4-4-5-6-4.08s-2.62,3.16-.74,7.2,4.16,4.93,6,4.08S79.84,336.89,78,332.84Zm15.33-19.95,8.2-3.81L92.8,361.63l-8.21,3.82Zm8,32c-3.21-6.89-.87-13,5.06-15.8s12.19-.6,15.39,6.29.81,13.07-5.11,15.82S104.52,351.81,101.29,344.86Zm13.56-6.3c-1.88-4.05-4.11-5-6-4.08s-2.62,3.16-.74,7.2,4.11,5,6,4.08S116.73,342.6,114.85,338.56Z" style="fill:#fff"></path><circle cx="132.05" cy="110.84" r="49.84" style="fill:#e0e0e0"></circle><circle cx="130.71" cy="107.65" r="49.84" style="fill:#ebebeb"></circle><circle cx="130.71" cy="107.65" r="38.77" style="fill:#fff"></circle><circle cx="130.71" cy="107.65" r="27.28" transform="translate(-18.77 187.22) rotate(-67.5)" style="fill:#ebebeb"></circle><path d="M145.1,107.65a14.39,14.39,0,1,1-14.39-14.39A14.4,14.4,0,0,1,145.1,107.65Z" style="fill:#fff"></path><polygon points="169.26 67.29 167.91 56.66 178.73 45.07 179.51 56.55 169.26 67.29" style="fill:#ebebeb"></polygon><polygon points="192.5 58.83 181.51 57.94 170.51 68.52 181.52 69.7 192.5 58.83" style="fill:#ebebeb"></polygon><path d="M181.14,54.33,176,59.53,163.67,72l-14.85,15-12.9,13.07c-2.09,2.12-4.28,4.17-6.28,6.37l-.09.09a1.34,1.34,0,0,0,1.89,1.89c1.71-1.73,3.42-3.47,5.14-5.2l12.33-12.49,14.85-15,12.9-13.08c2.09-2.11,4.27-4.17,6.28-6.36l.09-.09c1.22-1.23-.68-3.13-1.89-1.9Z" style="fill:#e0e0e0"></path><path d="M457.26,55.47a7.8,7.8,0,0,0-.45-4.67A7.48,7.48,0,0,0,454,47.2a6.07,6.07,0,0,0-7.33.67,6,6,0,0,0-5.16-4.93,7.46,7.46,0,0,0-4.5.93,7.88,7.88,0,0,0-3.33,3.31,9.49,9.49,0,0,0-.87,5.9,13.49,13.49,0,0,0,2.88,5.66c2.23,2.74,5.2,6.24,5.2,6.24s4-1.22,7.49-1.91a13.42,13.42,0,0,0,5.83-2.51A9.52,9.52,0,0,0,457.26,55.47Z" style="fill:#e0e0e0"></path><path d="M705.3,357.75a7.81,7.81,0,0,0-.44-4.67,7.5,7.5,0,0,0-2.86-3.59,6,6,0,0,0-7.33.66,6.07,6.07,0,0,0-1-2.44,6.15,6.15,0,0,0-4.14-2.49,7.52,7.52,0,0,0-4.49.94,7.77,7.77,0,0,0-3.33,3.31,9.56,9.56,0,0,0-.88,5.9,13.42,13.42,0,0,0,2.89,5.65c2.22,2.74,5.19,6.25,5.19,6.25s4-1.23,7.49-1.91a13.54,13.54,0,0,0,5.83-2.51A9.48,9.48,0,0,0,705.3,357.75Z" style="fill:#e0e0e0"></path><path d="M170.81,202.86a5.87,5.87,0,0,0-2.64-2.31,5.64,5.64,0,0,0-3.4-.49,4.65,4.65,0,0,0-3,2.05,4.56,4.56,0,0,0-.67,2.08,4.38,4.38,0,0,0-1.82-.8,4.59,4.59,0,0,0-3.52.77,5.6,5.6,0,0,0-2,2.82,5.89,5.89,0,0,0-.11,3.5,7.11,7.11,0,0,0,2.55,3.66,10,10,0,0,0,4.47,1.59c2.62.35,6,.73,6,.73s1.55-2.73,3.09-4.88a10.11,10.11,0,0,0,1.88-4.36A7.17,7.17,0,0,0,170.81,202.86Z" style="fill:#e0e0e0"></path></g><g id="freepik--Floor--inject-156"><path d="M722.42,468.2c0,.14-156,.26-348.4.26s-348.44-.12-348.44-.26,156-.26,348.44-.26S722.42,468.06,722.42,468.2Z" style="fill:#263238"></path></g><g id="freepik--Bag--inject-156"><path d="M80.11,410.59a36.71,36.71,0,0,0-1.39-6.65,19.34,19.34,0,0,0-3.18-6.1,8.24,8.24,0,0,0-6.22-3.37,8.2,8.2,0,0,0-6.24,3.32,19.33,19.33,0,0,0-3.2,6.08,37.93,37.93,0,0,0-1.41,6.64,3,3,0,0,1,0-.49c0-.31,0-.78.11-1.38a26,26,0,0,1,1-4.92,19.46,19.46,0,0,1,3.21-6.29,8.47,8.47,0,0,1,6.5-3.5,8.53,8.53,0,0,1,6.48,3.55A19.31,19.31,0,0,1,79,403.8a25.48,25.48,0,0,1,1,4.92,12.74,12.74,0,0,1,.1,1.38A1.53,1.53,0,0,1,80.11,410.59Z" style="fill:#263238"></path><path d="M83.85,410.59a37.83,37.83,0,0,0-1.39-6.65,19.55,19.55,0,0,0-3.18-6.1,8.26,8.26,0,0,0-6.22-3.37,8.18,8.18,0,0,0-6.24,3.32,19.36,19.36,0,0,0-3.21,6.08,36.14,36.14,0,0,0-1.4,6.64,1.53,1.53,0,0,1,0-.49c0-.31,0-.78.1-1.38a26.11,26.11,0,0,1,1-4.92,19.46,19.46,0,0,1,3.21-6.29,8.47,8.47,0,0,1,6.5-3.5,8.53,8.53,0,0,1,6.48,3.55,19.71,19.71,0,0,1,3.19,6.32,26.27,26.27,0,0,1,1,4.92c.06.6.09,1.07.1,1.38A3,3,0,0,1,83.85,410.59Z" style="fill:#263238"></path><polygon points="45.91 407.71 88.11 407.37 89.03 467.34 41.67 467.34 45.91 407.71" style="fill:#FFC727"></polygon><polygon points="88.11 407.37 93.41 407.37 97.97 467.34 89.03 467.34 88.11 407.37" style="fill:#FFC727"></polygon><rect x="53.29" y="427.74" width="27.63" height="6.06" style="fill:#fff"></rect><g style="opacity:0.30000000000000004"><polygon points="88.11 407.37 93.41 407.37 97.97 467.34 89.03 467.34 88.11 407.37"></polygon></g></g><g id="freepik--Gift--inject-156"><path d="M498.52,384.23s-14.7.85-15.89,3.42c0,0-.18,10.82,10.21,21.71l-2,4.44V421c4.84-9.37,10.24-23.73,10.24-23.73S501.26,387.19,498.52,384.23Z" style="fill:#455a64"></path><g style="opacity:0.30000000000000004"><path d="M498,385.18s-5.14,13.33-2,22.92C496,408.1,503.06,396.33,498,385.18Z"></path></g><path d="M521.11,402.17s-6.82-13.05-9.65-13.07c0,0-9.94,4.27-15.6,18.23l-4.88,0s-2.6-11.21-15.65-17.38c0,0-7.46,13.43-7.71,13.3a26.61,26.61,0,0,0,16.78,7c10.53.55,25.84-.44,25.84-.44S519.53,405.88,521.11,402.17Z" style="fill:#455a64"></path><g style="opacity:0.30000000000000004"><path d="M488.44,409.1s-11-6.36-19.92-5.76C468.52,403.34,478.84,412,488.44,409.1Z"></path></g><g style="opacity:0.30000000000000004"><path d="M520,402.09s-14.25.8-21.71,7.61C498.31,409.7,511.94,411.28,520,402.09Z"></path></g><polygon points="542.54 409.78 538.65 468.31 448.3 467.47 447.59 408.89 542.54 409.78" style="fill:#FFC727"></polygon><g style="opacity:0.30000000000000004"><polygon points="525.39 409.62 524.85 468.19 538.65 468.31 542.54 409.78 525.39 409.62"></polygon></g><polygon points="535.75 409.72 532.9 468.26 529.76 468.23 530.31 409.67 535.75 409.72" style="fill:#455a64"></polygon><rect x="457.67" y="434.78" width="58.57" height="7.53" transform="translate(43.87 921.37) rotate(-89.46)" style="fill:#455a64"></rect><rect x="447.9" y="434.69" width="92.61" height="5.68" style="fill:#455a64"></rect></g><g id="freepik--credit-card--inject-156"><path d="M413.69,154.39,245.26,186.64a5.58,5.58,0,0,1-6.54-4.44L219,79.36a5.59,5.59,0,0,1,4.44-6.54L391.89,40.57A5.6,5.6,0,0,1,398.44,45l19.69,102.84A5.59,5.59,0,0,1,413.69,154.39Z" style="fill:#FFC727"></path><path d="M252.5,94.21c.27,1.46-.72,2.52-2.93,3l-4.36.83-1.61-8.42,4.11-.79c2.11-.4,3.36.27,3.61,1.58a2.08,2.08,0,0,1-.76,2.07A2.13,2.13,0,0,1,252.5,94.21Zm-6.68-3.54.38,2,1.93-.37c1-.18,1.41-.62,1.28-1.28s-.71-.89-1.66-.7Zm4.67,3.72c-.13-.71-.74-1-1.75-.75l-2.27.43.4,2.08,2.27-.43C250.15,95.52,250.63,95.11,250.49,94.39Z" style="fill:#fff"></path><path d="M259.61,93.36l-3.91.75-.4,2-2,.38,2.14-9.14,1.93-.37,5.38,7.7-2.05.4Zm-.9-1.36-1.95-3L256,92.51Z" style="fill:#fff"></path><path d="M269.73,84.57,271.34,93l-1.6.3L264.56,89l1,5.12-1.92.37L262,86.05l1.62-.31,5.16,4.31-1-5.12Z" style="fill:#fff"></path><path d="M275.77,88.71l-.91,1.4.41,2.13-1.94.37-1.61-8.42,1.94-.38.75,3.94,3-4.65,2.16-.41-2.77,4.42,4.59,4-2.28.43Z" style="fill:#fff"></path><path d="M257.62,129.54l-1.54.29.39,2-.8.15-.39-2-4.36.83-.11-.57,3.12-5.91.88-.17-3,5.75,3.36-.65-.34-1.78.77-.15.34,1.79,1.55-.3Z" style="fill:#fff"></path><path d="M263.27,128.26c.24,1.3-.51,2.47-2.37,2.83a4.15,4.15,0,0,1-3-.46l.27-.71a3.44,3.44,0,0,0,2.57.44c1.28-.25,1.87-1,1.69-1.94s-.95-1.41-2.38-1.14l-.56.11-.11-.59,1.63-3.09-3.95.76-.14-.71,5-1,.11.56-1.66,3.17C262,126.31,263,127,263.27,128.26Z" style="fill:#fff"></path><path d="M269.51,127c.25,1.31-.47,2.52-2.36,2.88a4.08,4.08,0,0,1-3-.46l.26-.71a3.39,3.39,0,0,0,2.55.44c1.31-.25,1.88-1,1.7-2s-.92-1.5-2.89-1.12l-1.64.32-.35-4,4.23-.81.14.71-3.54.68.21,2.51,1-.19C268.18,124.89,269.24,125.64,269.51,127Z" style="fill:#fff"></path><path d="M276.31,125.67a2.44,2.44,0,0,1-2.18,2.88c-2.06.4-3.45-.81-3.91-3.26-.51-2.62.67-4.27,2.77-4.67a3.58,3.58,0,0,1,1.91.07l-.2.7a2.75,2.75,0,0,0-1.57-.08c-1.67.32-2.53,1.6-2.13,3.7a5.45,5.45,0,0,0,.15.62,2.54,2.54,0,0,1,2.11-1.78A2.39,2.39,0,0,1,276.31,125.67Zm-.78.18a1.72,1.72,0,0,0-2.26-1.3,1.73,1.73,0,1,0,.69,3.34A1.73,1.73,0,0,0,275.53,125.85Z" style="fill:#fff"></path><path d="M293.46,124.78l-2.31-2.07-1.39,2.78-.88.17,1.72-3.42-2.72-2.41.88-.17,2.18,1.94,1.31-2.61.86-.16-1.65,3.24,2.9,2.54Z" style="fill:#fff"></path><path d="M299.36,123.65l-2.31-2.07-1.39,2.78-.89.17,1.73-3.42-2.73-2.41.89-.17,2.18,1.94,1.31-2.61.86-.16-1.65,3.24,2.89,2.54Z" style="fill:#fff"></path><path d="M305.25,122.52l-2.31-2.07-1.38,2.78-.89.17L302.4,120l-2.73-2.41.88-.17,2.18,1.94,1.31-2.61.86-.16-1.64,3.25,2.89,2.53Z" style="fill:#fff"></path><path d="M311.15,121.39l-2.31-2.07-1.39,2.78-.88.17,1.73-3.42-2.73-2.41.88-.17,2.18,1.94,1.31-2.61.86-.16-1.64,3.25,2.89,2.53Z" style="fill:#fff"></path><path d="M331.51,117.5l-2.31-2.08-1.38,2.78-.89.17,1.73-3.42-2.73-2.41.88-.17,2.18,1.94,1.31-2.6.86-.17-1.64,3.25,2.89,2.53Z" style="fill:#fff"></path><path d="M337.41,116.37l-2.31-2.08-1.39,2.78-.88.17,1.72-3.42-2.72-2.41.88-.17,2.18,2,1.31-2.61.86-.17-1.65,3.25,2.9,2.53Z" style="fill:#fff"></path><path d="M343.31,115.24,341,113.16,339.61,116l-.89.16,1.73-3.42-2.73-2.41.89-.16,2.18,1.94,1.31-2.61.86-.17-1.65,3.25,2.89,2.54Z" style="fill:#fff"></path><path d="M349.2,114.11,346.9,112l-1.39,2.79-.89.17,1.73-3.43-2.73-2.4.88-.17,2.18,1.94,1.31-2.61.86-.17-1.64,3.25,2.89,2.54Z" style="fill:#fff"></path><path d="M366,102.88l1.48,7.73-.79.15-1.35-7-1.82.35-.14-.7Z" style="fill:#fff"></path><path d="M374,107.05c.25,1.3-.5,2.47-2.36,2.83a4.15,4.15,0,0,1-3-.46l.27-.71a3.44,3.44,0,0,0,2.57.44c1.28-.25,1.87-1,1.69-1.94s-.95-1.41-2.39-1.13l-.55.1-.11-.58,1.63-3.1-4,.76-.14-.71,5-1,.11.56-1.66,3.17C372.79,105.1,373.79,105.82,374,107.05Z" style="fill:#fff"></path><path d="M381.75,105.77l-1.55.3.39,2-.8.15-.39-2-4.36.83-.11-.57,3.12-5.91.88-.17-3,5.75,3.36-.64-.34-1.79.77-.15.34,1.79,1.55-.3Z" style="fill:#fff"></path><path d="M388,106l.14.71-5.42,1-.11-.56,2.61-3.77a2.61,2.61,0,0,0,.67-2.11c-.17-.89-.9-1.32-2.09-1.1a2.69,2.69,0,0,0-1.94,1.27l-.66-.38a3.56,3.56,0,0,1,2.53-1.63c1.57-.3,2.71.31,3,1.6a3.22,3.22,0,0,1-.81,2.66l-2.13,3.09Z" style="fill:#fff"></path><path d="M250.41,149.66a1.92,1.92,0,0,1,1.63-2.29,2,2,0,0,1,1.65.36l-.45.61a1.25,1.25,0,0,0-1-.25,1.2,1.2,0,1,0,.45,2.36,1.18,1.18,0,0,0,.84-.62l.65.41a2,2,0,0,1-1.4.95A1.93,1.93,0,0,1,250.41,149.66Z" style="fill:#fff"></path><path d="M257.07,149.48l-1.72.33-.17.85-.88.17.94-4,.84-.16,2.36,3.37-.9.18Zm-.4-.6-.85-1.3-.32,1.53Z" style="fill:#fff"></path><path d="M261.18,149.51l-.91-.89h0l-.74.14.19,1-.85.16-.71-3.69,1.6-.3c1-.19,1.7.2,1.86,1a1.24,1.24,0,0,1-.54,1.31l1.06,1Zm-1.37-2.84-.7.13.25,1.29.69-.13c.52-.1.74-.4.66-.8S260.33,146.57,259.81,146.67Z" style="fill:#fff"></path><path d="M262.35,148.91l.17-.7a2.13,2.13,0,0,0,1.29.15c.5-.09.68-.3.63-.53-.13-.69-2.18.2-2.44-1.17-.12-.63.28-1.25,1.33-1.45a2.5,2.5,0,0,1,1.34.08l-.14.7a2.13,2.13,0,0,0-1.07-.1c-.51.1-.67.33-.62.56.13.68,2.18-.2,2.44,1.15.12.62-.29,1.25-1.35,1.45A2.69,2.69,0,0,1,262.35,148.91Z" style="fill:#fff"></path><path d="M270.25,144l.7,3.69-.85.16-.29-1.51-1.68.32.29,1.51-.85.17-.71-3.69.86-.17.28,1.46,1.67-.32-.28-1.46Z" style="fill:#fff"></path><path d="M271.25,145.67a2.06,2.06,0,1,1,2.38,1.52A1.94,1.94,0,0,1,271.25,145.67Zm3.17-.61a1.18,1.18,0,1,0-.92,1.4A1.15,1.15,0,0,0,274.42,145.06Z" style="fill:#fff"></path><path d="M275.58,142.93l.86-.17.57,3,1.85-.36.13.7-2.7.52Z" style="fill:#fff"></path><path d="M278.77,142.32l1.68-.32a1.87,1.87,0,0,1,2.39,1.45,1.89,1.89,0,0,1-1.69,2.24l-1.67.32ZM281,145a1.16,1.16,0,1,0-.44-2.28l-.78.14.44,2.29Z" style="fill:#fff"></path><path d="M286.56,143.94l.13.68-2.85.55-.71-3.69,2.79-.53.13.68-1.94.37.16.81,1.71-.33.12.66-1.71.33.17.85Z" style="fill:#fff"></path><path d="M289.73,144l-.91-.89h0l-.74.14.19,1-.85.16-.71-3.69,1.6-.3c1-.19,1.7.2,1.86,1a1.24,1.24,0,0,1-.54,1.31l1.06,1Zm-1.37-2.84-.7.14.25,1.28.69-.13c.52-.1.74-.39.66-.79S288.88,141.1,288.36,141.2Z" style="fill:#fff"></path><rect x="251.62" y="155.55" width="55.72" height="4.82" rx="1.5" transform="translate(-24.72 55.38) rotate(-10.84)" style="fill:#fff"></rect><rect x="366.62" y="135.91" width="30.95" height="4.82" rx="1.5" transform="translate(-19.19 74.33) rotate(-10.84)" style="fill:#fff"></rect><g style="opacity:0.2"><path d="M391.44,40.66,223.92,72.73a6.05,6.05,0,0,0-4.81,7.09l5.76,30.05c12,5.35,26.78,3.87,39.16-1.3,14.6-6.09,26.87-16.5,39.82-25.58s27.52-17.18,43.34-17.49c14.92-.29,28.95,6.35,43.29,10.51a78.85,78.85,0,0,0,14.44,2.84l-6.4-33.39A6,6,0,0,0,391.44,40.66Z" style="fill:#fff"></path></g></g><g id="freepik--social-media-icons--inject-156"><path d="M529.49,95.65h0a22.09,22.09,0,0,1-22.08-22.08h0a22.08,22.08,0,0,1,22.08-22.08h0a22.08,22.08,0,0,1,22.09,22.08h0A22.09,22.09,0,0,1,529.49,95.65Z" style="fill:#455a64"></path><path d="M517.29,82.72a15.29,15.29,0,0,0,23.53-13.58,10.94,10.94,0,0,0,2.69-2.78,11.13,11.13,0,0,1-3.09.84,5.34,5.34,0,0,0,2.36-3,10.91,10.91,0,0,1-3.41,1.3,5.39,5.39,0,0,0-9.17,4.91,15.25,15.25,0,0,1-11.08-5.62A5.38,5.38,0,0,0,520.78,72a5.46,5.46,0,0,1-2.44-.67,5.39,5.39,0,0,0,4.32,5.34,5.36,5.36,0,0,1-2.43.09,5.39,5.39,0,0,0,5,3.74A10.8,10.8,0,0,1,517.29,82.72Z" style="fill:#fff"></path><path d="M87.88,233.79h0A22.09,22.09,0,0,1,65.8,211.71h0a22.08,22.08,0,0,1,22.08-22.08h0A22.07,22.07,0,0,1,110,211.71h0A22.08,22.08,0,0,1,87.88,233.79Z" style="fill:#455a64"></path><path d="M84.52,225.05h5.37V211.59h3.75l.4-4.5H89.89v-2.57c0-1.06.22-1.48,1.24-1.48H94v-4.68H90.32c-4,0-5.8,1.76-5.8,5.13v3.6h-2.8v4.56h2.8Z" style="fill:#fff"></path><path d="M666.29,247.35h0a21,21,0,0,1-21-21h0a21,21,0,0,1,21-21h0a21,21,0,0,1,21,21h0A21,21,0,0,1,666.29,247.35Z" style="fill:#455a64"></path><path d="M666.29,216.87c3.08,0,3.44,0,4.66.06a6.31,6.31,0,0,1,2.14.4,3.85,3.85,0,0,1,2.19,2.19,6.59,6.59,0,0,1,.39,2.14c.06,1.22.07,1.58.07,4.66s0,3.44-.07,4.66a6.65,6.65,0,0,1-.39,2.14,3.85,3.85,0,0,1-2.19,2.19,6.31,6.31,0,0,1-2.14.4c-1.22,0-1.58.06-4.66.06s-3.45,0-4.66-.06a6.2,6.2,0,0,1-2.14-.4,3.59,3.59,0,0,1-1.33-.86,3.68,3.68,0,0,1-.86-1.33,6.31,6.31,0,0,1-.4-2.14c-.06-1.22-.07-1.58-.07-4.66s0-3.44.07-4.66a6.25,6.25,0,0,1,.4-2.14,3.68,3.68,0,0,1,.86-1.33,3.59,3.59,0,0,1,1.33-.86,6.2,6.2,0,0,1,2.14-.4c1.21-.05,1.58-.06,4.66-.06m0-2.08c-3.14,0-3.53,0-4.76.07a8.48,8.48,0,0,0-2.8.53,5.7,5.7,0,0,0-2,1.33,5.61,5.61,0,0,0-1.33,2.05,8.4,8.4,0,0,0-.54,2.8c-.05,1.23-.07,1.62-.07,4.75s0,3.52.07,4.75a8.4,8.4,0,0,0,.54,2.8,5.89,5.89,0,0,0,3.37,3.38,8.48,8.48,0,0,0,2.8.53c1.23.06,1.62.07,4.76.07s3.52,0,4.75-.07a8.43,8.43,0,0,0,2.8-.53,5.89,5.89,0,0,0,3.37-3.38,8.4,8.4,0,0,0,.54-2.8c0-1.23.07-1.62.07-4.75s0-3.52-.07-4.75a8.4,8.4,0,0,0-.54-2.8,5.61,5.61,0,0,0-1.33-2.05,5.7,5.7,0,0,0-2-1.33,8.43,8.43,0,0,0-2.8-.53c-1.23-.06-1.62-.07-4.75-.07" style="fill:#fff"></path><path d="M666.29,220.4a5.92,5.92,0,1,0,5.92,5.92,5.93,5.93,0,0,0-5.92-5.92m0,9.76a3.84,3.84,0,1,1,3.84-3.84,3.84,3.84,0,0,1-3.84,3.84" style="fill:#fff"></path><path d="M673.83,220.16a1.39,1.39,0,1,1-1.39-1.38,1.39,1.39,0,0,1,1.39,1.38" style="fill:#fff"></path></g><g id="freepik--speech-bubble-2--inject-156"><path d="M662.76,325.6H628.41a3,3,0,0,0-3,3V363a3,3,0,0,0,3,3h4.31l4.3,4.83,4.17-4.83h21.57a3,3,0,0,0,3-3V328.6A3,3,0,0,0,662.76,325.6Z" style="fill:#fafafa"></path><path d="M662.76,325.6a2.47,2.47,0,0,1,1.26.23,3,3,0,0,1,1.22,1,3.19,3.19,0,0,1,.61,2.05c0,3.24,0,7.9.08,13.71s0,12.86,0,20.74a3.24,3.24,0,0,1-1.75,2.54,3.35,3.35,0,0,1-1.58.35H641.2l.19-.09L637.21,371l-.19.23-.2-.22-4.3-4.84.2.09h-4.19a3.31,3.31,0,0,1-2.08-.66,3.23,3.23,0,0,1-1.21-1.82,11.51,11.51,0,0,1-.09-2.09v-8c0-5.23,0-10.27,0-15.08q0-3.6,0-7c0-1.15,0-2.23,0-3.39a3.23,3.23,0,0,1,2.09-2.59,4.07,4.07,0,0,1,1.64-.2h4.59l5.71,0,17.21.08,4.68.05,1.22,0a1.85,1.85,0,0,1,.41,0l-.41,0-1.22,0-4.68,0-17.21.09h-10.3a3.82,3.82,0,0,0-1.49.18,2.77,2.77,0,0,0-1.79,2.25c0,1,0,2.21,0,3.33q0,3.42,0,7c0,4.81,0,9.85,0,15.08q0,3.93,0,8a10.39,10.39,0,0,0,.08,2,2.67,2.67,0,0,0,1,1.53,2.71,2.71,0,0,0,1.77.55h4.31l.07.09c1.48,1.66,2.93,3.31,4.3,4.84h-.39l4.18-4.84.08-.09h21.55a2.78,2.78,0,0,0,2.89-2.47c0-7.86.05-14.85.07-20.69s.06-10.47.08-13.71a3,3,0,0,0-.54-2,2.92,2.92,0,0,0-1.15-1A4,4,0,0,0,662.76,325.6Z" style="fill:#263238"></path><path d="M652.73,348.5H640a.4.4,0,0,1-.39-.39.39.39,0,0,1,.39-.39h12.37l1.37-7.78H638.85a.39.39,0,0,1-.39-.39.38.38,0,0,1,.39-.39h15.4a.41.41,0,0,1,.3.14.4.4,0,0,1,.08.32l-1.51,8.56A.41.41,0,0,1,652.73,348.5Z" style="fill:#263238"></path><path d="M652.31,351.49h0l-12.09,0a.39.39,0,0,1-.38-.34l-1.73-13.45h-3.54a.4.4,0,0,1-.39-.39.39.39,0,0,1,.39-.39h3.89a.38.38,0,0,1,.38.34l1.73,13.45,11.74,0a.39.39,0,0,1,.39.39A.38.38,0,0,1,652.31,351.49Z" style="fill:#263238"></path><path d="M642.2,355.79a1.9,1.9,0,1,1,1.89-1.89A1.9,1.9,0,0,1,642.2,355.79Zm0-3a1.12,1.12,0,1,0,1.11,1.12A1.12,1.12,0,0,0,642.2,352.78Z" style="fill:#263238"></path><path d="M650.54,355.79a1.9,1.9,0,1,1,1.89-1.89A1.89,1.89,0,0,1,650.54,355.79Zm0-3a1.12,1.12,0,1,0,1.12,1.12A1.12,1.12,0,0,0,650.54,352.78Z" style="fill:#263238"></path><path d="M644,348.5a.39.39,0,0,1-.39-.37l-.51-8.28a.39.39,0,1,1,.77-.05l.52,8.28a.4.4,0,0,1-.37.42Z" style="fill:#263238"></path><path d="M648.6,348.5h0a.4.4,0,0,1-.37-.41l.46-8.29a.39.39,0,0,1,.41-.36.38.38,0,0,1,.37.4l-.46,8.29A.39.39,0,0,1,648.6,348.5Z" style="fill:#263238"></path><path d="M639.31,344.35a.38.38,0,0,1-.38-.38.38.38,0,0,1,.38-.39l14.18-.14h0a.39.39,0,0,1,.39.38.4.4,0,0,1-.39.4l-14.17.13Z" style="fill:#263238"></path></g><g id="freepik--speech-bubble-1--inject-156"><path d="M191.56,171.31l-4.22-6.78a23.9,23.9,0,1,0-2.48,8.18h0Z" style="fill:#fafafa"></path><path d="M191.56,171.31l-.43.1-1.27.28-5,1.09a.06.06,0,0,1-.07,0v0h0l.11,0a23.86,23.86,0,0,1-7.65,8.78,24.71,24.71,0,0,1-3.2,1.88c-.58.28-1.2.5-1.82.76a14.45,14.45,0,0,1-1.92.66,23.69,23.69,0,0,1-8.68.89A24,24,0,0,1,152.4,183a24.22,24.22,0,0,1-8-6.76,24.5,24.5,0,0,1-4.38-10.19,22.93,22.93,0,0,1-.34-2.87,14,14,0,0,1,0-1.45,14.43,14.43,0,0,1,0-1.47,24.1,24.1,0,0,1,.4-2.92c.1-.48.19-1,.31-1.45s.29-.95.44-1.43a24,24,0,0,1,15.19-15.28,23.89,23.89,0,0,1,25.8,7.22,26.24,26.24,0,0,1,2.32,3.21,31.6,31.6,0,0,1,1.63,3.31,23.71,23.71,0,0,1,1.56,11.61v0l3.12,5.09c.34.57.61,1,.79,1.29l.26.44s-.11-.16-.29-.45l-.83-1.29-3.16-5v0A23.59,23.59,0,0,0,185.66,153a31.21,31.21,0,0,0-1.63-3.28,27.61,27.61,0,0,0-2.3-3.17,23.72,23.72,0,0,0-34.67-1.5,23.38,23.38,0,0,0-5.89,9.51c-.14.47-.29.94-.43,1.41s-.21,1-.31,1.44a25.56,25.56,0,0,0-.4,2.88c-.05.48,0,1,0,1.45a13.83,13.83,0,0,0,0,1.44,22.31,22.31,0,0,0,.34,2.83,24.23,24.23,0,0,0,4.32,10.07,23.73,23.73,0,0,0,25.6,8.54,14.76,14.76,0,0,0,1.91-.64c.61-.26,1.22-.48,1.8-.76a23.34,23.34,0,0,0,3.19-1.84,23.87,23.87,0,0,0,7.64-8.69.05.05,0,0,1,.08,0s0,0,0,.06v0l-.07-.08,5-1,1.3-.26Z" style="fill:#263238"></path><path d="M170.5,164H157.81a.39.39,0,0,1-.39-.39.38.38,0,0,1,.39-.39h12.36l1.38-7.78H156.61a.39.39,0,0,1-.39-.39.38.38,0,0,1,.39-.39H172a.37.37,0,0,1,.3.14.4.4,0,0,1,.08.32l-1.51,8.56A.4.4,0,0,1,170.5,164Z" style="fill:#263238"></path><path d="M170.08,167h0L158,167a.39.39,0,0,1-.39-.34l-1.72-13.45h-3.54a.38.38,0,0,1-.39-.39.39.39,0,0,1,.39-.39h3.88a.4.4,0,0,1,.39.34l1.72,13.46,11.75,0a.39.39,0,0,1,.39.39A.4.4,0,0,1,170.08,167Z" style="fill:#263238"></path><path d="M160,171.33a1.89,1.89,0,1,1,1.89-1.89A1.89,1.89,0,0,1,160,171.33Zm0-3a1.12,1.12,0,1,0,1.12,1.12A1.12,1.12,0,0,0,160,168.32Z" style="fill:#263238"></path><path d="M168.3,171.33a1.89,1.89,0,1,1,1.9-1.89A1.89,1.89,0,0,1,168.3,171.33Zm0-3a1.12,1.12,0,1,0,1.12,1.12A1.12,1.12,0,0,0,168.3,168.32Z" style="fill:#263238"></path><path d="M161.72,164a.38.38,0,0,1-.38-.37l-.52-8.28a.39.39,0,0,1,.78,0l.51,8.29a.39.39,0,0,1-.36.41Z" style="fill:#263238"></path><path d="M166.36,164h0a.38.38,0,0,1-.36-.41l.46-8.29a.38.38,0,0,1,.41-.36.39.39,0,0,1,.37.41l-.47,8.28A.39.39,0,0,1,166.36,164Z" style="fill:#263238"></path><path d="M157.08,159.9a.39.39,0,1,1,0-.78l14.17-.14h0a.38.38,0,0,1,.39.39.39.39,0,0,1-.38.39l-14.18.14Z" style="fill:#263238"></path></g><g id="freepik--character-3--inject-156"><path d="M629.11,408.71,612.42,402l-12.75-33.3-17,8.76s1.65,3.29,5.16,11.42c1.35,3.14,5.85,11.9,7.68,16.16a22.43,22.43,0,0,0,20,13.6l15.66.41Z" style="fill:#ae7461"></path><path d="M637.4,402.27l2.51-2.65a2.89,2.89,0,0,1,1.64-.46l8,.25a5,5,0,0,1,3.7,2.23l2.9,4.95s2,3.38,1.7,4.2a1.46,1.46,0,0,1-1.68,1s-.28,1.56-.8,1.88a2.44,2.44,0,0,1-1.94.12,1.67,1.67,0,0,1-1.57,1,2.37,2.37,0,0,1-.42-.08c-.95-.29-1.37-2.12-1.37-2.12l-4-.75s-5.82,3.88-7.87,6.43-7.42.6-7.42.6l-2-9.6Z" style="fill:#ae7461"></path><path d="M643.28,403.41a6.25,6.25,0,0,0,1.75.29c1.1.13,2.66.17,4.41.4l-.19-.14a18.12,18.12,0,0,0,1,1.91,21.31,21.31,0,0,0,3.84,4.54,6.83,6.83,0,0,0,2,1.43c0-.06-.7-.63-1.76-1.69a26,26,0,0,1-3.65-4.55,17.31,17.31,0,0,1-1-1.85l-.06-.12h-.13c-1.8-.21-3.35-.19-4.45-.22A8.53,8.53,0,0,0,643.28,403.41Z" style="fill:#6f4439"></path><path d="M643.1,407.22a3.76,3.76,0,0,0,1.5.4,11.52,11.52,0,0,0,3.91-.13l-.29-.16a11.5,11.5,0,0,0,.59,1.44,12.1,12.1,0,0,0,3,4,5,5,0,0,0,1.71,1.12c.05-.06-.59-.51-1.47-1.38a14.16,14.16,0,0,1-2.79-3.9c-.22-.47-.41-.94-.57-1.39l-.08-.21-.21.05A19.27,19.27,0,0,1,643.1,407.22Z" style="fill:#6f4439"></path><path d="M633,409.19l7.12-3.31a5.59,5.59,0,0,1,6.4.18l3.83,2a.93.93,0,0,1,.51.46c.1.29-.11.59-.33.81a5.64,5.64,0,0,1-7.42.3,15.25,15.25,0,0,1-2.4,4.74,5.18,5.18,0,0,1-4.69,2" style="fill:#ae7461"></path><path d="M636,416.35s.06,0,.19.07a2.56,2.56,0,0,0,.58.06,4.41,4.41,0,0,0,2.14-.52,6.66,6.66,0,0,0,2.53-2.3,18.51,18.51,0,0,0,1.86-4l-.35.09a5.69,5.69,0,0,0,4.14,1.3,6,6,0,0,0,2.31-.65,5.55,5.55,0,0,0,1-.71,2.57,2.57,0,0,0,.46-.47,1,1,0,0,0,.21-.78.94.94,0,0,0-.43-.53l-.46-.25-.89-.46-1.74-.89a15.48,15.48,0,0,0-3.43-1.5,5.23,5.23,0,0,0-3.38.51c-1,.44-1.83.87-2.64,1.25l-3.79,1.85a9.28,9.28,0,0,0-1.36.74,8.21,8.21,0,0,0,1.44-.56l3.86-1.7,2.65-1.19a4.83,4.83,0,0,1,3.12-.45,15.85,15.85,0,0,1,3.3,1.48l1.74.91.88.46c.31.15.62.3.64.45s-.22.52-.51.75a5,5,0,0,1-.93.65,5.72,5.72,0,0,1-2.11.6,5.24,5.24,0,0,1-3.82-1.15l-.25-.21-.11.3a18.68,18.68,0,0,1-1.75,3.93,6.67,6.67,0,0,1-2.34,2.27A5.17,5.17,0,0,1,636,416.35Z" style="fill:#6f4439"></path><path d="M540.31,315.94c-.07-5.35-.91-10.67-.7-16s1.61-10.9,5.33-14.73,10.2-5.3,14.56-2.21l.9,4.55c-1.72,20.62-1.48,41.56-3.2,62.17-.23,2.71-2.42,5.16-3.66,7.59s-3.7,4.42-6.41,4.25c-3.55-.22-5.88-3.82-7-7.19C536.15,342.09,540.46,328.83,540.31,315.94Z" style="fill:#263238"></path><path d="M553.16,288.22a15,15,0,0,1,2.72-3.68,5.12,5.12,0,0,1,4.21-1.41,2.13,2.13,0,0,1,1.67,1.22c.23.68-.28,1.59-1,1.53l-.16.13c-1.6,1.42-3.23,2.8-4.88,4.16a4.22,4.22,0,0,1-1.37.84,1.45,1.45,0,0,1-1.49-.32C552.28,290,552.71,289,553.16,288.22Z" style="fill:#FFC727"></path><path d="M550.14,293.47a27,27,0,0,1,20.9-10.4c4.74-.08,6.71.91,10.12,1.83a15,15,0,0,1,8.54,5.65c2.42,3.44,4.46,7.29,4.92,11.47a35.94,35.94,0,0,1-.68,12,47.39,47.39,0,0,1-6.41,14.13l-7.28.88c-6.06.21-12.19.41-18.09-1s-11.62-4.56-14.78-9.72C543,311.11,544.81,300,550.14,293.47Z" style="fill:#263238"></path><path d="M559.89,293.4l14.61-5.81,3.82.45c8.59,0,14.51,9.5,14.56,16.45.07,7.73-.16,17.17-1.39,22.86-2.47,11.45-12.24,12.41-12.24,12.41s.2,6.1.27,9.94l-22.36-1.61L556,297.32A4.07,4.07,0,0,1,559.89,293.4Z" style="fill:#ae7461"></path><path d="M574.31,324.67a2.42,2.42,0,0,1,.85-1.5,2.48,2.48,0,0,1,3-.18,3.37,3.37,0,0,1,1.27,3.14h0a3.08,3.08,0,0,1-2.18,1.26h-.4a2.73,2.73,0,0,1-1.84-.73A2.42,2.42,0,0,1,574.31,324.67Z" style="fill:#6f4439"></path><path d="M589,314.27a1.49,1.49,0,0,1-1.51,1.42,1.43,1.43,0,0,1-1.45-1.42,1.48,1.48,0,0,1,1.51-1.42A1.41,1.41,0,0,1,589,314.27Z" style="fill:#263238"></path><path d="M590.27,308.35c-.2.19-1.27-.7-2.87-.79s-2.81.65-3,.45.13-.43.66-.78a4.06,4.06,0,0,1,2.39-.59,3.93,3.93,0,0,1,2.27.87C590.22,307.91,590.36,308.27,590.27,308.35Z" style="fill:#263238"></path><path d="M580,320.86a10.69,10.69,0,0,1,2.62-.33c.41,0,.8-.08.88-.35a2,2,0,0,0-.21-1.22l-1-3.17c-1.43-4.5-2.44-8.2-2.26-8.25s1.49,3.55,2.92,8l1,3.18a2.3,2.3,0,0,1,.12,1.61,1,1,0,0,1-.7.56,2.48,2.48,0,0,1-.69.06A10.35,10.35,0,0,1,580,320.86Z" style="fill:#263238"></path><path d="M579.27,339.74a29.42,29.42,0,0,1-15.25-5s3.68,8.23,15.31,7.78Z" style="fill:#6f4439"></path><path d="M575.27,321.7c.26,0,.17,1.73,1.58,3s3.27,1.22,3.27,1.47-.43.31-1.21.29a4.31,4.31,0,0,1-2.73-1.12,3.75,3.75,0,0,1-1.22-2.55C574.93,322.11,575.15,321.69,575.27,321.7Z" style="fill:#263238"></path><path d="M589.72,302.77c-.29.38-1.49.05-2.93.09s-2.63.35-2.92,0c-.14-.18,0-.55.56-.91a4.23,4.23,0,0,1,2.35-.69,4.31,4.31,0,0,1,2.37.63C589.67,302.22,589.85,302.59,589.72,302.77Z" style="fill:#263238"></path><path d="M571.61,313.87a1.49,1.49,0,0,0,1.41,1.52,1.42,1.42,0,0,0,1.55-1.31,1.48,1.48,0,0,0-1.4-1.52A1.42,1.42,0,0,0,571.61,313.87Z" style="fill:#263238"></path><path d="M568.69,307.74c.18.19,1.32-.62,2.92-.59s2.75.86,2.92.66-.09-.43-.59-.82a4.13,4.13,0,0,0-2.34-.76,4,4,0,0,0-2.33.7C568.77,307.3,568.6,307.65,568.69,307.74Z" style="fill:#263238"></path><path d="M569.65,302.63c.31.37,1.54,0,3,0s2.73.29,3-.08c.13-.18-.06-.55-.6-.9a4.5,4.5,0,0,0-2.45-.64,4.44,4.44,0,0,0-2.43.69C569.69,302.08,569.51,302.45,569.65,302.63Z" style="fill:#263238"></path><path d="M558,316.74c0-.86-.84-2.95-1.68-3.13-2.25-.47-6.35-.52-6.71,5.24-.48,7.88,7.52,6.74,7.55,6.51S557.86,319.71,558,316.74Z" style="fill:#ae7461"></path><path d="M555.19,322.35s-.15.09-.39.18a1.35,1.35,0,0,1-1,0c-.82-.35-1.44-1.72-1.39-3.14a4.6,4.6,0,0,1,.51-1.94,1.58,1.58,0,0,1,1.1-1,.69.69,0,0,1,.78.43c.09.22,0,.38.07.39s.18-.12.14-.45a.88.88,0,0,0-.28-.51A1,1,0,0,0,554,316a1.94,1.94,0,0,0-1.51,1.14,4.66,4.66,0,0,0-.61,2.16c0,1.59.68,3.12,1.8,3.52a1.46,1.46,0,0,0,1.26-.13C555.16,322.54,555.21,322.37,555.19,322.35Z" style="fill:#6f4439"></path><path d="M556,313.64l2,2.07c8.64-8.27,25.53-29,24.59-27.74a25.23,25.23,0,0,0-12.35-1.34c-6.42,1.09-18.61,4.31-18.42,11.89S556,313.64,556,313.64Z" style="fill:#263238"></path><path d="M544.57,311.9a2.46,2.46,0,0,1,.12-.46,9.31,9.31,0,0,1,.54-1.24,11.37,11.37,0,0,1,3.29-3.7,21.44,21.44,0,0,1,6.63-3.19c2.63-.86,5.6-1.52,8.51-2.78a38.15,38.15,0,0,0,7.78-4.35,40.52,40.52,0,0,0,5.49-4.8,41.51,41.51,0,0,0,3.18-3.77l.79-1.09c.18-.24.28-.37.3-.36a2.65,2.65,0,0,1-.23.41c-.17.26-.4.65-.73,1.13a36.12,36.12,0,0,1-3.1,3.87,37.91,37.91,0,0,1-13.32,9.34,87.29,87.29,0,0,1-8.56,2.75,21.7,21.7,0,0,0-6.57,3.07,11.83,11.83,0,0,0-3.32,3.55C544.79,311.28,544.61,311.91,544.57,311.9Z" style="fill:#455a64"></path><path d="M546.86,313.14a4.09,4.09,0,0,1,.31-1.72,8.06,8.06,0,0,1,3-3.71,17.78,17.78,0,0,1,6.57-2.58,38.56,38.56,0,0,0,8.16-2.59,34.69,34.69,0,0,0,12.27-9.4,36.4,36.4,0,0,0,2.79-3.82l.66-1.1a3.16,3.16,0,0,1,.26-.38,1.87,1.87,0,0,1-.18.41l-.61,1.15a32.24,32.24,0,0,1-2.69,3.92A33.81,33.81,0,0,1,565,302.91a37.49,37.49,0,0,1-8.25,2.58,18.14,18.14,0,0,0-6.49,2.45,8.15,8.15,0,0,0-3,3.53A10.94,10.94,0,0,0,546.86,313.14Z" style="fill:#455a64"></path><path d="M556.27,327c0-.06-.66-.14-1.83-.45a11.26,11.26,0,0,1-4.41-2.46,15.86,15.86,0,0,1-4.09-6.26,27.57,27.57,0,0,1-1.71-9.09,21.24,21.24,0,0,1,1.69-9,22.66,22.66,0,0,1,4.08-6.35,37,37,0,0,1,5.28-4.61s-.16.06-.43.23-.69.39-1.19.75a24.2,24.2,0,0,0-3.93,3.38,22.25,22.25,0,0,0-4.25,6.41,21.3,21.3,0,0,0-1.77,9.24,27.42,27.42,0,0,0,1.78,9.25,15.77,15.77,0,0,0,4.3,6.36,10.9,10.9,0,0,0,4.6,2.39,9.94,9.94,0,0,0,1.39.22A1.52,1.52,0,0,0,556.27,327Z" style="fill:#455a64"></path><path d="M546.25,423.84l46.58,6.76c17.49,4.95,35.92,6.4,55.19,4.73L577.93,468l-28.14.43s-8.57,0-10.07-7.47-3.16-30.24-3.16-30.24S542.12,425.92,546.25,423.84Z" style="fill:#263238"></path><g style="opacity:0.30000000000000004"><path d="M546.39,443.44a68,68,0,0,0-.82,14.11,13.94,13.94,0,0,1-3.45-11.76c.41-2.3,1.36-4.83.16-6.84-.81-1.34-2.94-2.88-2.63-4.42,0,0,1.87,0,3.57-.07l4.19-.14a15,15,0,0,0-.75,9.26"></path></g><polygon points="579.45 347.78 556.82 345.33 552.68 349.1 568.83 358.6 575.96 362.29 583 360.15 585.23 355.96 579.45 347.78" style="fill:#ae7461"></polygon><path d="M610,375.33s-7.09-13.61-8.85-16.59a23.83,23.83,0,0,0-8.58-7.94l-13.07-3s1.36,6.55-6.78,7c-10.35.58-16.77-9.35-16.77-9.35s-11.81,1.22-15.07,2.59-12.48,5.23-13.84,17.49l-3.15,20,24.94,1.9-.35,26.64,10.6,8.67s30.44,10.48,32.38,11.17c.92.33.69-12.61,2.87-23.69l4.11-10a38.66,38.66,0,0,0,2.9-12.54c.16-2.83.09-5,.09-5S607.77,380.53,610,375.33Z" style="fill:#455a64"></path><path d="M590.3,423.44l-41.82-12.55.3-23.46-21.3-1.63s1.7,12.16,1.95,18.4c.36,9,4.67,21.5,7.56,24.16s54.42,5.55,54.42,5.55Z" style="fill:#ae7461"></path><path d="M614,430.82a1.63,1.63,0,0,1-1.65.8,1.67,1.67,0,0,1-.41-.11c-.91-.38-.68-2.28-.68-2.28l-4.45-1.09s-6.15,3.33-8.43,5.67-7.44-.1-7.44-.1l-1.1-9.75,8.87-6.86s-.54.41.14-1,3.25-.63,3.25-.63c.46-.66,2.18-.77,2.18-.77l7.21,1.4a5,5,0,0,1,3.47,2.57l2.7,5.11s1.35,3.63,1,4.43a1.46,1.46,0,0,1-1.77.82s-.54,2.28-1.15,2.32a5.06,5.06,0,0,1-1.77-.58Z" style="fill:#ae7461"></path><path d="M599.06,422.72c0,.08,1,.07,2.53.25a22.23,22.23,0,0,1,5.85,1.58,21.52,21.52,0,0,1,3,1.54c.84.57,1.73,1,2,1.71a.87.87,0,0,1-.15.86,1.23,1.23,0,0,1-.58.42,1.72,1.72,0,0,1-.65,0s.21.22.69.13a1.31,1.31,0,0,0,.74-.43,1.14,1.14,0,0,0,.26-1.12,2.32,2.32,0,0,0-.82-1.1c-.38-.29-.77-.58-1.22-.87a18.5,18.5,0,0,0-3-1.61,18.89,18.89,0,0,0-6-1.47A8.49,8.49,0,0,0,599.06,422.72Z" style="fill:#6f4439"></path><path d="M598.19,427.33c0,.13,3,.24,6.59.73s6.52,1.17,6.55,1a7.08,7.08,0,0,0-1.86-.61,41.79,41.79,0,0,0-4.63-.89,42.82,42.82,0,0,0-4.7-.37A6.67,6.67,0,0,0,598.19,427.33Z" style="fill:#6f4439"></path><path d="M614,430.64a4.6,4.6,0,0,0,.15-.77,18.1,18.1,0,0,0,.17-2.13,9.82,9.82,0,0,0-.09-1.49,4.77,4.77,0,0,0-.59-1.64,9.91,9.91,0,0,0-2.51-3,14.15,14.15,0,0,0-3.35-2,12.62,12.62,0,0,0-3.1-.72c-.9-.1-1.63-.14-2.13-.16a2.51,2.51,0,0,0-.78,0,22.21,22.21,0,0,0,2.86.47,13.74,13.74,0,0,1,3,.79,14.53,14.53,0,0,1,3.21,2,10.31,10.31,0,0,1,2.44,2.86,5.56,5.56,0,0,1,.72,2.92C614,429.52,613.89,430.63,614,430.64Z" style="fill:#6f4439"></path><path d="M604.5,416.62c0,.07,1.08.18,2.8.52s4.33.71,5.67,3.14a24.61,24.61,0,0,1,3.23,6,14.08,14.08,0,0,1,.48,2.78,1.87,1.87,0,0,0,.1-.77,7.26,7.26,0,0,0-.26-2.1,21.46,21.46,0,0,0-3.16-6.16,7.74,7.74,0,0,0-1.31-1.54,5,5,0,0,0-1.65-.94,15.91,15.91,0,0,0-3-.73A11.2,11.2,0,0,0,604.5,416.62Z" style="fill:#6f4439"></path><path d="M600.1,432.38a2.68,2.68,0,0,0,.46-.29l1.29-.89a51.27,51.27,0,0,1,5-2.92h-.1l4.44,1.12-.14-.21a4.58,4.58,0,0,0,0,1.11,2,2,0,0,0,.43,1.12,1.19,1.19,0,0,0,.57.33,1.66,1.66,0,0,0,.63.08,1.84,1.84,0,0,0,1.17-.53,2.62,2.62,0,0,0,.22-.25l0-.07,0,0h0l-.27.08h0l.14.07.57.25c.19.07.39.14.6.2l.33.06a.77.77,0,0,0,.43-.05,1.41,1.41,0,0,0,.49-.56q.15-.3.27-.6a13,13,0,0,0,.39-1.25l-.28.16a1.7,1.7,0,0,0,1.72-.45A1.37,1.37,0,0,0,619,428a4.17,4.17,0,0,0-.09-.88,24,24,0,0,0-1-3.34h0v0L616.44,421l-.92-1.73a8.38,8.38,0,0,0-1-1.68,4.89,4.89,0,0,0-1.54-1.22,6.66,6.66,0,0,0-1.83-.53l-6.8-1.3h-.05a7,7,0,0,0-1.23.22,2.13,2.13,0,0,0-1.1.65l.25-.06a2.52,2.52,0,0,0-2.34-.05,2.94,2.94,0,0,0-1.3,1.76l.06-.09-6.12,4.69c-.68.55-1.23,1-1.65,1.3a5.62,5.62,0,0,0-.55.48,3.16,3.16,0,0,0,.61-.4l1.71-1.22,6.21-4.58,0,0,0-.06a2.64,2.64,0,0,1,1.14-1.52,2.14,2.14,0,0,1,2,.07l.15.08.11-.14a1.7,1.7,0,0,1,.89-.49,6.18,6.18,0,0,1,1.14-.2h0l6.79,1.34a5.72,5.72,0,0,1,1.71.49,4.52,4.52,0,0,1,1.4,1.1,8.16,8.16,0,0,1,1,1.61c.3.57.61,1.14.91,1.72l1.45,2.73,0,0a23.21,23.21,0,0,1,1,3.26,3.66,3.66,0,0,1,.09.78.91.91,0,0,1-.26.6,1.27,1.27,0,0,1-1.27.32l-.22-.05-.06.21a9.27,9.27,0,0,1-.36,1.2,2.15,2.15,0,0,1-.55.94.67.67,0,0,1-.18,0l-.27-.05a5.22,5.22,0,0,1-.56-.18c-.18-.08-.36-.15-.54-.24l-.13-.06h0l-.27.08h0l0,0,0,.06a1,1,0,0,1-.17.19,1.39,1.39,0,0,1-.9.43,1.07,1.07,0,0,1-.5-.07.8.8,0,0,1-.4-.2,2.83,2.83,0,0,1-.34-1.92v-.17l-.15,0L606.86,428h-.06l0,0a45.53,45.53,0,0,0-5,3.06c-.56.41-1,.73-1.25,1A2.87,2.87,0,0,0,600.1,432.38Z" style="fill:#6f4439"></path><path d="M621.83,438.44s29.51-9.28,38.78-12.28c16-5.17,26.4.06,29.7,5.76,4.27,7.41-6,21.86-9.93,25.18-11.7,9.83-31.75,11.16-31.75,11.16h0l-72.12-.14,21.06-28.54Z" style="fill:#263238"></path><path d="M617.42,451.82a71.88,71.88,0,0,0,35.4-4.82,45.12,45.12,0,0,1,5.91-2.19,17.1,17.1,0,0,1,6.09-.43,6,6,0,0,1,4.3,1.94c1.44,1.9.7,4.6-.1,6.84-.94,2.63-1.91,5.32-3.74,7.43-2.14,2.46-5.25,3.87-8.36,4.85-6.09,1.92-12.52,2.47-18.9,2.72L616.1,467Z" style="fill:#e0e0e0"></path><path d="M659.73,444.82s-.15.19-.33.58a9.71,9.71,0,0,0-.58,1.76,11.36,11.36,0,0,0,3.57,11.11,10.71,10.71,0,0,0,1.49,1.09,2.1,2.1,0,0,0,.62.28c0-.07-.79-.55-1.88-1.61a11.91,11.91,0,0,1-3.48-10.81C659.41,445.72,659.81,444.85,659.73,444.82Z" style="fill:#263238"></path><path d="M546.53,436.63c1.71-4.86,2-12,12.56-15.42s18.55,3.14,24,5.43,35.11,18.55,35.11,18.55,5.59,10,4,14.37-8.82,8.75-8.82,8.75h-33.2c-8.56,0-24.5-.28-24.5-.28A99,99,0,0,1,550,457.18l-.28-1.43C549.67,454.61,544.81,441.48,546.53,436.63Z" style="fill:#263238"></path><path d="M564.92,461.84a1,1,0,0,0,.24.46,6.3,6.3,0,0,0,1.09,1,28.94,28.94,0,0,0,4.7,2.63,29.4,29.4,0,0,0,3.46,1.36,24.57,24.57,0,0,0,4.19.9,79.79,79.79,0,0,0,9.75.39c6.9.11,13.16.37,17.7.32,2.26,0,4.1-.11,5.36-.24.63-.07,1.12-.14,1.45-.21a1.79,1.79,0,0,0,.5-.12s-.7.08-2,.15-3.09.11-5.35.09c-4.53,0-10.78-.34-17.69-.46a83.28,83.28,0,0,1-9.71-.34,23.8,23.8,0,0,1-4.12-.85,30.93,30.93,0,0,1-3.45-1.29,31.3,31.3,0,0,1-4.72-2.48,6.75,6.75,0,0,1-1.13-.9C565,462,565,461.83,564.92,461.84Z" style="fill:#263238"></path><path d="M613.36,468.31a3.75,3.75,0,0,0,.44-.23c.28-.16.7-.42,1.23-.77a30,30,0,0,0,4.37-3.47,14,14,0,0,0,2.47-3.18,7.36,7.36,0,0,0,.48-4.73,39.27,39.27,0,0,0-4-10.82l0-.05-.05,0c-5.44-3-11.67-6.39-18.49-10-3.41-1.83-7-3.72-10.65-5.62-1.85-.95-3.71-1.92-5.67-2.8s-3.81-1.91-5.76-2.9a32.47,32.47,0,0,0-8.58-3.23,21.08,21.08,0,0,0-4.47-.41,20.29,20.29,0,0,0-4.35.63,20.75,20.75,0,0,0-7.6,3.63,15,15,0,0,0-2.76,3,18.16,18.16,0,0,0-1.79,3.51c-.46,1.21-.8,2.43-1.14,3.61a32.62,32.62,0,0,0-1,3.52,23.07,23.07,0,0,0,.57,6.78c.43,2.12,1,4.09,1.47,5.94l.78,2.67a23,23,0,0,1,.65,2.45v0l.29,1.43h0a34.85,34.85,0,0,0,3.81,8.27,14.43,14.43,0,0,0,2,2.54s0-.06-.12-.17l-.39-.48a20.22,20.22,0,0,1-1.39-2,35.75,35.75,0,0,1-3.68-8.26h0c-.54-.46-.44-.9-.28-1.43v0a21.46,21.46,0,0,0-.64-2.54c-.24-.86-.5-1.75-.76-2.67-.51-1.84-1-3.81-1.43-5.91a23,23,0,0,1-.53-6.68,31.47,31.47,0,0,1,.95-3.45c.35-1.19.69-2.39,1.15-3.57a16.25,16.25,0,0,1,1.75-3.42,14.63,14.63,0,0,1,2.68-2.89,20.3,20.3,0,0,1,7.45-3.54,19.89,19.89,0,0,1,4.24-.6,20.2,20.2,0,0,1,4.37.4,32.23,32.23,0,0,1,8.46,3.19c1.93,1,3.81,2.07,5.79,2.91s3.8,1.84,5.64,2.78c3.69,1.9,7.24,3.79,10.66,5.6l18.51,10-.07-.07a39.7,39.7,0,0,1,4.05,10.7,7.09,7.09,0,0,1-.42,4.56,13.32,13.32,0,0,1-2.4,3.16,31.1,31.1,0,0,1-4.28,3.52l-1.2.81Z" style="fill:#263238"></path><path d="M559.33,456s-9.89,1.18-9,6,4.11,6.47,4.11,6.47l26.88.06S565.26,467.43,559.33,456Z" style="fill:#e0e0e0"></path><path d="M558.37,453.65a3.75,3.75,0,0,0,.3,1.37,10.62,10.62,0,0,0,1.61,3,8,8,0,0,0,3.78,2.9,23.29,23.29,0,0,1-3.42-3.18A29.23,29.23,0,0,1,558.37,453.65Z" style="fill:#263238"></path><path d="M561.81,455.55a6.49,6.49,0,0,0,1,3.44,7.43,7.43,0,0,0,2.16,2.85c.1-.08-.87-1.33-1.75-3.06S561.93,455.53,561.81,455.55Z" style="fill:#263238"></path><path d="M549.19,467.14c.07,0-.56-1.26-1.34-3.34a35.56,35.56,0,0,1-1.94-17c.28-2.2.63-3.54.55-3.56a4.15,4.15,0,0,0-.32.92c-.17.6-.37,1.49-.56,2.59a32,32,0,0,0,2,17.19,22.64,22.64,0,0,0,1.13,2.39A3.89,3.89,0,0,0,549.19,467.14Z" style="fill:#455a64"></path><g style="opacity:0.30000000000000004"><path d="M554.78,453.39c.07-.65.33-1.42,1-1.55s1.32.74,1.64,1.47c3.41,7.89,14.62,14,23.17,14.82a79.39,79.39,0,0,1-12.41-1,19,19,0,0,1-9.47-4.33A11.51,11.51,0,0,1,554.78,453.39Z"></path></g><path d="M620.27,442.67a29.05,29.05,0,0,0,4.76-1.81,29.71,29.71,0,0,0,4.57-2.23,28.08,28.08,0,0,0-4.76,1.8A27.66,27.66,0,0,0,620.27,442.67Z" style="fill:#263238"></path><g style="opacity:0.2"><path d="M610.68,438.51q19.2-3.66,38.54-6.52l9.61,3c-2.69,5-8,8.2-13.54,9.52s-11.31,1-17,.48c-6.23-.57-12.63-1.44-18.05-4.57-.42-.24-.88-.59-.83-1.07S610.15,438.61,610.68,438.51Z"></path></g><path d="M673.71,400.38l-16.13,35.68a4.17,4.17,0,0,1-3.75,2.45l-47,.61-5.93-3.19,9.29-.68,14.45-34.69a3,3,0,0,1,2.74-1.84l45.07-.34A1.42,1.42,0,0,1,673.71,400.38Z" style="fill:#e0e0e0"></path><path d="M673.71,400.38a1.14,1.14,0,0,0,.14-.43,1.44,1.44,0,0,0-1.36-1.62h-4.13l-18.87.06-13.12.07-7.33,0-1.92,0a3.26,3.26,0,0,0-1.89.79,4.11,4.11,0,0,0-1.08,1.74l-.76,1.83-13.48,32.28.22-.16-9,.66-.32,0-.9.07.8.42,5.93,3.19.06,0h.07l35.67-.49,8-.12c1.3,0,2.54,0,3.83-.08a4.39,4.39,0,0,0,3.19-2c2.1-4.41,3.85-8.5,5.56-12.24l7.88-17.64,2.11-4.79.54-1.25c.12-.28.17-.43.17-.43l-.22.41c-.14.3-.33.71-.58,1.23l-2.2,4.75-8,17.57c-1.71,3.7-3.53,7.87-5.58,12.16a4,4,0,0,1-2.89,1.77c-1.2.05-2.5,0-3.78.06l-8,.09-35.67.44.13,0L601,435.7l-.11.49.32,0,9-.66h.16l.06-.15c4.8-11.53,9.33-22.43,13.43-32.3.26-.61.51-1.22.76-1.83a3.57,3.57,0,0,1,1-1.57,2.72,2.72,0,0,1,1.61-.69l1.89,0,7.34-.07,13.11-.13,18.88-.23,2.94,0,1.18,0a1.39,1.39,0,0,1,.85.34,1.41,1.41,0,0,1,.46,1.16C673.77,400.24,673.69,400.38,673.71,400.38Z" style="fill:#263238"></path><path d="M611.53,439.06s.09-.13.22-.39.32-.69.54-1.15c.47-1.07,1.11-2.52,1.89-4.27,1.57-3.62,3.7-8.64,6-14.2s4.33-10.63,5.73-14.31c.71-1.85,1.27-3.34,1.63-4.39l.4-1.2a2.15,2.15,0,0,0,.12-.43s-.09.13-.2.4-.3.7-.49,1.17l-1.76,4.33-5.85,14.25-5.89,14.25-1.75,4.33c-.18.47-.33.87-.46,1.19A1.93,1.93,0,0,0,611.53,439.06Z" style="fill:#263238"></path><path d="M640.71,417.68a2.31,2.31,0,1,0,2.31-2.31A2.32,2.32,0,0,0,640.71,417.68Z" style="fill:#fff"></path><path d="M594.92,360.29c-.07,0,.6,1.31,1.55,3.43a59.86,59.86,0,0,1,3.09,8.49,60.89,60.89,0,0,1,1.76,8.86c.28,2.3.35,3.74.44,3.74a4.12,4.12,0,0,0,0-1c0-.65,0-1.59-.13-2.75a49.89,49.89,0,0,0-1.62-9,50.48,50.48,0,0,0-3.25-8.51c-.52-1-1-1.87-1.32-2.42A4.27,4.27,0,0,0,594.92,360.29Z" style="fill:#263238"></path><path d="M523.84,385.53a2.68,2.68,0,0,0,.51.08l1.5.14,5.59.47,19.12,1.44.24,0,0-.25c.16-2.54.33-5.22.5-8,.27-4.8.5-9.37.58-13.54a19.21,19.21,0,0,0-2.45-10.74,13.29,13.29,0,0,0-5.36-5.15,11.19,11.19,0,0,0-1.9-.74,4.49,4.49,0,0,0-.69-.17c0,.07,1,.27,2.5,1.08a13.46,13.46,0,0,1,5.14,5.16,19,19,0,0,1,2.29,10.55c-.09,4.15-.34,8.72-.61,13.52-.17,2.75-.34,5.43-.49,8l.26-.23-19.13-1.26-5.6-.33-1.5-.06A1.89,1.89,0,0,0,523.84,385.53Z" style="fill:#263238"></path><path d="M570.73,401.83a3.11,3.11,0,0,0,.83-.31,6.82,6.82,0,0,0,.94-.47,10.14,10.14,0,0,0,1.18-.72,17.08,17.08,0,0,0,2.75-2.34,20,20,0,0,0,2.64-3.55,20.28,20.28,0,0,0,1.71-4.09,17.39,17.39,0,0,0,.6-3.56,10.7,10.7,0,0,0,0-1.38,6.35,6.35,0,0,0-.07-1.05,3,3,0,0,0-.16-.87c-.1,0,.06,1.27-.14,3.27a18.51,18.51,0,0,1-.69,3.46,21.16,21.16,0,0,1-1.7,4,20.29,20.29,0,0,1-2.54,3.48,18.2,18.2,0,0,1-2.62,2.37C571.85,401.23,570.69,401.74,570.73,401.83Z" style="fill:#263238"></path></g><g id="freepik--character-1--inject-156"><path d="M97.24,357.13s4.36-8.12,6.13-8.11c0,0,6.19,2.74,9.63,11.52h3.06s1.7-7,9.92-10.76c0,0,4.57,8.46,4.73,8.38a16.66,16.66,0,0,1-10.55,4.28c-6.6.27-16.17-.45-16.17-.45S98.2,359.47,97.24,357.13Z" style="fill:#FFC727"></path><g style="opacity:0.30000000000000004"><path d="M117.63,361.7s7-3.91,12.51-3.47C130.14,358.23,123.62,363.6,117.63,361.7Z"></path></g><g style="opacity:0.30000000000000004"><path d="M97.92,357.09s8.92.6,13.53,4.91C111.45,362,102.91,362.9,97.92,357.09Z"></path></g><polygon points="80.24 360.55 80.6 415.86 143.62 415.95 143.62 360.66 80.24 360.55" style="fill:#FFC727"></polygon><path d="M119.77,360.64s.1.08.26.24l.72.73c.63.67,1.51,1.58,2.57,2.71l8.43,9,8.35,9.08,2.51,2.77c.28.31.5.57.67.77s.23.27.22.28l-.26-.24-.71-.73L140,382.56l-8.42-9-8.36-9.08-2.51-2.77-.67-.77A1.22,1.22,0,0,1,119.77,360.64Z" style="fill:#fff"></path><path d="M131.75,360.55a3.54,3.54,0,0,1,.52.47l1.32,1.34c1.1,1.14,2.62,2.73,4.28,4.5s3.11,3.42,4.17,4.61l1.23,1.42a3.8,3.8,0,0,1,.43.55,3.25,3.25,0,0,1-.51-.47l-1.31-1.36c-1.09-1.15-2.58-2.77-4.23-4.55s-3.15-3.38-4.21-4.56l-1.26-1.4A3.24,3.24,0,0,1,131.75,360.55Z" style="fill:#fff"></path><path d="M107.21,360.64l.11.09.28.29,1.08,1.12,3.92,4.16,12.87,13.81L138.27,394l3.85,4.22,1,1.16c.1.13.19.23.26.31s.09.11.08.11l-.1-.09-.29-.29L142,398.28l-3.93-4.16-12.86-13.81-12.8-13.87c-1.61-1.77-2.93-3.2-3.85-4.22l-1-1.16-.26-.31Z" style="fill:#fff"></path><path d="M94.6,360.64a13.42,13.42,0,0,1,2.06,2c1.28,1.35,3.09,3.33,5.31,5.79,4.45,4.93,10.53,11.79,17.21,19.4s12.7,14.52,17,19.54l5.13,5.95,1.38,1.63.35.43a.8.8,0,0,1,.12.15s-.05,0-.14-.14l-.37-.4-1.43-1.6-5.2-5.89L119,388l-17.14-19.45c-2.2-2.48-4-4.48-5.24-5.86-.62-.68-1.11-1.21-1.45-1.56l-.39-.4C94.65,360.67,94.6,360.65,94.6,360.64Z" style="fill:#fff"></path><path d="M80.87,360.55a13.29,13.29,0,0,1,2.1,2c1.29,1.36,3.14,3.35,5.39,5.82,4.52,5,10.69,11.86,17.48,19.5s12.91,14.6,17.33,19.64l5.21,6,1.41,1.64.36.43c.08.1.12.15.11.16l-.14-.14-.38-.41-1.44-1.6c-1.27-1.41-3.07-3.43-5.29-5.92l-17.39-19.58L88.21,368.53C86,366,84.15,364,82.89,362.65c-.64-.69-1.13-1.22-1.48-1.58l-.39-.39C80.93,360.59,80.87,360.56,80.87,360.55Z" style="fill:#fff"></path><path d="M80.24,377.05c.11-.13,2.14,2,5.3,5.46s7.46,8.34,12.18,13.74,9,10.31,12,13.88l3.61,4.24,1,1.16.25.31c.05.07.08.11.07.11l-.1-.09-.27-.29-1-1.12c-.88-1-2.14-2.43-3.68-4.18-3.1-3.56-7.37-8.44-12.08-13.83l-12.12-13.8c-1.56-1.75-2.83-3.17-3.72-4.14-.44-.48-.79-.85-1-1.1A2.69,2.69,0,0,0,80.24,377.05Z" style="fill:#fff"></path><path d="M80.45,392.3c.06-.06,4.8,5.21,10.59,11.75s10.43,11.89,10.37,11.95-4.8-5.21-10.59-11.76S80.39,392.35,80.45,392.3Z" style="fill:#fff"></path><rect x="90.5" y="385.9" width="55.4" height="4.71" transform="translate(-270.26 505.78) rotate(-89.9)" style="fill:#fff"></rect><rect x="80.35" y="386.06" width="63.15" height="3.75" transform="translate(223.86 775.87) rotate(180)" style="fill:#fff"></rect><polygon points="86.2 360.54 86.16 415.87 89.5 415.88 89.6 360.55 86.2 360.54" style="fill:#fff"></polygon><g style="opacity:0.30000000000000004"><polygon points="96.89 360.58 96.8 415.95 80.6 415.86 80.24 360.55 96.89 360.58"></polygon></g><path d="M96.8,415.35c-.08,0-.15-12.22-.15-27.29s.07-27.29.15-27.29S97,373,97,388.06,96.88,415.35,96.8,415.35Z" style="fill:#455a64"></path><rect x="143.5" y="339.79" width="162.79" height="128.41" style="fill:#ae7461"></rect><g style="opacity:0.30000000000000004"><path d="M245,354.87v-6h9.87v6a5,5,0,0,1-4.31,5v5.21h2.19c.77,0,1.4.46,1.4,1h-8.44c0-.55.63-1,1.4-1h2.2v-5.21A5,5,0,0,1,245,354.87Z" style="fill-rule:evenodd"></path><path d="M226.07,354.47a7.22,7.22,0,0,1,7-5.58h0a7.22,7.22,0,0,1,6.95,5.58h-6.29v9.38a1.41,1.41,0,0,0,1.39,1.31,1.4,1.4,0,0,0,1.39-1.31h1.34a2.73,2.73,0,0,1-5.45,0v-9.38Z" style="fill-rule:evenodd"></path></g><g style="opacity:0.30000000000000004"><rect x="265.91" y="339.79" width="40.38" height="128.41" transform="translate(572.2 807.99) rotate(180)"></rect></g><path d="M265.83,466.91c-.22,0-.41-28.47-.41-63.59s.19-63.61.41-63.61.41,28.48.41,63.61S266.06,466.91,265.83,466.91Z" style="fill:#263238"></path><rect x="280.01" y="438.59" width="12.48" height="14.43" style="fill:#fff"></rect><g style="opacity:0.30000000000000004"><rect x="193.16" y="340.12" width="18.49" height="27.4"></rect></g><g style="opacity:0.30000000000000004"><rect x="193.16" y="440.42" width="18.49" height="27.4"></rect></g><path d="M144.68,339.86c0,.19,36.1.34,80.63.34s80.63-.15,80.63-.34-36.09-.34-80.63-.34S144.68,339.67,144.68,339.86Z" style="fill:#263238"></path><path d="M218.28,411.81H190.91a.51.51,0,0,1-.5-.5.5.5,0,0,1,.5-.5h27l3.1-17.88H188.33a.51.51,0,0,1-.5-.5.5.5,0,0,1,.5-.5h33.22a.49.49,0,0,1,.49.58l-3.27,18.88A.5.5,0,0,1,218.28,411.81Z" style="fill:#e0e0e0"></path><path d="M217.38,418.41h0l-26.06-.09a.51.51,0,0,1-.5-.44l-3.76-30h-7.93a.5.5,0,0,1,0-1h8.37a.51.51,0,0,1,.5.44l3.76,30,25.63.09a.51.51,0,0,1,.5.51A.5.5,0,0,1,217.38,418.41Z" style="fill:#e0e0e0"></path><path d="M195.56,427.9a3.82,3.82,0,1,1,3.75-3.82A3.78,3.78,0,0,1,195.56,427.9Zm0-6.64a2.82,2.82,0,1,0,2.75,2.82A2.79,2.79,0,0,0,195.56,421.26Z" style="fill:#e0e0e0"></path><path d="M213.55,427.9a3.82,3.82,0,1,1,3.75-3.82A3.78,3.78,0,0,1,213.55,427.9Zm0-6.64a2.82,2.82,0,1,0,2.75,2.82A2.79,2.79,0,0,0,213.55,421.26Z" style="fill:#e0e0e0"></path><path d="M199.36,411.81a.51.51,0,0,1-.5-.47l-1.11-18.27a.49.49,0,0,1,.47-.53.5.5,0,0,1,.53.47l1.11,18.27a.5.5,0,0,1-.47.53Z" style="fill:#e0e0e0"></path><path d="M209.37,411.81h0a.51.51,0,0,1-.47-.53l1-18.27a.48.48,0,0,1,.53-.47.5.5,0,0,1,.47.52l-1,18.28A.5.5,0,0,1,209.37,411.81Z" style="fill:#e0e0e0"></path><path d="M189.34,402.67a.5.5,0,1,1,0-1l30.57-.3h0a.5.5,0,1,1,0,1l-30.57.3Z" style="fill:#e0e0e0"></path><rect x="77.51" y="416.11" width="68.91" height="52.09" style="fill:#ae7461"></rect><g style="opacity:0.30000000000000004"><path d="M120.46,422.23V419.8h4.18v2.43a2.06,2.06,0,0,1-1.82,2v2.12h.93c.32,0,.59.18.59.41h-3.57c0-.23.26-.41.59-.41h.93v-2.12A2.06,2.06,0,0,1,120.46,422.23Z" style="fill-rule:evenodd"></path><path d="M112.47,422.06a3,3,0,0,1,2.94-2.26h0a3,3,0,0,1,2.94,2.26h-2.66v3.81a.59.59,0,0,0,1.18,0h.56a1.14,1.14,0,0,1-1.15,1.08,1.15,1.15,0,0,1-1.16-1.08v-3.81Z" style="fill-rule:evenodd"></path></g><g style="opacity:0.30000000000000004"><rect x="129.33" y="416.11" width="17.09" height="52.09" transform="translate(275.76 884.31) rotate(180)"></rect></g><path d="M129.3,467.68c-.09,0-.17-11.55-.17-25.8s.08-25.8.17-25.8.17,11.55.17,25.8S129.4,467.68,129.3,467.68Z" style="fill:#263238"></path><rect x="135.3" y="456.19" width="5.28" height="5.85" style="fill:#fff"></rect><g style="opacity:0.30000000000000004"><rect x="98.54" y="416.24" width="7.83" height="11.12"></rect></g><g style="opacity:0.30000000000000004"><rect x="98.54" y="456.93" width="7.83" height="11.12"></rect></g><path d="M78,416.14c0,.07,15.29.13,34.14.13s34.13-.06,34.13-.13S131,416,112.15,416,78,416.06,78,416.14Z" style="fill:#263238"></path><path d="M109.17,445.62H97.59a.5.5,0,0,1,0-1h11.16L110,438H96.49a.5.5,0,1,1,0-1h14.07a.53.53,0,0,1,.38.18.54.54,0,0,1,.11.41l-1.39,7.66A.49.49,0,0,1,109.17,445.62Z" style="fill:#e0e0e0"></path><path d="M108.79,448.3h0l-11,0a.49.49,0,0,1-.49-.43L95.7,435.92H92.59a.5.5,0,1,1,0-1h3.55a.5.5,0,0,1,.49.44l1.56,11.9,10.6,0a.5.5,0,1,1,0,1Z" style="fill:#e0e0e0"></path><path d="M99.55,452.15a1.85,1.85,0,1,1,1.88-1.85A1.86,1.86,0,0,1,99.55,452.15Zm0-2.69a.85.85,0,1,0,0,1.69.85.85,0,1,0,0-1.69Z" style="fill:#e0e0e0"></path><path d="M107.17,452.15A1.85,1.85,0,1,1,109,450.3,1.86,1.86,0,0,1,107.17,452.15Zm0-2.69a.85.85,0,1,0,.87.84A.86.86,0,0,0,107.17,449.46Z" style="fill:#e0e0e0"></path><path d="M101.16,445.62a.5.5,0,0,1-.5-.47l-.47-7.41a.5.5,0,0,1,1-.06l.47,7.41a.5.5,0,0,1-.47.53Z" style="fill:#e0e0e0"></path><path d="M105.4,445.62h0a.5.5,0,0,1-.47-.53l.42-7.41a.5.5,0,1,1,1,.06l-.42,7.41A.5.5,0,0,1,105.4,445.62Z" style="fill:#e0e0e0"></path><path d="M96.92,441.91a.5.5,0,0,1-.5-.49.51.51,0,0,1,.5-.51l12.94-.12h0a.5.5,0,0,1,0,1l-12.94.12Z" style="fill:#e0e0e0"></path><polygon points="192.7 240.05 157.62 277.39 174.28 290.17 206.38 257.23 192.7 240.05" style="fill:#ffbf9d"></polygon><path d="M240.33,140.88c.46-3.78-2.07-4.51-4.09-4.24a6.74,6.74,0,0,0-8.29-.24,6,6,0,0,0-9.26,4.46,5,5,0,0,0-4.78,8.22,4.81,4.81,0,0,0,1.58,9.44L240.07,145C241.59,143.62,240.09,142.9,240.33,140.88Z" style="fill:#263238"></path><path d="M214.76,159.16A20.41,20.41,0,0,1,236,141.39l1,.05c11.36,1.21,16.67,11.53,15.14,22.85l-3.47,37.83-.68,7.19-26.53,4,1-15s-10.87-2.23-10.48-13.18C212.21,179.83,213.49,169,214.76,159.16Z" style="fill:#ffbf9d"></path><path d="M222.41,198.28A26.53,26.53,0,0,0,237,194.77s-3.75,7.72-14.63,6.21Z" style="fill:#ff9a6c"></path><path d="M217.28,170.13a1.58,1.58,0,0,0,1.44,1.65,1.49,1.49,0,0,0,1.67-1.34,1.57,1.57,0,0,0-1.43-1.65A1.51,1.51,0,0,0,217.28,170.13Z" style="fill:#263238"></path><path d="M216.7,165.18c.19.21,1.41-.61,3.09-.52s2.88,1,3.07.79-.09-.47-.6-.88a4.31,4.31,0,0,0-2.45-.89,4.17,4.17,0,0,0-2.47.67C216.8,164.72,216.61,165.08,216.7,165.18Z" style="fill:#263238"></path><path d="M231.44,171.26a1.58,1.58,0,0,0,1.44,1.65,1.49,1.49,0,0,0,1.67-1.34,1.57,1.57,0,0,0-1.42-1.65A1.51,1.51,0,0,0,231.44,171.26Z" style="fill:#263238"></path><path d="M232.8,165.72c.19.21,1.41-.61,3.09-.52s2.88,1,3.07.79-.08-.47-.6-.88a4.31,4.31,0,0,0-2.45-.89,4.17,4.17,0,0,0-2.47.67C232.91,165.26,232.71,165.62,232.8,165.72Z" style="fill:#263238"></path><path d="M226.66,177.92a10.6,10.6,0,0,0-2.7-.63c-.43-.06-.83-.17-.89-.46a2.1,2.1,0,0,1,.35-1.26c.45-1,.92-2.09,1.42-3.21,2-4.57,3.45-8.34,3.27-8.42s-2,3.56-3.94,8.14c-.48,1.12-.94,2.2-1.37,3.23a2.51,2.51,0,0,0-.31,1.67,1.06,1.06,0,0,0,.68.66,2.67,2.67,0,0,0,.72.14A11.64,11.64,0,0,0,226.66,177.92Z" style="fill:#263238"></path><path d="M231.56,179.32c-.28,0-.37,1.79-2,3s-3.56.93-3.59,1.19c0,.11.42.37,1.24.43a4.53,4.53,0,0,0,3-.88,4,4,0,0,0,1.55-2.53C231.86,179.78,231.68,179.31,231.56,179.32Z" style="fill:#263238"></path><path d="M233,160.91c.18.45,1.65.13,3.41.24s3.2.55,3.41.13c.08-.21-.19-.62-.79-1a5.18,5.18,0,0,0-2.58-.81,5.07,5.07,0,0,0-2.61.53C233.23,160.32,232.93,160.7,233,160.91Z" style="fill:#263238"></path><path d="M217.31,160.59c.24.41,1.44.17,2.83.33s2.52.59,2.84.23c.14-.18,0-.58-.46-1a4.12,4.12,0,0,0-4.57-.45C217.41,160,217.2,160.38,217.31,160.59Z" style="fill:#263238"></path><path d="M216.05,154.19s3.22-6.71,6.6-8.15c4.09-1.75,5.6,2.73,9.47,1.85s7.77-2.56,11.53.58c4.1,3.43,2,5.59,2,10.46.12,19.74,3.44,25.48,4.91,16.26.16-1,3-1.69,3.65-6,.81-5.54,1.35-12.29.29-16.3-.88-3.38-2.67-5.77-5.95-8.47C243.4,140.2,236,139.76,231,140S216,145.59,216.05,154.19Z" style="fill:#263238"></path><path d="M249.91,174.86a3,3,0,0,1,3.35-2.71c2,.29,4.24,1.56,3.91,5.77-.6,7.47-8,5.33-8,5.11S249.63,178,249.91,174.86Z" style="fill:#ffbf9d"></path><path d="M251,180.35s.13.1.34.22a1.3,1.3,0,0,0,1,.1,3.24,3.24,0,0,0,1.72-2.77,4.17,4.17,0,0,0-.21-1.89,1.51,1.51,0,0,0-.9-1.08.67.67,0,0,0-.8.3c-.11.2-.08.35-.12.36s-.15-.14-.07-.44a.87.87,0,0,1,.34-.45,1,1,0,0,1,.73-.13,1.86,1.86,0,0,1,1.27,1.27,4.44,4.44,0,0,1,.28,2.12c-.17,1.5-1.05,2.84-2.16,3.07a1.43,1.43,0,0,1-1.17-.29C251,180.53,251,180.36,251,180.35Z" style="fill:#ff9a6c"></path><path d="M250.46,160.35a7,7,0,0,1-3.24,1.31,2.44,2.44,0,0,1-2.62-1.84c-.07-.53.09-1.13-.23-1.55s-1.15-.38-1.78-.35a4.77,4.77,0,0,1-4.79-3.66,2,2,0,0,1-2.7.13,10.85,10.85,0,0,1-1.93-2.28,3.1,3.1,0,0,0-2.51-1.41A7.31,7.31,0,0,1,229,151c-1-.13-1.4-1.31-1.5-2.29s-.16-2.13-1-2.7a4,4,0,0,0-2.67-.2c-.91.09-2.07-.18-2.26-1.07a1.8,1.8,0,0,1,.4-1.34,4.84,4.84,0,0,1,5.81-1.56,6.58,6.58,0,0,1,12.13-.7,6.68,6.68,0,0,1,10.54,2.95,4.84,4.84,0,0,1,5.11,7.29,4.58,4.58,0,0,1,2.34,3.77c0,1.55-1.63,3-3.1,2.54a2.68,2.68,0,0,1-4.76,2.45" style="fill:#263238"></path><path d="M255.39,157.68a1.77,1.77,0,0,1-.54,1.42,2.38,2.38,0,0,1-1.54.82,2.58,2.58,0,0,1-2.1-.72l.32,0a7.34,7.34,0,0,1-1.59,1.79,4.12,4.12,0,0,1-1.4.78,2.9,2.9,0,0,1-1.51.07,2.94,2.94,0,0,1-2.1-1.34,4.3,4.3,0,0,1-.53-1.59c-.06-.39-.06-.6,0-.61a2.5,2.5,0,0,1,.19.58,5.28,5.28,0,0,0,.62,1.45,3,3,0,0,0,4.49.32,7.19,7.19,0,0,0,1.51-1.68l.15-.21.17.18a2.25,2.25,0,0,0,1.78.66,2.19,2.19,0,0,0,1.39-.65A3.53,3.53,0,0,0,255.39,157.68Z" style="fill:#455a64"></path><path d="M128.45,303.36l-1.92,24.26s-25.12,5.7-25.91,10.15l46.71,5.9L151.87,306Z" style="fill:#455a64"></path><path d="M140.94,327.31a2,2,0,0,1,1.08,2.35,1.87,1.87,0,0,1-2.33,1.09,2,2,0,0,1-1.13-2.5,1.94,1.94,0,0,1,2.55-.86" style="fill:#e0e0e0"></path><path d="M147.33,343.67l.36-3-45.45-4.82a3.59,3.59,0,0,0-1.89,2.14Z" style="fill:#263238"></path><path d="M126.08,327.72c0,.23,1.12.47,2.17,1.34s1.54,1.91,1.77,1.85,0-1.44-1.26-2.48S126.06,327.5,126.08,327.72Z" style="fill:#263238"></path><path d="M120.89,329.2c-.08.21.88.72,1.55,1.79s.77,2.12,1,2.14.52-1.27-.33-2.58S120.92,329,120.89,329.2Z" style="fill:#263238"></path><path d="M117.39,334.8c.21.07.66-1,.22-2.37s-1.47-2-1.59-1.78.47.93.82,2S117.17,334.75,117.39,334.8Z" style="fill:#263238"></path><path d="M127.14,322.2c.07.22,1.17,0,2.46.27s2.26.76,2.41.58-.74-1.12-2.27-1.38S127.05,322,127.14,322.2Z" style="fill:#263238"></path><path d="M126.9,316.9a4.45,4.45,0,0,0,2.37.26,10.75,10.75,0,0,0,2.56-.47,10.48,10.48,0,0,0,1.44-.57,2.78,2.78,0,0,0,.78-.47,1,1,0,0,0,.25-1.21,1.29,1.29,0,0,0-1-.65,3.29,3.29,0,0,0-.9,0,8.79,8.79,0,0,0-1.53.34,8.18,8.18,0,0,0-2.35,1.18c-1.21.88-1.69,1.7-1.61,1.76s.71-.58,1.92-1.28a9.23,9.23,0,0,1,2.25-.95,8.61,8.61,0,0,1,1.41-.26c.51-.07.94,0,1,.21,0,.09,0,.12-.08.26a2.54,2.54,0,0,1-.58.34,9.5,9.5,0,0,1-1.33.57,12.65,12.65,0,0,1-2.38.61A19.1,19.1,0,0,0,126.9,316.9Z" style="fill:#263238"></path><path d="M223.83,282.57s-56.75-41.28-68.39-47a16.44,16.44,0,0,0-12.48-1,20.24,20.24,0,0,0-2.23.84,21.77,21.77,0,0,0-12.42,17.19l-9.2,70.83,33.53,3.86,8.48-45.72,28.25,31.71,31.85.1Z" style="fill:#263238"></path><path d="M153.91,263.32a12.21,12.21,0,0,1,1.68,2.29,41.32,41.32,0,0,1,5.29,12.63,11.14,11.14,0,0,1,.44,2.81,25.33,25.33,0,0,1-.8-2.72,60.43,60.43,0,0,0-2.24-6.43,57,57,0,0,0-3-6.1A22.11,22.11,0,0,1,153.91,263.32Z" style="fill:#455a64"></path><path d="M120.19,378.08l.83,24.31s-24.31,8.5-24.6,13l47.08.6.27-37.94Z" style="fill:#455a64"></path><path d="M135.3,400.46a1.94,1.94,0,0,1,1.34,2.22,1.87,1.87,0,0,1-2.19,1.35,2.05,2.05,0,0,1-1.4-2.36,1.94,1.94,0,0,1,2.43-1.15" style="fill:#e0e0e0"></path><path d="M143.5,416l0-3-45.71.34a3.6,3.6,0,0,0-1.63,2.34Z" style="fill:#263238"></path><path d="M120.59,402.54c0,.24,1.17.34,2.31,1.09s1.74,1.73,2,1.64-.13-1.44-1.53-2.32S120.54,402.33,120.59,402.54Z" style="fill:#263238"></path><path d="M115.6,404.6c0,.22,1,.62,1.74,1.6s1,2,1.24,2,.38-1.32-.62-2.52S115.6,404.38,115.6,404.6Z" style="fill:#263238"></path><path d="M112.76,410.56c.21.05.53-1.11-.06-2.38s-1.68-1.78-1.78-1.59.57.87,1,1.93S112.53,410.54,112.76,410.56Z" style="fill:#263238"></path><path d="M121,396.94c.1.21,1.16-.1,2.47,0s2.34.51,2.46.31-.86-1-2.41-1.12S120.91,396.76,121,396.94Z" style="fill:#263238"></path><path d="M120.18,391.7a4.48,4.48,0,0,0,2.38,0,11.57,11.57,0,0,0,2.5-.76,10.76,10.76,0,0,0,1.37-.73,3.21,3.21,0,0,0,.72-.56,1,1,0,0,0,.1-1.23,1.25,1.25,0,0,0-1-.53,3.25,3.25,0,0,0-.89.12,9.3,9.3,0,0,0-1.49.5,8.66,8.66,0,0,0-2.19,1.44c-1.11,1-1.49,1.89-1.41,1.93s.64-.65,1.77-1.49a9,9,0,0,1,3.49-1.61c.51-.13.93-.13,1.06.09s.06.12,0,.27a2.21,2.21,0,0,1-.53.4,10.12,10.12,0,0,1-1.26.72,13.28,13.28,0,0,1-2.3.88A19.41,19.41,0,0,0,120.18,391.7Z" style="fill:#263238"></path><path d="M214.22,301l-70.4,2.8-8.88,1a25.7,25.7,0,0,0-9.46,2.85c-6.12,3.29-8.43,7.67-9.55,16.31l-.26,70.79,30.93.66.1-58.79s84.6,6.71,94.05,5,15.61-17.67,15.61-17.67Z" style="fill:#263238"></path><path d="M214.22,301s.25.12.73.38l2.15,1.14,8.32,4.48,31,16.78.13.07-.05.13a48.3,48.3,0,0,1-5.65,10.21,25.33,25.33,0,0,1-4.22,4.59,13.11,13.11,0,0,1-5.78,3c-4.43.53-9,.25-13.69.17s-9.57-.36-14.57-.62c-20-1.05-42.2-2.61-65.92-4.44l.27-.25c0,16.34,0,33.68-.08,51.52,0,2.43,0,4.86,0,7.27v.27h-.27L115.67,395h-.25v-.25c.1-25.49.2-49.38.29-70.79v0h0a28.85,28.85,0,0,1,2.79-10,16.44,16.44,0,0,1,7.26-6.69,26.67,26.67,0,0,1,9.1-2.66l8.94-1h0l51.52-2,14-.51L213,301l1.24,0s-.43,0-1.25.08l-3.65.17-14,.61L143.83,304h0l-8.94,1a26.2,26.2,0,0,0-9,2.63,16,16,0,0,0-7.06,6.53,28.26,28.26,0,0,0-2.73,9.83v0c-.07,21.42-.15,45.3-.23,70.79l-.25-.26,30.92.66-.26.26c0-2.41,0-4.84,0-7.27,0-17.84.06-35.18.1-51.52v-.27l.27,0c23.72,1.84,45.92,3.42,65.9,4.5q7.5.4,14.56.65c4.69.09,9.29.37,13.61-.14a12.75,12.75,0,0,0,5.61-2.88,25.52,25.52,0,0,0,4.18-4.53,48.14,48.14,0,0,0,5.62-10.11l.08.2c-13.17-7.19-23.68-12.94-30.91-16.9l-8.29-4.55-2.14-1.19Z" style="fill:#455a64"></path><path d="M140.61,327.44a19.84,19.84,0,0,1,6.16,9.38c-.15.06-1.13-2.27-2.84-4.85S140.49,327.55,140.61,327.44Z" style="fill:#455a64"></path><path d="M249.39,203.66s19.82,5.67,19.92,22.31c.07,10.38-1.95,60.21-3.07,78.38-1,16.44-6.54,31.47-15.22,35.06s-24.38,2.21-24.38,2.21-23.76-18.09-25.83-39.86l-9.14-.19s5.32-5.89,6.25-10.18,20.28-85.1,20.28-85.1l4.86-1.22s.27,8.24,7.43,6.67A64.33,64.33,0,0,0,249.39,203.66Z" style="fill:#e0e0e0"></path><g style="opacity:0.30000000000000004"><path d="M197.92,291.39s19.81,9.95,26.83,11.71c6.78,1.7,8.44.19,11.48-3.66s6.24-9,6.24-9l5.15,2.79,11.31-42.58-24.68,16.27-9.35,22.2L199.6,283Z"></path></g><path d="M179.4,259.19s-4.23-4.31-7.05-4.85c-1.31-.25-7.4-.36-7.4-.36l-4.78,2.72,3,2.15a14.44,14.44,0,0,0,3.35-1l2.83.1Z" style="fill:#ffbf9d"></path><path d="M167.7,259.36l-9.76-7.71a2,2,0,0,0-1.21-.42l-13.52.16a1,1,0,0,0-1,1,1.81,1.81,0,0,0,.46,1.47l20.7,16.76,16.45-1.38Z" style="fill:#e0e0e0"></path><path d="M172.91,256.91l-8.86,2.83-12.66,1.51a2.75,2.75,0,0,0,2.45,2.89c1.52.2,4.18.44,4.18.44a4.26,4.26,0,0,0,2.55,2.89,6.62,6.62,0,0,0,1.85,2.29,2.11,2.11,0,0,0,.38.17c1.21.38,3.56,3.72,5.17,4.2.8.24,11.6,2.71,11.6,2.71l5.55,2.18-.29-13-5.71-7.15Z" style="fill:#ffbf9d"></path><path d="M170.16,264s-.7.13-1.82.33a33.45,33.45,0,0,1-4.43.48,32.13,32.13,0,0,1-4.45-.1c-1.14-.1-1.84-.22-1.85-.18a2.75,2.75,0,0,0,.49.13c.31.07.77.15,1.34.22a26.27,26.27,0,0,0,4.48.17,25.72,25.72,0,0,0,4.45-.56c.56-.12,1-.23,1.32-.33A2.27,2.27,0,0,0,170.16,264Z" style="fill:#ff9a6c"></path><path d="M168.39,267.59a1.89,1.89,0,0,0,.07.87,1.78,1.78,0,0,0,.46.86,1.49,1.49,0,0,0,1.13.4,2.86,2.86,0,0,0,1.14-.3L172,269c.45-.26.76-.36.76-.4a1.89,1.89,0,0,0-.84.24,5.1,5.1,0,0,1-1.9.66,1.31,1.31,0,0,1-1-.32,1.86,1.86,0,0,1-.45-.75A6.63,6.63,0,0,0,168.39,267.59Z" style="fill:#ff9a6c"></path><path d="M161.88,268.31a3.5,3.5,0,0,0,1,.27,21.66,21.66,0,0,0,2.36.34,21,21,0,0,0,2.38.08,3.92,3.92,0,0,0,1-.09c0-.07-1.51-.06-3.35-.23S161.9,268.24,161.88,268.31Z" style="fill:#ff9a6c"></path><path d="M168.47,272.1a2.35,2.35,0,0,0,1.43.66,2.44,2.44,0,0,0,1.57-.12c0-.08-.7,0-1.53-.11S168.5,272,168.47,272.1Z" style="fill:#ff9a6c"></path><path d="M165.3,271.88a2.16,2.16,0,0,0,.94.26,2.12,2.12,0,0,0,1,0c0-.07-.41-.19-.94-.27S165.31,271.81,165.3,271.88Z" style="fill:#ff9a6c"></path><path d="M164.05,259.74a25,25,0,0,0,4.14-1.29c1.13-.41,2.14-.8,2.86-1.11a5.59,5.59,0,0,0,1.15-.57,8.13,8.13,0,0,0-1.21.41l-2.88,1.05-2.88,1A10.23,10.23,0,0,0,164.05,259.74Z" style="fill:#ff9a6c"></path><path d="M142.79,252.58h.26l.72,0c.63,0,1.53-.09,2.66-.13,2.24-.09,5.35-.13,8.77,0a4.82,4.82,0,0,1,2.37.46,8,8,0,0,1,.93.72l.88.72,3.05,2.51,2.07,1.68.57.44.21.15s-.06-.07-.18-.18l-.54-.48-2-1.74-3-2.55-.87-.73a8.12,8.12,0,0,0-1-.74,3,3,0,0,0-1.2-.41c-.43-.05-.85-.06-1.28-.09a83.91,83.91,0,0,0-8.79,0c-1.12.07-2,.14-2.66.21l-.72.08A1.08,1.08,0,0,0,142.79,252.58Z" style="fill:#263238"></path><path d="M151.09,254.4a.66.66,0,0,1,.67-.2h0l.1,0h0a1,1,0,0,1,.5.33.56.56,0,0,1,0,.71.63.63,0,0,1-.39.15.94.94,0,0,1-.77-.25A.65.65,0,0,1,151.09,254.4Z" style="fill:#fff"></path><path d="M181,262.62l42.17,8,13.9-42,24.09,11s-22,56-28.12,57.14-53-19.71-53-19.71Z" style="fill:#ffbf9d"></path><path d="M252,208.7s-10.17-4.51-16.72,14c-3.46,9.76-15.06,42.37-15.06,42.37.73.32,31.93,17.13,31.93,17.13s12.26-36,14.64-46.27Z" style="fill:#e0e0e0"></path><path d="M218.6,206.19a13.79,13.79,0,0,0-5.86,3c-.81.79-27,30.16-26.73,30.77s21.56,19.19,21.56,19.19Z" style="fill:#e0e0e0"></path><path d="M213.24,221.47a1.29,1.29,0,0,1,0,.47c-.07.36-.14.79-.23,1.31l-.95,4.81-3.3,15.82c-1.31,6.14-2.5,11.69-3.38,15.81-.43,2-.78,3.58-1.05,4.79a11.61,11.61,0,0,1-.42,1.75,2.77,2.77,0,0,1,0-.47c0-.3.1-.75.2-1.32.18-1.14.48-2.79.87-4.82.79-4.06,1.93-9.67,3.24-15.84s2.53-11.76,3.45-15.8c.45-1.95.83-3.56,1.11-4.77l.33-1.3A2.57,2.57,0,0,1,213.24,221.47Z" style="fill:#263238"></path><path d="M266.83,236a.67.67,0,0,1,0,.23c0,.18-.09.39-.15.67-.14.59-.34,1.47-.65,2.59-.59,2.25-1.54,5.51-2.79,9.62-2.51,8.2-6.25,19.75-10.79,33.24l-.09.27-.26-.14L227,269l-6.87-3.69-.21-.11L220,265l9.15-25.65c1.4-3.91,2.73-7.62,4-11.08s2.33-6.7,3.65-9.54a24.14,24.14,0,0,1,4.65-7,12.18,12.18,0,0,1,5.34-3.28,9,9,0,0,1,4-.18,5.57,5.57,0,0,1,1,.26,1.54,1.54,0,0,1,.33.14,2.31,2.31,0,0,1-.34-.09,6,6,0,0,0-1-.21,9,9,0,0,0-3.89.27,12,12,0,0,0-5.2,3.29,23.84,23.84,0,0,0-4.52,6.92c-1.28,2.82-2.35,6.06-3.58,9.53L229.6,239.5l-9.1,25.67-.14-.32,6.87,3.68L252.3,282l-.34.13c4.58-13.47,8.38-25,11-33.17,1.29-4.09,2.28-7.34,2.92-9.57.33-1.12.56-2,.72-2.57l.19-.66C266.8,236,266.83,236,266.83,236Z" style="fill:#263238"></path></g><g id="freepik--character-2--inject-156"><path d="M437,107.86l-126.27-.07c-15.19,0-27.51,11.94-27.52,26.67l-.06,307c0,14.73,12.3,26.67,27.49,26.68l126.27.07c15.19,0,27.51-11.93,27.52-26.67l.06-307C464.45,119.82,452.15,107.87,437,107.86Z" style="fill:#455a64"></path><path d="M310.73,455.66c-10.64,0-19.25-8.37-19.25-18.69l.06-299.64c0-10.32,8.63-18.68,19.27-18.68h30l71.5,0h24.48c10.63,0,19.25,8.37,19.25,18.69L456,437.05c0,10.32-8.64,18.68-19.28,18.68" style="fill:#fff"></path><rect x="279.72" y="150.81" width="6.79" height="39.89" rx="1.34" style="fill:#455a64"></rect><rect x="279.72" y="197.92" width="6.79" height="39.89" rx="1.34" style="fill:#455a64"></rect><rect x="461.05" y="183.42" width="6.79" height="68.9" rx="1.34" style="fill:#455a64"></rect><rect x="434.13" y="89.65" width="58.75" height="58.75" rx="3.84" style="fill:#FFC727"></rect><g style="opacity:0.30000000000000004"><rect x="434.13" y="89.65" width="58.75" height="58.75" rx="3.84"></rect></g><rect x="423.84" y="89.65" width="58.75" height="58.75" rx="3.84" style="fill:#FFC727"></rect><path d="M464.09,123.81h-19.4a.5.5,0,0,1-.5-.5.5.5,0,0,1,.5-.5h19l2.14-12.08H442.86a.5.5,0,0,1-.5-.5.5.5,0,0,1,.5-.5h23.55a.49.49,0,0,1,.49.58l-2.32,13.09A.49.49,0,0,1,464.09,123.81Z" style="fill:#fff"></path><path d="M463.45,128.39h0L445,128.33a.51.51,0,0,1-.5-.44l-2.65-20.65h-5.49a.5.5,0,1,1,0-1h5.93a.51.51,0,0,1,.5.44l2.65,20.65,18,.06a.5.5,0,0,1,.5.51A.49.49,0,0,1,463.45,128.39Z" style="fill:#fff"></path><path d="M448,135a2.8,2.8,0,1,1,2.8-2.8A2.81,2.81,0,0,1,448,135Zm0-4.6a1.8,1.8,0,1,0,1.8,1.8A1.81,1.81,0,0,0,448,130.37Z" style="fill:#fff"></path><path d="M460.74,135a2.8,2.8,0,1,1,2.8-2.8A2.81,2.81,0,0,1,460.74,135Zm0-4.6a1.8,1.8,0,1,0,1.8,1.8A1.81,1.81,0,0,0,460.74,130.37Z" style="fill:#fff"></path><path d="M450.68,123.81a.5.5,0,0,1-.5-.46l-.79-12.67a.5.5,0,0,1,.47-.53.49.49,0,0,1,.53.47l.79,12.66a.49.49,0,0,1-.47.53Z" style="fill:#fff"></path><path d="M457.77,123.81h0a.49.49,0,0,1-.47-.52l.7-12.67a.5.5,0,0,1,.53-.47.49.49,0,0,1,.47.53l-.71,12.66A.49.49,0,0,1,457.77,123.81Z" style="fill:#fff"></path><path d="M443.58,117.48a.5.5,0,0,1,0-1l21.68-.21a.47.47,0,0,1,.5.5.5.5,0,0,1-.49.5l-21.68.21Z" style="fill:#fff"></path><circle cx="468.23" cy="108.49" r="6.02" style="fill:#fff"></circle><path d="M470.19,108.65a1.59,1.59,0,0,1,.4,1.11,1.68,1.68,0,0,1-.26.93,1.85,1.85,0,0,1-.81.69,3.17,3.17,0,0,1-1.34.26,4.47,4.47,0,0,1-1.21-.16,3.25,3.25,0,0,1-1-.46l.52-1a2.43,2.43,0,0,0,.77.39,3,3,0,0,0,.9.14,1.46,1.46,0,0,0,.8-.2.63.63,0,0,0,.29-.55c0-.48-.37-.72-1.09-.72h-.62v-.89l1.2-1.36h-2.48v-1.08h4.08v.87l-1.32,1.5A2.09,2.09,0,0,1,470.19,108.65Z" style="fill:#FFC727"></path><polygon points="281.02 271.57 188.2 375.64 211.53 396.76 292.5 282.58 281.02 271.57" style="fill:#FFC727"></polygon><polygon points="211.53 396.76 280.8 399.07 325.73 293.65 292.5 282.58 211.53 396.76" style="fill:#FFC727"></polygon><path d="M211.53,396.76a10.81,10.81,0,0,1,0-1.72c.05-1.18.12-2.76.21-4.68.19-4,.49-9.47.86-15.6l.27.27-1.32.05c-6.45.23-12.28.4-16.51.51l-5,.09h-1.37a1.57,1.57,0,0,1-.47,0,1.62,1.62,0,0,1,.47-.07l1.36-.09,5-.26c4.22-.2,10.05-.43,16.5-.66l1.32-.05h.29l0,.29c-.38,6.13-.74,11.63-1,15.59-.15,1.92-.27,3.49-.36,4.68A12.72,12.72,0,0,1,211.53,396.76Z" style="fill:#263238"></path><path d="M286.59,276.87c.12.09-16.3,22.08-36.65,49.11s-37,48.88-37.08,48.79,16.3-22.07,36.66-49.11S286.48,276.79,286.59,276.87Z" style="fill:#263238"></path><g style="opacity:0.30000000000000004"><polygon points="211.53 396.76 280.8 399.07 325.73 293.65 292.5 282.58 211.53 396.76"></polygon></g><polygon points="217.21 412.07 251.01 435.97 294 295.19 291.15 293.78 217.21 412.07" style="fill:#455a64"></polygon><polygon points="251.01 435.97 299.92 419.11 327.23 299.47 294 295.19 251.01 435.97" style="fill:#455a64"></polygon><g style="opacity:0.30000000000000004"><polygon points="251.01 435.97 299.92 419.11 327.23 299.47 294 295.19 251.01 435.97"></polygon></g><path d="M251,436a2.3,2.3,0,0,1-.22-.53l-.54-1.55-1.89-5.74c-1.56-4.91-3.69-11.59-6-19-.36-1.14-.71-2.26-1-3.33l.31.17-17,4.49-5.06,1.28-1.37.32a.25.25,0,1,1,0-.09l1.35-.41,5-1.44,16.94-4.65.23-.06.08.24c.33,1.06.69,2.18,1,3.32,2.29,7.4,4.37,14.09,5.89,19,.72,2.39,1.31,4.35,1.73,5.79.19.64.33,1.16.45,1.58A1.92,1.92,0,0,1,251,436Z" style="fill:#263238"></path><path d="M292.68,294.76c.13.06-11.22,25-25.34,55.61s-25.69,55.46-25.82,55.4,11.22-24.95,25.34-55.61S292.54,294.7,292.68,294.76Z" style="fill:#263238"></path><polygon points="304.32 291.16 269.76 396.48 306.72 405.67 307.23 291.51 304.32 291.16" style="fill:#FFC727"></polygon><polygon points="306.72 405.67 339.28 395.14 334.58 292.64 307.23 291.51 306.72 405.67" style="fill:#FFC727"></polygon><g style="opacity:0.30000000000000004"><polygon points="306.72 405.67 339.28 395.14 334.58 292.64 307.23 291.51 306.72 405.67"></polygon></g><path d="M306.72,405.67a1.92,1.92,0,0,1-.37-.29l-1-.92L301.81,401c-3-2.92-7.09-7-11.6-11.47l-1.47-1.47.29.06c-5.38,2.4-10.19,4.51-13.65,6l-4.1,1.75a10.27,10.27,0,0,1-1.52.57,10.84,10.84,0,0,1,1.44-.75l4-1.89c3.43-1.58,8.21-3.75,13.59-6.17l.16-.07.13.13,1.47,1.46c4.5,4.5,8.57,8.59,11.49,11.58l3.44,3.55.92,1A1.92,1.92,0,0,1,306.72,405.67Z" style="fill:#263238"></path><path d="M305.74,291.34c.14,0-3.51,21.66-8.15,48.33s-8.53,48.27-8.67,48.24,3.51-21.66,8.16-48.33S305.6,291.31,305.74,291.34Z" style="fill:#263238"></path><polygon points="281.02 271.57 319.24 285.1 309.73 289.2 292.5 282.58 281.02 271.57" style="fill:#263238"></polygon><polygon points="291.15 293.78 303 295.19 302.57 296.3 294 295.19 291.15 293.78" style="fill:#263238"></polygon><path d="M342,268.43a1.81,1.81,0,0,1-.53,0l-1.5-.1c-.65-.05-1.44-.11-2.37-.13s-2-.1-3.14-.08-2.44,0-3.81.07-2.82.17-4.35.29a85.4,85.4,0,0,0-9.87,1.6,87.1,87.1,0,0,0-9.59,2.85c-1.43.56-2.81,1.06-4.05,1.63s-2.41,1.08-3.46,1.59-2,1-2.79,1.43-1.52.82-2.08,1.15l-1.31.74a2,2,0,0,1-.48.23,2.2,2.2,0,0,1,.42-.32l1.26-.82c.55-.36,1.23-.78,2-1.23s1.72-1,2.77-1.51,2.19-1.11,3.45-1.66,2.62-1.11,4.06-1.68a81.69,81.69,0,0,1,9.64-2.91A80.23,80.23,0,0,1,326.2,268c1.55-.11,3-.24,4.39-.25s2.66,0,3.83,0,2.22.1,3.15.16,1.72.14,2.37.22l1.49.2A2.08,2.08,0,0,1,342,268.43Z" style="fill:#263238"></path><path d="M342.49,267.64a1.72,1.72,0,0,1-.5.15l-1.47.33c-.64.12-1.42.29-2.32.54s-1.93.46-3,.83-2.34.7-3.63,1.18-2.64,1-4.07,1.6a68.26,68.26,0,0,0-17,10.49c-1.16,1-2.28,2-3.25,2.93s-1.89,1.85-2.68,2.7-1.49,1.65-2.11,2.34-1.12,1.32-1.52,1.83-.69.86-.95,1.17-.34.4-.36.39a2,2,0,0,1,.28-.45l.87-1.23c.38-.54.86-1.18,1.46-1.89s1.24-1.56,2-2.41,1.66-1.81,2.66-2.76,2.08-2,3.24-3a65.65,65.65,0,0,1,17.11-10.56c1.44-.58,2.81-1.15,4.12-1.56s2.53-.83,3.66-1.14,2.17-.54,3.07-.76,1.7-.36,2.35-.45l1.49-.23A1.86,1.86,0,0,1,342.49,267.64Z" style="fill:#263238"></path><path d="M434.41,308.53a19.67,19.67,0,0,1-1.3,4.26,18.8,18.8,0,0,1-1.79,4.08,19.67,19.67,0,0,1,1.3-4.26A18.8,18.8,0,0,1,434.41,308.53Z" style="fill:#263238"></path><path d="M465.26,298.17c4.72-2,5.81-8.73,3.31-13.2s-7.4-7-12.21-8.79-9.9-3.08-14.05-6.09c-7.4-5.36-10.27-15-11.71-24-2.15-13.44-2.19-27.14-4.31-40.58s-6.6-27.06-16.1-36.81a44.94,44.94,0,0,0-40.1-12.5c-11.66.44-23.35,7.63-35.07,21.93-12,16.26-14.65,41.71-14,67.4.49,18.51,4.44,48.52,15.67,63.24,13.3,17.44,48,14.29,68,23.46s45,9.65,62.59-3.46c5.68-4.23,10.64-10.31,10.93-17.38S472.22,296.92,465.26,298.17Z" style="fill:#263238"></path><path d="M335,178.14c9.09-12.92,22-20.92,37.71-22.32,8.88-.8,12.69.78,19.22,2s12.55,4.28,16.76,9.42c5,6.11,9.34,13,10.77,20.8,1.46,8,.15,14.88.13,23s-4.18,19.43-8.45,26.33l-14.92,3.14c-11.31,1.21-22.77,2.42-34,.64s-22.39-6.94-29-16.19C324,212.15,325.93,191.06,335,178.14Z" style="fill:#263238"></path><path d="M399,277c-.66-7.19-1.56-16.2-1.56-16.16S414,257.73,417.07,236c1.53-10.83.67-28.54-.5-43-1.06-13-13.44-29.94-29.52-28.83l-7.21-.31-26.57,12.87a7.63,7.63,0,0,0-6.7,7.87l7.64,94.25,17.86,28.14L399,289.2Z" style="fill:#ffbf9d"></path><path d="M410.47,210.8a2.78,2.78,0,0,1-2.64,2.85,2.65,2.65,0,0,1-2.91-2.46,2.78,2.78,0,0,1,2.63-2.86A2.68,2.68,0,0,1,410.47,210.8Z" style="fill:#263238"></path><path d="M412.19,200.54c-.34.37-2.48-1.15-5.47-1.09s-5.17,1.6-5.5,1.24c-.17-.16.18-.82,1.12-1.54a7.7,7.7,0,0,1,4.4-1.44A7.33,7.33,0,0,1,411.1,199C412,199.73,412.36,200.38,412.19,200.54Z" style="fill:#263238"></path><path d="M394.71,225.36c0-.17,1.84-.53,4.85-1,.77-.09,1.49-.26,1.61-.78a3.94,3.94,0,0,0-.55-2.26c-.76-1.84-1.54-3.77-2.37-5.79-3.29-8.24-5.69-15-5.36-15.15s3.27,6.44,6.57,14.69l2.27,5.82a4.46,4.46,0,0,1,.45,3,1.94,1.94,0,0,1-1.24,1.14,5.15,5.15,0,0,1-1.3.2C396.61,225.48,394.72,225.53,394.71,225.36Z" style="fill:#263238"></path><path d="M397.41,260.8a55.26,55.26,0,0,1-29.23-7.25s8,14.92,29.73,12.5Z" style="fill:#ff9a6c"></path><path d="M410.41,190.16c-.49.74-2.79.29-5.47.56s-4.89,1-5.49.37c-.27-.32,0-1,.93-1.79a8.54,8.54,0,0,1,8.83-.75C410.24,189.14,410.63,189.8,410.41,190.16Z" style="fill:#263238"></path><path d="M377.17,212.94A2.79,2.79,0,0,0,380,215.6a2.67,2.67,0,0,0,2.72-2.67,2.78,2.78,0,0,0-2.83-2.66A2.66,2.66,0,0,0,377.17,212.94Z" style="fill:#263238"></path><path d="M371.7,202.33c.36.34,2.39-1.33,5.38-1.49s5.27,1.22,5.58.83c.15-.17-.24-.8-1.24-1.45a7.65,7.65,0,0,0-4.48-1.11,7.25,7.25,0,0,0-4.26,1.64C371.8,201.5,371.52,202.18,371.7,202.33Z" style="fill:#263238"></path><path d="M372.8,192.63c.63.65,2.9-.18,5.67-.37s5.16.17,5.66-.57c.22-.36-.19-1-1.26-1.6a9.06,9.06,0,0,0-9.12.75C372.8,191.6,372.52,192.31,372.8,192.63Z" style="fill:#263238"></path><path d="M352.94,220.64c0-1.62-2-5.4-3.58-5.62-4.27-.59-12-.11-11.84,10.72.17,14.82,15,11.59,15,11.17S353.05,226.22,352.94,220.64Z" style="fill:#ffbf9d"></path><path d="M348.4,231.54c-.06,0-.25.19-.69.39a2.58,2.58,0,0,1-1.93.06c-1.57-.55-2.91-3-3-5.69a8.68,8.68,0,0,1,.68-3.71,3,3,0,0,1,1.92-2,1.31,1.31,0,0,1,1.53.69c.21.41.12.71.2.73s.31-.25.18-.86a1.63,1.63,0,0,0-.59-.92,2,2,0,0,0-1.43-.36,3.61,3.61,0,0,0-2.67,2.33,8.8,8.8,0,0,0-.85,4.14c.13,3,1.69,5.76,3.84,6.35a2.73,2.73,0,0,0,2.35-.42C348.38,231.9,348.45,231.57,348.4,231.54Z" style="fill:#ff9a6c"></path><path d="M348.76,215.1l4,3.62C375,205.85,396.64,161,395.05,163.41c0,0-11.42-3.75-23.3-.82s-34.26,10.6-32.88,24.77S348.76,215.1,348.76,215.1Z" style="fill:#263238"></path><path d="M392.14,231.88,386.5,229a2.8,2.8,0,0,0-1.88-.45,2.37,2.37,0,0,0-1.31,1.11,6.48,6.48,0,0,0-.47,6.08,5.76,5.76,0,0,0,5,3.3c2.12,0,5.44-1.73,6.68-5.75Z" style="fill:#ff9a6c"></path><path d="M389.59,238.71a2.31,2.31,0,0,1-1,.34,6.05,6.05,0,0,1-3-.25,4.86,4.86,0,0,1-.91-.46,8,8,0,0,1-.82-.72,7.07,7.07,0,0,1-1.43-1.91,4.59,4.59,0,0,1-.41-2.63,7.51,7.51,0,0,1,.85-2.71,8.11,8.11,0,0,1,.79-1.21,2.38,2.38,0,0,1,1.26-.81,2.77,2.77,0,0,1,1.43,0,4.59,4.59,0,0,1,1.17.6c1.38.88,2.66,1.6,3.73,2.22s1.93,1.15,2.5,1.53a3.88,3.88,0,0,1,.87.65,5,5,0,0,1-1-.48l-2.58-1.38c-1.09-.58-2.4-1.27-3.8-2.13a4.38,4.38,0,0,0-1.06-.53,2.29,2.29,0,0,0-1.16,0,1.86,1.86,0,0,0-1,.64,8.27,8.27,0,0,0-.74,1.14,5.56,5.56,0,0,0-.46,4.88,6.81,6.81,0,0,0,1.3,1.82,4.14,4.14,0,0,0,1.55,1.13,6.16,6.16,0,0,0,2.81.39C389.21,238.79,389.57,238.67,389.59,238.71Z" style="fill:#263238"></path><path d="M445,455.86s-8.8-49-9.24-51.94l-1.35-8.78c.43-2.78,6.76-26.23,7.21-36.86.88-20.57-3.87-33.41-14.84-53.49l.64-25.09-28.85-6.84c4.23,14.73-23.2,15.79-46.4.95l-34,11,8.06,38.82.92,85.79-15.83,47.3Z" style="fill:#455a64"></path><g style="opacity:0.30000000000000004"><path d="M376.48,319.07l-20.26,6.09-29.81,86.62c2.83,2.05,8.61,3.74,11.94,2.67a27.19,27.19,0,0,0,8.89-5.45c12.79-10.7,19-27.61,24.27-43.42S381.12,335.09,376.48,319.07Z"></path></g><path d="M319,285.1s-17.68,3.59-21.08,27.18,1.88,62.41,7.22,79.61,17.56,20.33,28.28,18.08c18.09-3.8,34.38-53.94,43.25-91.65l-26.8-7.38L333.5,344.79l-1.14-19" style="fill:#455a64"></path><path d="M332.36,325.82s0,.42.1,1.25.14,2.05.25,3.65c.21,3.22.52,8,.91,14.06l-.23,0c4-8.41,9.6-20,16.26-33.88l.07-.14.16,0,26.81,7.36.21.05,0,.21c-2.9,12.28-6.44,25.62-11.05,39.49-2.31,6.94-4.89,14-7.95,21.07a111.22,111.22,0,0,1-11.2,20.69,40,40,0,0,1-5.9,6.61A16.32,16.32,0,0,1,333,410.3a27.71,27.71,0,0,1-8.61.37,21,21,0,0,1-8.06-2.67,22.18,22.18,0,0,1-6.25-5.51,33,33,0,0,1-4-7.13c-.49-1.26-.93-2.53-1.34-3.8s-.76-2.54-1.07-3.82c-.67-2.54-1.23-5.08-1.77-7.59a267.83,267.83,0,0,1-4.21-28.82,217.66,217.66,0,0,1-1-25.36c.22-7.74.81-14.81,2.67-20.73a31.82,31.82,0,0,1,8-13.47c.76-.78,1.58-1.41,2.3-2s1.49-1.13,2.22-1.55a23,23,0,0,1,2-1.16c.62-.34,1.21-.6,1.73-.83a19.92,19.92,0,0,1,2.45-.88,8.76,8.76,0,0,1,.86-.21l-.85.26a23,23,0,0,0-2.42.93,27.44,27.44,0,0,0-8.15,5.62,31.8,31.8,0,0,0-7.91,13.42c-1.82,5.87-2.38,12.92-2.59,20.65a220,220,0,0,0,1.09,25.31,266.6,266.6,0,0,0,4.25,28.76c.54,2.5,1.11,5,1.77,7.57.32,1.27.72,2.52,1.07,3.8s.85,2.51,1.33,3.75a32.57,32.57,0,0,0,3.95,7,21.74,21.74,0,0,0,6.11,5.38,20.56,20.56,0,0,0,7.86,2.6,27.32,27.32,0,0,0,8.45-.37,15.88,15.88,0,0,0,7.49-4,39.84,39.84,0,0,0,5.81-6.53,110.63,110.63,0,0,0,11.16-20.58c3.05-7,5.63-14.1,7.94-21,4.62-13.86,8.17-27.18,11.09-39.44l.16.27-26.79-7.42.22-.1c-6.72,13.87-12.32,25.41-16.39,33.82l-.2.41,0-.46c-.34-6.1-.61-10.84-.79-14.07-.08-1.59-.15-2.81-.19-3.65S332.36,325.82,332.36,325.82Z" style="fill:#263238"></path><path d="M345.68,269.45c-.4-.94-1.66-1.06-2.68-1A57.25,57.25,0,0,0,330,270c-1.72.46-3.6,1.24-4.26,2.9s.32,3.74,1.3,5.38l13-4.26a9.69,9.69,0,0,0,4.6-2.16C345.37,271.28,346.05,270.32,345.68,269.45Z" style="fill:#ffbf9d"></path><path d="M356.25,273.24a8.31,8.31,0,0,0-1.35-2.57,3.12,3.12,0,0,0-2.56-1.15,3.19,3.19,0,0,0-2.53,2.92,9.25,9.25,0,0,0,.74,4.07l8.1,5.07A79.52,79.52,0,0,0,356.25,273.24Z" style="fill:#ff9a6c"></path><path d="M331.22,273.71c.61-.2,12-1.22,17.32,0s20,10.37,22.63,16.5a31.18,31.18,0,0,1,2.65,12.45c.22,3.15.22,14.54.22,14.54l-23.19-6.58,3.63-7.8s-13.27-7.09-17.76-8.93-11.28-6.58-12-8.54c-.92-2.63,1.08-2.54,1.42-4.76C327.19,273.91,331.22,273.71,331.22,273.71Z" style="fill:#ffbf9d"></path><path d="M362.41,298c0,.15-2,.79-4.24,2.15s-3.77,2.85-3.89,2.74a10.55,10.55,0,0,1,3.62-3.19A10.41,10.41,0,0,1,362.41,298Z" style="fill:#ff9a6c"></path><path d="M373.74,308a3,3,0,0,1-.1-.63c0-.42-.09-1-.13-1.82-.09-1.59-.08-3.88-.3-6.7a24.67,24.67,0,0,0-.76-4.52,21.16,21.16,0,0,0-.88-2.39,16,16,0,0,0-1.19-2.42,12.42,12.42,0,0,0-1.79-2.17c-.68-.7-1.4-1.38-2.16-2.06a61.29,61.29,0,0,0-4.9-3.91,59.14,59.14,0,0,0-10.38-6.24,19.48,19.48,0,0,0-5-1.64,33.41,33.41,0,0,0-4.58-.4,60.17,60.17,0,0,0-6.68.23c-.78.07-1.39.15-1.81.2a2.49,2.49,0,0,1-.63.06,4.17,4.17,0,0,1,.62-.16c.41-.09,1-.2,1.8-.3a50.39,50.39,0,0,1,6.71-.39,32.42,32.42,0,0,1,4.64.33,20.12,20.12,0,0,1,5.1,1.63,57.67,57.67,0,0,1,10.49,6.26,58.52,58.52,0,0,1,4.94,3.95c.77.69,1.49,1.39,2.17,2.1a12.44,12.44,0,0,1,1.85,2.26,16.65,16.65,0,0,1,1.2,2.49,20.08,20.08,0,0,1,.87,2.46,23.92,23.92,0,0,1,.72,4.61c.17,2.84.1,5.13.13,6.71,0,.75,0,1.35,0,1.82A2.84,2.84,0,0,1,373.74,308Z" style="fill:#ff9a6c"></path><path d="M333.61,344.84c.06.1-1.55.89-3.81,2.63a30.27,30.27,0,0,0-3.68,3.38,34,34,0,0,0-3.68,4.88,33.6,33.6,0,0,0-2.65,5.51,29.66,29.66,0,0,0-1.33,4.82c-.53,2.8-.51,4.59-.62,4.58a6.42,6.42,0,0,1,0-1.25,13.65,13.65,0,0,1,.07-1.46c.06-.57.09-1.23.23-1.94a29,29,0,0,1,1.25-4.91,31.21,31.21,0,0,1,2.66-5.62,32,32,0,0,1,3.77-4.94,27.78,27.78,0,0,1,3.81-3.34,19.23,19.23,0,0,1,1.62-1.09,12.32,12.32,0,0,1,1.28-.73A6.44,6.44,0,0,1,333.61,344.84Z" style="fill:#263238"></path><path d="M444.18,455.51c0,.14-30.35.26-67.77.26s-67.78-.12-67.78-.26,30.34-.26,67.78-.26S444.18,455.36,444.18,455.51Z" style="fill:#263238"></path><path d="M532.19,255s-2,9-7,16l-5.66,4.5-.15,19.71-23.89-7.63,1-20.49.53-17L511,236.7Z" style="fill:#ffbf9d"></path><path d="M463.92,219.48l12.31,25.66,6.44-1.67,41.13,35.27,12.14-22.92s-24.5-11.27-28.89-20.29-.27-8.75-.27-8.75L496.61,211Z" style="fill:#263238"></path><path d="M479.83,185.28s12.91-3.79,33.55-18.42a190.23,190.23,0,0,0,32.15-29.49,7,7,0,0,1,9.84-.89c4.54,3.83,10.8,13.43,17.62,37.85,12,43,3.39,51.24-.22,50.59s-27.42-8.52-43.09-9.19-39.53,4-39.53,4Z" style="fill:#e0e0e0"></path><path d="M479.83,185.28a5.84,5.84,0,0,0,.15.57c.11.42.28,1,.48,1.72.45,1.57,1.11,3.83,2,6.74l7.47,25.5.07.24.25-.05c6.79-1.24,14.56-2.44,23.14-3.26,4.29-.4,8.79-.72,13.47-.7a83.69,83.69,0,0,1,14.42,1.5c9.9,1.74,20.13,4.74,30.94,7.69l.53.11.61,0a4.24,4.24,0,0,0,1.17-.27c.33-.2.68-.39,1-.61l.82-.8a11.8,11.8,0,0,0,2-3.94,30.58,30.58,0,0,0,1.24-8.72,92.74,92.74,0,0,0-1.72-17.86l-.75-3.95c-.27-1.31-.58-2.61-.87-3.9-.56-2.6-1.22-5.15-1.91-7.68-1.29-5.08-2.79-10-4.4-14.82a124.14,124.14,0,0,0-5.51-13.88c-2.12-4.38-4.52-8.61-7.87-12a8.69,8.69,0,0,0-2.95-2,7.16,7.16,0,0,0-3.51-.43,7.46,7.46,0,0,0-3.27,1.21,12.55,12.55,0,0,0-2.44,2.38c-2.88,3.29-5.8,6.38-8.7,9.29a186.54,186.54,0,0,1-17,15.17,182.49,182.49,0,0,1-27.74,17.79c-3.47,1.77-6.24,3-8.14,3.77-.94.39-1.67.66-2.17.85a7.82,7.82,0,0,0-.74.29,6.4,6.4,0,0,0,.77-.21c.5-.16,1.25-.4,2.21-.77,1.92-.72,4.71-1.89,8.22-3.62a175.44,175.44,0,0,0,28-17.6,185.38,185.38,0,0,0,17.17-15.15c2.92-2.9,5.86-6,8.77-9.29a11.76,11.76,0,0,1,2.28-2.24,6.84,6.84,0,0,1,2.94-1.08,6.76,6.76,0,0,1,5.81,2.24c3.22,3.22,5.59,7.4,7.68,11.74a122.09,122.09,0,0,1,5.45,13.79c1.6,4.78,3.09,9.71,4.37,14.77.68,2.52,1.34,5.06,1.9,7.65.28,1.29.6,2.58.87,3.88s.49,2.62.74,3.93A91.24,91.24,0,0,1,578.68,211a29.51,29.51,0,0,1-1.19,8.48,10.8,10.8,0,0,1-1.85,3.64l-.7.69c-.26.18-.54.33-.8.5a2.6,2.6,0,0,1-1.79.08c-10.72-2.91-21.05-5.91-31-7.63a84.93,84.93,0,0,0-14.56-1.46c-4.71,0-9.23.33-13.53.75-8.62.87-16.38,2.12-23.19,3.41l.32.19c-3.29-10.77-5.91-19.33-7.71-25.24l-2.1-6.76-.56-1.76A3,3,0,0,0,479.83,185.28Z" style="fill:#263238"></path><polygon points="446.15 221.73 454.53 220.45 449.71 209.32 442.66 213.09 446.15 221.73" style="fill:#FFC727"></polygon><path d="M448.59,208.2l3.75,8.66,2.05,4.73a13.1,13.1,0,0,0,16.68,7.12l34-9.32-13.83-43.13L456.83,189A15.47,15.47,0,0,0,448.59,208.2Z" style="fill:#FFC727"></path><g style="opacity:0.30000000000000004"><path d="M570.17,176.64c6.25,23,7.21,42.71,2.16,44.12s-14.22-16.06-20.47-39-7.21-42.71-2.16-44.12S563.92,153.69,570.17,176.64Z"></path></g><path d="M548.67,168.27s12.15-5.2,15.87,10.91-8.32,16.76-8.32,16.76A102.88,102.88,0,0,1,548.67,168.27Z" style="fill:#fff"></path><path d="M484.47,193c.08.22-5.76,2.38-13,4.82s-13.24,4.24-13.31,4,5.76-2.38,13-4.83S484.4,192.81,484.47,193Z" style="fill:#263238"></path><path d="M486,197.79c.07.22-5.77,2.38-13.05,4.82s-13.24,4.24-13.31,4,5.77-2.38,13.05-4.83S485.91,197.56,486,197.79Z" style="fill:#263238"></path><path d="M487.48,202.53c.08.23-5.77,2.39-13,4.83s-13.24,4.24-13.32,4,5.77-2.38,13.05-4.83S487.41,202.31,487.48,202.53Z" style="fill:#263238"></path><path d="M489,207.28c.07.23-5.77,2.39-13.05,4.83s-13.24,4.24-13.31,4,5.77-2.38,13.05-4.83S488.91,207.06,489,207.28Z" style="fill:#263238"></path><path d="M503.15,248.21,507,238a4.78,4.78,0,0,1,6.69-2.66,3.65,3.65,0,0,1,1.91,3.44s7-2.26,6.22,4.61c0,0,5.21-.52,5,4.36,0,0,6.34-1.41,5.83,4.91s-8.32,9.57-10.43,8.81c0,0-2.22-.62-1.25-4.19,0,0-5.27,7.09-8.54,5.62s-.43-4.65-.43-4.65-2.08,2.08-4,1.21.44-7.92.44-7.92a5.51,5.51,0,0,1-3.83.34C502.86,251.18,503.15,248.21,503.15,248.21Z" style="fill:#ffbf9d"></path><path d="M521,257.26c.21.09,1.35-2.1,3.18-4.54s3.14-4.63,2.93-4.76-1.72,1.8-3.59,4.27S520.78,257.18,521,257.26Z" style="fill:#ff9a6c"></path><path d="M521.55,243.11c-.16-.15-3,2.93-5.71,7.28s-4.35,8.2-4.16,8.28,2.13-3.55,4.85-7.84S521.73,243.26,521.55,243.11Z" style="fill:#ff9a6c"></path><path d="M508,252.28c.25.06.86-3.47,3-7.21s4.82-6.07,4.65-6.27-3.16,1.93-5.36,5.85S507.8,252.29,508,252.28Z" style="fill:#ff9a6c"></path><path d="M486.3,249.07l2.67-3a4,4,0,0,1,3.55-1.31c3.57.52,9.29,2.13,10.24,2.86,1.54,1.19.68,4.35-4.9,4.42s-.57,0-.57,0,12.17,4.8,9.15,15.68l-9.24-.22S486.51,255.3,485.71,253A4.25,4.25,0,0,1,486.3,249.07Z" style="fill:#ffbf9d"></path><path d="M495.07,251.6c0,.14,1.25.31,3.11,1.13a14.33,14.33,0,0,1,6,4.93,14.61,14.61,0,0,1,2.48,7.42c.12,2-.17,3.32,0,3.34a7.11,7.11,0,0,0,.62-3.36,13.86,13.86,0,0,0-2.39-7.88,13.51,13.51,0,0,0-6.48-5A6.77,6.77,0,0,0,495.07,251.6Z" style="fill:#ff9a6c"></path><path d="M591.81,188.89c0,.14,7,2.73,15.68,5.78s15.81,5.4,15.86,5.25-7-2.73-15.68-5.78S591.86,188.74,591.81,188.89Z" style="fill:#263238"></path><path d="M589,172.41c0,.15,11.23-1.41,25-3.49s25-3.89,25-4-11.23,1.41-25,3.49S589,172.26,589,172.41Z" style="fill:#263238"></path><path d="M586.49,155.5c.1.11,4-3.39,8.76-7.83s8.5-8.12,8.4-8.24-4,3.4-8.77,7.83S586.38,155.39,586.49,155.5Z" style="fill:#263238"></path><path d="M547.29,140.13a3,3,0,0,0-.12.83c0,.65-.1,1.44-.17,2.39s-.15,2.32-.15,3.8-.07,3.18,0,5a127.23,127.23,0,0,0,1,13.08,127,127,0,0,0,8.1,31,123.46,123.46,0,0,0,5.51,11.88c.83,1.67,1.71,3.1,2.45,4.39s1.4,2.36,2,3.23l1.32,2c.31.45.48.68.51.66a3.58,3.58,0,0,0-.36-.75l-1.18-2.08c-.53-.9-1.17-2-1.85-3.3s-1.53-2.75-2.33-4.43c-1.69-3.3-3.5-7.33-5.31-11.89a150.43,150.43,0,0,1-4.93-15.17,147.38,147.38,0,0,1-3.11-15.65c-.66-4.86-1-9.27-1.19-13-.13-1.85-.11-3.54-.14-5s0-2.75,0-3.79,0-1.75,0-2.4A3.07,3.07,0,0,0,547.29,140.13Z" style="fill:#263238"></path><path d="M491.66,279.86l-1.59,9.67-3.94,31.78-32.29-23.07S444.65,290,436,283.77c-5.63-4.07-20.12-7.08-20.12-7.08l23,71.11s35.25,15.61,44,18.59c9.14,3.12,32.86,7.19,35.84-17.72,2.7-22.64,1.92-63.88,1.92-63.88Z" style="fill:#455a64"></path><path d="M492,344.72a3.25,3.25,0,0,1-.56-.8c-.35-.53-.79-1.32-1.31-2.33a40.73,40.73,0,0,1-3.06-8.25,41.16,41.16,0,0,1-1.2-8.72c0-1.13,0-2,.05-2.67a3.27,3.27,0,0,1,.12-1c.09,0,.06,1.39.2,3.62a47.5,47.5,0,0,0,4.23,16.83C491.41,343.47,492.09,344.68,492,344.72Z" style="fill:#263238"></path><path d="M439.69,371.82a2.54,2.54,0,0,1,.06-.64c.06-.46.15-1.06.26-1.8.27-1.55.56-3.82.87-6.62a86.53,86.53,0,0,0-.41-21.95A85,85,0,0,0,437.69,329c-.58-1.77-1.13-3.45-1.75-5s-1.18-3-1.72-4.27c-1.13-2.59-2.09-4.66-2.8-6.07l-.78-1.64a3.43,3.43,0,0,1-.25-.59,2.86,2.86,0,0,1,.34.54l.87,1.59c.77,1.39,1.78,3.44,2.95,6,.57,1.29,1.22,2.7,1.8,4.26s1.2,3.23,1.8,5A81,81,0,0,1,441,340.73a82.22,82.22,0,0,1,.27,22.07c-.37,2.8-.71,5.07-1,6.62-.15.73-.27,1.32-.36,1.78A3,3,0,0,1,439.69,371.82Z" style="fill:#263238"></path></g></svg>