<svg id="Capa_1" enable-background="new 0 0 512 512" height="512" viewBox="0 0 512 512" width="512" xmlns="http://www.w3.org/2000/svg"><g fill="#050402"><path d="m230.399 62.354c-2.052-3.602-6.636-4.859-10.237-2.806-.087.049-2.175 1.242-5.494 3.419-3.466 2.273-4.434 6.926-2.16 10.392 2.274 3.468 6.927 4.434 10.392 2.16 2.86-1.875 4.647-2.902 4.697-2.93 3.597-2.054 4.853-6.635 2.802-10.235z"/><path d="m292.671 414.973c-2.525 2.964-5.19 5.96-7.921 8.904-2.82 3.039-2.642 7.788.397 10.607 3.031 2.813 7.782 2.649 10.607-.397 2.875-3.099 5.683-6.255 8.344-9.38 2.688-3.156 2.309-7.893-.847-10.581-3.154-2.688-7.891-2.309-10.58.847z"/><path d="m331.01 369.12c-3.74-1.789-8.22-.208-10.01 3.531-1.623 3.393-3.453 6.865-5.439 10.319-2.066 3.594-.828 8.182 2.766 10.248 3.587 2.063 8.177.835 10.248-2.766 2.174-3.78 4.18-7.589 5.967-11.322 1.788-3.739.208-8.221-3.532-10.01z"/><path d="m346.428 337.531c.191-2.416.289-4.848.289-7.227 0-2.037-.071-4.09-.212-6.103-.29-4.135-3.887-7.255-8.012-6.962-4.135.29-7.253 3.877-6.962 8.012.116 1.664.176 3.363.175 5.052 0 1.986-.081 4.019-.242 6.042-.328 4.132 2.756 7.748 6.889 8.076 4.121.328 7.747-2.75 8.075-6.89z"/><path d="m324.158 272.046c-2.7-3.147-7.438-3.509-10.584-.81s-3.509 7.438-.81 10.584c2.51 2.927 4.802 5.95 6.81 8.987 2.287 3.458 6.944 4.407 10.401 2.12 3.458-2.287 4.407-6.943 2.12-10.401-2.351-3.555-5.022-7.081-7.937-10.48z"/><path d="m291.553 244.381c-3.441-2.219-7.087-4.419-10.839-6.54-3.608-2.04-8.188-.769-10.228 2.84s-.769 8.188 2.84 10.228c3.499 1.978 6.895 4.027 10.091 6.088 3.461 2.232 8.115 1.266 10.375-2.24 2.248-3.484 1.245-8.129-2.239-10.376z"/><path d="m233.345 214.053c-3.623-2.017-8.192-.713-10.208 2.911-2.015 3.622-.712 8.193 2.911 10.208 3.53 1.963 7.248 3.937 11.052 5.864 3.673 1.863 8.203.419 10.088-3.301 1.874-3.697.396-8.214-3.302-10.088-3.632-1.842-7.179-3.724-10.541-5.594z"/><path d="m191.146 203.52c3.147 2.683 7.886 2.318 10.581-.844 2.689-3.155 2.311-7.892-.844-10.581-3.036-2.588-5.864-5.23-8.403-7.851-2.884-2.976-7.635-3.053-10.613-.169s-3.053 7.636-.169 10.613c2.87 2.964 6.05 5.936 9.448 8.832z"/><path d="m166.059 135.036c-4.132-.097-7.595 3.154-7.708 7.297-.015.536-.022 1.072-.021 1.603 0 4.107.433 8.243 1.288 12.293.858 4.07 4.853 6.649 8.893 5.795 4.056-.856 6.651-4.837 5.795-8.893-.64-3.034-.964-6.127-.964-9.202 0-.396.005-.791.016-1.184.112-4.144-3.156-7.595-7.299-7.709z"/><path d="m175.635 111.067c3.357 2.431 8.05 1.68 10.481-1.678 2.136-2.949 4.559-5.93 7.201-8.857 2.777-3.078 2.535-7.823-.542-10.601-3.079-2.779-7.825-2.534-10.601.542-3.002 3.326-5.767 6.728-8.217 10.112-2.431 3.358-1.68 8.05 1.678 10.482z"/><path d="m255.766 451.332c-2.772 2.292-4.422 3.548-4.436 3.559-3.302 2.506-3.948 7.214-1.442 10.516 2.514 3.313 7.222 3.941 10.517 1.442.076-.058 1.887-1.434 4.928-3.95 3.194-2.642 3.642-7.373 1-10.567-2.64-3.193-7.372-3.642-10.567-1z"/><path d="m285.556 512h146.103c12.538 0 23.942-7.443 29.762-19.424 67.975-139.958 52.363-266.003-97.548-312.334-48.26-14.915-106.301-39.285-108.748-70.686-1.956-25.097 31.363-54.622 99.032-87.753 10.667-5.223 7.017-21.803-4.758-21.803-15.908 0-37.777 0-54.414 0-9.414 0-18.551 2.133-27.155 6.338-20.95 10.24-48.599 24.852-75.328 42.297-79.414 44.554-120.075 87.712-120.852 128.275-.532 27.768 17.722 53.189 54.254 75.557 33.095 20.263 49.879 42.991 49.885 67.552.018 65.503-117.369 137.46-155.944 161.106-13.903 8.523-8.052 30.875 7.916 30.875h222.795c4.143 0 7.5-3.358 7.5-7.5s-3.357-7.5-7.5-7.5h-165.749c127.73-83.969 206.073-189.65 75.708-269.476-81.27-49.761-47.463-106.441 31.447-160.495 28.656-19.595 59.611-36.049 82.455-47.215 6.536-3.194 13.456-4.814 20.568-4.814h19.907c-39.736 21.44-98.014 59.608-95.607 104.691.923 17.292 10.719 33.66 29.115 48.65 19.44 15.842 49.269 30.699 88.654 44.159 68.432 23.385 105.827 62.141 111.148 115.191.414 4.121 4.085 7.128 8.211 6.714 4.122-.413 7.128-4.089 6.715-8.211-5.959-59.409-46.745-102.437-121.223-127.889-68.903-23.547-106.126-51.008-107.643-79.415-.563-10.537 3.6-20.445 9.448-29.217-22.402 54.518 59.268 87.448 115.732 104.898 57.001 17.617 95.012 47.537 112.977 88.931 30.329 69.884-2.326 156.881-24.491 202.519-3.289 6.771-9.523 10.978-16.27 10.978h-24.286c25.94-39.387 49.401-87.489 55.149-134.139.507-4.111-2.415-7.854-6.526-8.361-4.106-.498-7.854 2.415-8.36 6.526-2.897 23.501-14.37 72.127-58.364 135.974h-103.715c-4.143 0-7.5 3.358-7.5 7.5s3.358 7.501 7.5 7.501zm-228.704-15h-29.09c-.086 0-.126-.009-.126-.009h-.003c-.162-.09-.577-.694-.6-1.594-.026-1.067.483-1.38.651-1.483 70.026-42.926 163.122-107.655 163.104-173.898-.008-30.135-19.203-57.166-57.053-80.341-48.178-29.498-63-63.713-27.255-107.149-21.254 43.936 1.534 79.343 42.84 105.691 2.987 1.905 3.91 2.404 7.019 4.386 122.093 77.821 23.506 178.774-99.487 254.397z"/></g></svg>