<svg xmlns="http://www.w3.org/2000/svg" width="135" height="46" viewBox="0 0 135 46"><defs><style>.a,.c{fill:#fff;}.b,.d{fill:#fed615;}.c{font-size:18px;font-family:BwModelicaSS02-Bold, Bw Modelica SS02;font-weight:700;}.d{font-family:BwModelica-Bold, Bw Modelica;}</style></defs><g transform="translate(-135 -2939)"><g transform="translate(247.517 2790.265)"><path class="a" d="M-85.712,156.789l-.106,32.527-2.045-2.028V156.8" transform="translate(-10.529 -2.158)"/><path class="a" d="M-95.793,153.876h-15.6l2.069-2.141,27.078.1-2.011,2.04h-11.53l.025-.012" transform="translate(-0.48)"/><g transform="translate(-112.517 155.248)"><path class="a" d="M-99.2,184.5a13.4,13.4,0,0,1-13.319-13.319A13.4,13.4,0,0,1-99.2,157.866v1.8a11.573,11.573,0,0,0-11.519,11.519A11.573,11.573,0,0,0-99.2,182.7Z" transform="translate(112.517 -157.866)"/></g><g transform="translate(-95.453 165.421)"><path class="b" d="M-82.733,201.937v-1.778A11.339,11.339,0,0,0-71.354,188.78,11.339,11.339,0,0,0-82.733,177.4v-1.778A13.134,13.134,0,0,1-69.576,188.78,13.134,13.134,0,0,1-82.733,201.937Z" transform="translate(82.733 -175.623)"/></g></g><text class="c" transform="translate(181 2957)"><tspan x="0" y="0">Team</tspan><tspan class="d"><tspan x="0" y="23.6">CoDesign</tspan></tspan></text></g></svg>