<svg xmlns="http://www.w3.org/2000/svg" xmlns:xlink="http://www.w3.org/1999/xlink" width="670.5" height="451.5" viewBox="0 0 670.5 451.5"><defs><style>.a,.i,.j,.l,.m,.n,.r{fill:#090a0f;}.b{fill:#fed615;}.c,.e,.f,.g,.k,.p{fill:#fff;}.c,.d,.e,.f,.h,.k{stroke:#090a0f;}.c,.d,.e,.g,.h,.k{stroke-miterlimit:10;}.c,.d{stroke-width:2px;}.d,.h{fill:none;}.g{stroke:#231f20;}.i{opacity:0.24;}.j{opacity:0.45;}.k{stroke-width:0.25px;}.l{opacity:0.3;}.m,.u{opacity:0.12;}.n{opacity:0.1;}.o{fill:#9d9d9f;}.q{fill:url(#a);}.r,.s{opacity:0.2;}.t{fill:#cdcecf;}.v{fill:#e5e6e6;}.w{opacity:0.4;}</style><linearGradient id="a" y1="0.5" x2="1" y2="0.5" gradientUnits="objectBoundingBox"><stop offset="0" stop-color="#090a0f"/><stop offset="1" stop-color="#090a0f"/></linearGradient></defs><g transform="translate(-655 -230.5)"><g transform="translate(741.07 436.156)"><g transform="translate(21.667 1.711)"><path class="a" d="M244.077,195.192c-27.433,10.881-21.53,52.493-22.637,75.946-1.875,39.768-2.889,79.537-2.628,119.353a1.427,1.427,0,0,0,2.852,0q-.325-49.66,1.714-99.286c.627-14.947,1.38-29.889,2.085-44.834.821-17.349.023-40.754,19.372-48.429,1.686-.669.951-3.429-.758-2.749Z" transform="translate(-218.771 -195.085)"/></g><path class="b" d="M227.595,225.081a34.844,34.844,0,0,0-4.456-7.57c-2.873-3.438-6.877-5.7-10.788-7.894l-.575.308c-2.259,5.875-3.432,12.318-2.255,18.5s4.949,12.052,10.622,14.78c4.162,2,9.079,2.261,12.963,4.759C234.2,240.078,231.006,232.275,227.595,225.081Z" transform="translate(-207.463 -174.751)"/><g transform="translate(25.45 0)"><path class="b" d="M243.515,196.81a1.411,1.411,0,0,0-2.095-.947c-8.926,2.649-15.967,10.217-19.023,19.01-3.007,8.654-2.391,18.308.641,26.959,3.409-5.385,10.336-8.075,15.187-12.54C246.833,221.367,248.156,207.552,243.515,196.81Z" transform="translate(-220.429 -195.711)"/></g><path class="c" d="M0,0H47.281a0,0,0,0,1,0,0V41.87a5.822,5.822,0,0,1-5.822,5.822H5.822A5.822,5.822,0,0,1,0,41.87V0A0,0,0,0,1,0,0Z" transform="translate(0 197.151)"/><g transform="translate(21.85 93.337)"><path class="a" d="M221.883,282.432c-.429-11.02-.929-24.071,7.256-32.709,6.391-6.742,22.779-11.39,31.963-11.627,1.832-.048,1.839-2.9,0-2.852-7.005.183-14.314,2.959-20.91,5.2-4.856,1.65-9.449,3.473-13.07,7.265-8.792,9.211-8.55,22.9-8.091,34.726.071,1.83,2.925,1.839,2.852,0Z" transform="translate(-218.852 -235.244)"/></g><path class="b" d="M258.519,234.851a.892.892,0,0,0-.7-.2q-5.172.041-10.346.087a36.383,36.383,0,0,0-8.894.808c-5.832,1.515-10.551,5.823-14.24,10.584l-1.075.164c5.38,1.718,10.665,3.97,16.28,4.554s11.845-.84,15.363-5.257c2.241-2.811,3.115-6.457,3.706-10A.882.882,0,0,0,258.519,234.851Z" transform="translate(-191.343 -142.661)"/></g><g transform="translate(655 527.014)"><path class="d" d="M193.014,262.343c14.43,12.615,16.995,34.918,14.252,53.248" transform="translate(-144.049 -198.033)"/><path class="b" d="M195.4,255.468c-6.22-5.054-13.458-9.993-21.458-9.505a2.555,2.555,0,0,0-2.216,1c-.874,1.659,1.926,2.907,2.469,4.7.317,1.045-.2,2.136-.413,3.208a10.462,10.462,0,0,0,.968,5.83c7.317,18.356,28.033,30.341,47.592,27.534l2.437-3.822A216.217,216.217,0,0,0,195.4,255.468Z" transform="translate(-171.554 -219.069)"/><path class="d" d="M199.338,260.183c3.471,17.116-1.161,36.1,1.162,53.412" transform="translate(-135.943 -200.801)"/><path class="d" d="M215.361,260.691c-3.108,3.984-4.178,8.171-7.286,12.156-2.371,3.039-4.411,9.745-5.465,13.452a30.151,30.151,0,0,0-.846,6.9q-.486,10.914-.974,21.828" transform="translate(-134.082 -200.151)"/><path class="b" d="M215.71,247.084c-.29-4.417-.618-8.976-2.613-12.928a70.479,70.479,0,0,0-13.615,61.793l4.116,3.824c6.79-6.4,10.462-15.547,11.9-24.765S216.323,256.394,215.71,247.084Z" transform="translate(-138.57 -234.157)"/><path class="b" d="M243.954,251.055a2.165,2.165,0,0,0-1.2-.561,31.38,31.38,0,0,0-38.226,30.64l2.775,3.349c5.848,1.595,11.966-1.387,16.819-5.02a59.847,59.847,0,0,0,19.828-26.154C244.235,252.57,244.477,251.651,243.954,251.055Z" transform="translate(-129.294 -214.152)"/><path class="c" d="M236.933,330.193H202.269a3.139,3.139,0,0,1-3.035-2.337l-11.8-44.541a3.138,3.138,0,0,1,3.032-3.943h58.267a3.137,3.137,0,0,1,3.032,3.943l-11.8,44.541A3.139,3.139,0,0,1,236.933,330.193Z" transform="translate(-151.337 -176.208)"/></g><g transform="translate(802.987 391.24)"><g transform="translate(53.248)"><path class="a" d="M0,0,13.846,0l0,23.215L0,23.215Z" transform="matrix(0.699, -0.715, 0.715, 0.699, 189.856, 251.977)"/><rect class="a" width="13.846" height="23.21" transform="translate(121.187 244.011) rotate(17.062)"/><g transform="translate(32.282 178.009)"><path class="e" d="M281.254,260.115l-12.7,90.661,4.472.118,23.694-93.624h-15.2Z" transform="translate(-268.551 -246.744)"/><path class="e" d="M323.974,260.115l12.7,90.661-4.471.118-23.694-93.624h15.2Z" transform="translate(-217.334 -246.744)"/><path class="f" d="M4.794,0H110.073a4.794,4.794,0,0,1,4.794,4.794v8.578a0,0,0,0,1,0,0H0a0,0,0,0,1,0,0V4.794A4.794,4.794,0,0,1,4.794,0Z" transform="translate(2.172)"/></g><path class="e" d="M271.589,256.719,357.608,296.3,431.39,362.7l13.8-13.717L381.7,278.174l-63.93-45.442Z" transform="translate(-232.376 -100.165)"/><path class="e" d="M269.328,234.748v16.19a25.391,25.391,0,0,0,25.393,25.388H374.9c-14.4,17.388-22.644,73.464-22.644,73.464l18.058,4.929L402.2,273.142a23.006,23.006,0,0,0-21.506-31.2H323.3l.413-7.2Z" transform="translate(-235.274 -97.584)"/><path class="e" d="M306.572,200.705l.194-.021,14.963,2.822a29.668,29.668,0,0,1,21.127,16.051L355.1,244.432l-12.26,27.559-1.248,12.388s-59.41,26.32-73.995,14.393l-.678-63.336,22.425-32.782" transform="translate(-238.358 -141.218)"/><path class="g" d="M284.3,200.694" transform="translate(-216.085 -141.206)"/><path class="g" d="M276.75,201.548" transform="translate(-225.761 -140.113)"/><path class="e" d="M275.271,192.644s4.743,21.311,3.744,33.7h17.4s-1.8-21.152,1.8-24.635Z" transform="translate(-227.657 -151.518)"/><path class="e" d="M308.193,193.254c-.222-3.894-1.837-7.552-3.427-11.113l-.648.315A15.841,15.841,0,0,0,289.2,179.02a21.178,21.178,0,0,0-12.233,9.717,25.434,25.434,0,0,0-1.9,21.909,24.857,24.857,0,0,0,16.264,14.749c2.923.805,6.33.963,8.709-.917a12.017,12.017,0,0,0,2.354-2.8c1.759-2.607,3.521-5.328,4.112-8.417.47-2.445.176-4.963.3-7.45C307.015,201.6,308.43,197.464,308.193,193.254Z" transform="translate(-230.024 -169.714)"/><path class="a" d="M305.11,181.922a49.238,49.238,0,0,0-6.434-4.7,23.931,23.931,0,0,0-5.864-2.012c-5.1-1.172-8.548-.839-12.447,2.952a16.347,16.347,0,0,0-5.018,10.953,10.423,10.423,0,0,1-.272,2.785,10.076,10.076,0,0,1-1.739,2.79,18.637,18.637,0,0,0-2.161,17.187c.908,2.5,2.371,5.333,4.732,6.688,1.9,1.09,6.827,1.916,7.758,4.206a23.564,23.564,0,0,1-1.627-11.026,5.922,5.922,0,0,1,.8-2.776,2.426,2.426,0,0,1,2.492-1.131,5.29,5.29,0,0,1,1.732,1.134,5.852,5.852,0,0,0,3.484,1.193,2.448,2.448,0,0,0,1.41-.338,2.6,2.6,0,0,0,.915-1.708c.623-3.187-.447-6.82-1.479-9.818-.872-2.527-1.036-5.835,2.33-5.623,3.025.194,6.122,2.046,9.353,2.224a27.016,27.016,0,0,0,18.434-5.791A38.365,38.365,0,0,1,305.11,181.922Z" transform="translate(-234.397 -174.614)"/><path class="a" d="M282.17,215.2l5.052-15.044,2.986.511,5.122,22.985Z" transform="translate(-218.814 -140.846)"/><path class="e" d="M303.369,200.938l-15.185,2.949a22.67,22.67,0,0,0-16.591,13.769l-16.962,41.408a8.881,8.881,0,0,0,7.994,12.348l60.661-3.111,2.8-8.815-6.678,2.329-37.967-3.3a4.126,4.126,0,0,1-2.9-6.5l25.417-36.018S308.512,203.119,303.369,200.938Z" transform="translate(-253.945 -140.013)"/><path class="e" d="M299.749,201.125l-15.268,2.919a22.722,22.722,0,0,0-16.68,13.632l-10.613,25.386c9.209-.972,17.592,8.619,24.156,3.4l18.992-30.437S304.917,203.285,299.749,201.125Z" transform="translate(-250.836 -140.2)"/><path class="a" d="M279.062,200.231,291.81,215.4l-11.083,10.586-6.077-24.8Z" transform="translate(-228.454 -140.186)"/><g transform="translate(107.437 262.094)"><path class="e" d="M305.916,289.518l-4.427,11.213v8.853H355.8v-2.45a4.743,4.743,0,0,0-3.646-4.615l-8.75-2.082-18.3-10.919h-3.247l-1.476,3.246h-9.446l-.885-3.246Z" transform="translate(-301.489 -289.518)"/><path class="e" d="M301.489,296.245v4.721H355.8v-2.45a4.74,4.74,0,0,0-.579-2.271Z" transform="translate(-301.489 -280.902)"/></g><g transform="translate(201.892 236.112)"><path class="e" d="M342.885,308.513l6.346,10.251,7.1,5.292L388.8,280.532l-1.965-1.464a4.747,4.747,0,0,0-5.88.164l-6.9,5.766-19.694,8.141-1.942,2.6,1.721,3.123-5.647,7.571-3.131-1.232Z" transform="translate(-342.885 -278.128)"/><path class="e" d="M347.117,321.207l3.788,2.822,32.467-43.523-1.965-1.465a4.732,4.732,0,0,0-2.167-.892Z" transform="translate(-337.461 -278.102)"/></g></g><g transform="translate(0 129.889)"><path class="e" d="M266.635,234.542,239.579,387.608h4.694l38.391-151.352Z" transform="translate(-220.212 -227.737)"/><path class="e" d="M371.807,234.542l27.056,153.067h-4.695L355.778,236.256Z" transform="translate(-71.273 -227.737)"/><rect class="e" width="338.634" height="10.879" rx="1.294"/></g><g transform="translate(80.301 78.908)"><rect class="a" width="38.89" height="5.099" transform="translate(0 45.863)"/><path class="e" d="M357.441,259.162H277.388l18.868-48.542a3.046,3.046,0,0,1,2.841-1.934h73.524a3.028,3.028,0,0,1,2.841,4.116Z" transform="translate(-252.099 -208.686)"/><path class="h" d="M307.023,223.617a4.99,4.99,0,1,1-4.992-4.989A4.99,4.99,0,0,1,307.023,223.617Z" transform="translate(-226.906 -196.996)"/></g><g transform="translate(200.039 102.793)"><g transform="translate(0 2.313)"><path class="e" d="M329.85,234.536h-4.216a6.951,6.951,0,1,1,0-13.9h2.708v2.947h-2.708a4.005,4.005,0,1,0,0,8.011h4.216Z" transform="translate(-318.679 -220.633)"/></g><g transform="translate(8.395)"><path class="e" d="M348,219.619H322.358v7.792a22.074,22.074,0,0,0,5.837,14.954h0v3.889h13.967v-3.889h0A22.084,22.084,0,0,0,348,227.411Z" transform="translate(-322.358 -219.619)"/></g></g></g><g transform="translate(845.756 264.173)"><rect class="e" width="146.122" height="76.579"/><rect class="i" width="8.495" height="4.31" transform="translate(7.315 6.198)"/><rect class="a" width="58.212" height="4.31" transform="translate(76.885 17.292)"/><rect class="a" width="58.212" height="4.31" transform="translate(76.885 29.449)"/><rect class="a" width="58.212" height="4.31" transform="translate(76.885 41.607)"/><rect class="a" width="33.354" height="4.31" transform="translate(76.885 53.764)"/><rect class="j" width="8.495" height="4.31" transform="translate(7.315 18.102)"/><rect class="j" width="8.495" height="4.31" transform="translate(7.315 30.006)"/><rect class="i" width="8.495" height="4.31" transform="translate(7.315 41.909)"/><rect class="i" width="8.495" height="4.31" transform="translate(7.315 53.813)"/><rect class="j" width="8.495" height="4.31" transform="translate(7.315 65.717)"/><g transform="translate(25.628 17.879)"><path class="k" d="M251.966,122.9v20l.009.009,14.108,14.146a19.933,19.933,0,0,0,5.875-14.1l0-.057A20,20,0,0,0,251.966,122.9Z" transform="translate(-231 -122.902)"/><path class="l" d="M248.651,128.741a19.922,19.922,0,0,0-5.873,14.118l19.993.048V122.9A19.93,19.93,0,0,0,248.651,128.741Z" transform="translate(-242.776 -122.902)"/><path class="m" d="M262.781,132.123h-.009l-19.992-.048,0,.037a19.994,19.994,0,0,0,34.115,14.157Z" transform="translate(-242.777 -111.146)"/></g></g><g transform="translate(993.572 342.543)"><rect class="e" width="163.463" height="78.877" rx="2.662"/><rect class="n" width="5.231" height="53.088" transform="translate(14.316 16.635)"/><rect class="i" width="5.231" height="53.088" transform="translate(23.64 16.635)"/><rect class="j" width="5.231" height="53.088" transform="translate(32.965 16.635)"/><rect class="i" width="5.231" height="53.088" transform="translate(42.289 16.635)"/><rect class="n" width="5.231" height="53.088" transform="translate(51.614 16.635)"/><rect class="i" width="5.231" height="53.088" transform="translate(60.939 16.635)"/><rect class="n" width="5.231" height="53.088" transform="translate(70.264 16.635)"/><rect class="i" width="5.231" height="53.088" transform="translate(79.588 16.635)"/><rect class="n" width="5.231" height="53.088" transform="translate(88.913 16.635)"/><rect class="n" width="5.231" height="53.088" transform="translate(98.238 16.635)"/><path class="n" d="M0,0H5.231V53.088H0Z" transform="translate(107.562 16.635)"/><rect class="a" width="5.231" height="13.272" transform="translate(14.316 56.451)"/><rect class="a" width="5.231" height="26.544" transform="translate(23.64 43.179)"/><rect class="a" width="5.231" height="26.544" transform="translate(32.965 43.179)"/><rect class="a" width="5.231" height="43.405" transform="translate(42.289 26.317)"/><rect class="a" width="5.231" height="34.521" transform="translate(51.614 35.202)"/><rect class="a" width="5.231" height="12.029" transform="translate(60.939 57.694)"/><rect class="a" width="5.231" height="34.521" transform="translate(70.264 35.202)"/><rect class="a" width="5.231" height="15.952" transform="translate(79.588 53.771)"/><rect class="a" width="5.231" height="26.544" transform="translate(88.913 43.179)"/><rect class="a" width="5.231" height="36.613" transform="translate(98.238 33.11)"/><rect class="a" width="5.231" height="41.582" transform="translate(107.562 28.141)"/><rect class="o" width="34" height="5.23" transform="translate(119.001 19.511)"/><rect class="m" width="34" height="2.615" transform="translate(119.001 34.156)"/><rect class="m" width="34" height="2.615" transform="translate(119.001 40.564)"/><rect class="a" width="34" height="2.615" transform="translate(119.001 46.971)"/><rect class="j" width="17" height="2.615" transform="translate(119.001 53.378)"/></g><g transform="translate(1005.319 238.609)"><rect class="e" width="166.691" height="90.02" rx="4"/><path class="a" d="M4,0H162.691a4,4,0,0,1,4,4V20.065a0,0,0,0,1,0,0H0a0,0,0,0,1,0,0V4A4,4,0,0,1,4,0Z"/><path class="a" d="M315.186,159.864H461.1c-.224,0,.349-32.821-.078-36.122-5.023,2.64-8.851,7.7-14.181,10.331-4.285,2.12-9.471,3.413-14.263,2.606-4.5-.758-8.156-4.146-12.773-4.456-6-.4-10.056,4.481-14.338,7.833-6.013,4.707-13.638,10.413-21.382,11.6-5,.76-9.029-1.474-12.135-5.234-4.022-4.871-6.079-9.3-12.9-10.235a21.37,21.37,0,0,0-15.534,3.913c-5.227,4.075-8.346,10.769-14.35,13.58a13.629,13.629,0,0,1-6.861,1.207c-1.531-.123-5.449-2.2-6.8-1.018C314.5,154.735,315.186,158.53,315.186,159.864Z" transform="translate(-303.427 -82.57)"/><path class="p" d="M319.585,112.192a2.2,2.2,0,1,1-2.2-2.2A2.2,2.2,0,0,1,319.585,112.192Z" transform="translate(-303.128 -102.284)"/><path class="p" d="M324.06,112.192a2.2,2.2,0,1,1-2.2-2.2A2.2,2.2,0,0,1,324.06,112.192Z" transform="translate(-297.391 -102.284)"/><path class="p" d="M328.537,112.192a2.2,2.2,0,1,1-2.2-2.2A2.2,2.2,0,0,1,328.537,112.192Z" transform="translate(-291.654 -102.284)"/></g><g transform="translate(1188.963 503.435)"><path class="e" d="M475.215,189.745v91.244h-68.57V189.745Z" transform="translate(-406.644 -189.745)"/><rect class="f" width="11.344" height="11.344" transform="translate(5.258 24.386)"/><path class="j" d="M459.067,203.269H416.054v-2.835h43.012Z" transform="translate(-394.582 -176.048)"/><path class="j" d="M433.307,206.361H416.054v-2.835h17.252Z" transform="translate(-394.582 -172.085)"/><path class="j" d="M459.067,213.053H416.054v-2.835h43.012Z" transform="translate(-394.582 -163.508)"/><path class="j" d="M433.307,216.144H416.054v-2.836h17.252Z" transform="translate(-394.582 -159.546)"/><path class="j" d="M459.067,222.836H416.054V220h43.012Z" transform="translate(-394.582 -150.97)"/><path class="j" d="M433.306,225.929H416.054v-2.836h17.252v2.836Z" transform="translate(-394.582 -147.007)"/><rect class="f" width="11.344" height="11.343" transform="translate(5.258 45.982)"/><rect class="f" width="11.344" height="11.344" transform="translate(5.258 67.578)"/><g transform="translate(5.382 20.375)"><path class="a" d="M414.844,212.8,409,206.958l2.016-2.016,3.824,3.826,10.093-10.093,2.016,2.015Z" transform="translate(-409.003 -198.675)"/></g><g transform="translate(5.382 41.345)"><path class="a" d="M414.844,221.991,409,216.149l2.016-2.016,3.824,3.825,10.093-10.093,2.016,2.016Z" transform="translate(-409.003 -207.866)"/></g><g transform="translate(5.382 62.315)"><path class="a" d="M414.844,231.181,409,225.34l2.016-2.016,3.824,3.825,10.093-10.092,2.016,2.016Z" transform="translate(-409.003 -217.057)"/></g></g><g transform="translate(1182.225 339.117)"><rect class="e" width="142.775" height="102.79"/><rect class="q" width="142.775" height="11.042"/><rect class="p" width="5.981" height="5.034" transform="translate(7.144 3.004)"/><rect class="n" width="27.593" height="27.538" transform="translate(37.853 44.761) rotate(180)"/><rect class="n" width="27.593" height="27.538" transform="translate(75.533 44.761) rotate(180)"/><rect class="r" width="46.635" height="27.538" transform="translate(132.255 44.761) rotate(180)"/><rect class="n" width="55.583" height="4.969" transform="translate(10.061 52.367)"/><rect class="n" width="122.776" height="2.484" transform="translate(9.478 65.706)"/><rect class="i" width="122.776" height="2.484" transform="translate(9.478 74.787)"/><rect class="n" width="122.776" height="2.484" transform="translate(10 83.868)"/><rect class="r" width="61.415" height="2.484" transform="translate(10.521 92.95)"/></g><g transform="translate(1248.53 453.558)"><rect class="e" width="51.344" height="63.906" rx="0.604"/><rect class="a" width="42.965" height="3.614" transform="translate(4.189 33.459)"/><rect class="s" width="42.965" height="3.614" transform="translate(4.189 41.923)"/><rect class="s" width="42.965" height="3.614" transform="translate(4.189 50.387)"/><path class="r" d="M457.243,186.289l-5.9-2.01v-1.734l.327-.208a2.091,2.091,0,0,0,1.118-1.7l.192-2.38a1.2,1.2,0,0,0,.812-.867l.043-.18a.794.794,0,0,0-.694-.977l.078-.961a4.465,4.465,0,0,0-8.931,0l.075.951h-.078a.8.8,0,0,0-.776.986l.043.18a1.209,1.209,0,0,0,.976.908l.187,2.339a2.094,2.094,0,0,0,1.12,1.7l.283.185v1.757l-5.9,2.01a1.066,1.066,0,0,0-.721,1.008v6.847h18.471V187.3A1.065,1.065,0,0,0,457.243,186.289Z" transform="translate(-423.058 -167.223)"/></g><g transform="translate(1197.534 231)"><g transform="translate(0.865 10.013)"><path class="t" d="M397.438,127.319l31.988-26.079a9.4,9.4,0,0,1,11.1,0l30.245,25.021Z" transform="translate(-397.438 -99.427)"/></g><g transform="translate(0 36.196)"><path class="t" d="M3.014,0H73.6A2.794,2.794,0,0,1,76.4,2.794V45.44a1.882,1.882,0,0,1-1.882,1.882H1.866A1.866,1.866,0,0,1,0,45.456V3.014A3.014,3.014,0,0,1,3.014,0Z" transform="translate(76.396 47.322) rotate(180)"/></g><g transform="translate(11.082)"><g transform="translate(0)"><path class="e" d="M412.659,95.48l-11.191,10.875v59.7h53V99.973a4.492,4.492,0,0,0-4.49-4.493Z" transform="translate(-401.468 -95.48)"/></g><g class="u" transform="translate(0 9.745)"><path class="a" d="M412,99.321l-10.528,12.047V100.451Z" transform="translate(-401.468 -99.321)"/></g><g transform="translate(0)"><path class="a" d="M412.659,95.48l-11.191,10.875h8.207a2.987,2.987,0,0,0,2.984-2.988Z" transform="translate(-401.468 -95.48)"/></g></g><g transform="translate(0 37.905)"><path class="v" d="M399.31,156.222s29.5-20.594,29.5-22.461l-30.852-23.339a17.633,17.633,0,0,0-.864,6.106v37.6C397.1,155.859,398.362,155.973,399.31,156.222Z" transform="translate(-397.097 -110.422)"/></g><g transform="translate(45.886 38.783)"><path class="v" d="M444.055,155.69S415.2,134.657,415.2,132.79l29.954-22.022s1.118,1.243,1.118,5.228v37.6C446.268,155.327,445,155.441,444.055,155.69Z" transform="translate(-415.196 -110.768)"/></g><g transform="translate(1.912 56.412)"><path class="t" d="M397.851,145.055,428.9,119.51a9.3,9.3,0,0,1,10.975,0l31.047,25.546Z" transform="translate(-397.851 -117.717)"/></g><g transform="translate(25.561 12.337)"><path class="a" d="M426.363,126.523a14.5,14.5,0,0,1-7.1,1.6c-6.544,0-12.086-4.79-12.086-12.451,0-8.219,5.7-15.325,14.558-15.325,6.939,0,11.606,4.871,11.606,11.535,0,5.987-3.349,9.5-7.1,9.5-1.594,0-3.07-1.081-2.953-3.514h-.157c-1.4,2.354-3.23,3.514-5.623,3.514-2.315,0-4.31-1.877-4.31-5.033a9.419,9.419,0,0,1,9.454-9.455,10.516,10.516,0,0,1,4.269.837l-1.359,7.222c-.6,3.034-.119,4.432,1.2,4.47,2.036.04,4.307-2.674,4.307-7.3,0-5.786-3.468-9.939-9.652-9.939-6.5,0-11.966,5.152-11.966,13.252,0,6.664,4.35,10.776,10.252,10.776a12.463,12.463,0,0,0,6.024-1.4Zm-2.193-17.238a6.842,6.842,0,0,0-2-.279c-3.509,0-6.341,3.311-6.341,7.182,0,1.758.877,3.034,2.632,3.034,2.315,0,4.427-2.953,4.865-5.429Z" transform="translate(-407.179 -100.343)"/></g></g><g transform="translate(1140.658 429.853)"><rect class="p" width="63.547" height="63.543" rx="9" transform="translate(0 0.504)"/><path class="a" d="M415.118,184.315h-44.9a9.463,9.463,0,0,0-9.325,9.592v10.026h63.545V193.907A9.461,9.461,0,0,0,415.118,184.315Z" transform="translate(-360.896 -184.315)"/><g class="w" transform="translate(15.725 30.397)"><path class="a" d="M376.627,205.3a3.67,3.67,0,0,0,.764-2.1,2.328,2.328,0,0,0-.664-1.693,2.285,2.285,0,0,0-1.707-.68q-1.91,0-3.617,2.72l-3.617-2.14a11.155,11.155,0,0,1,3.11-3.329,7.609,7.609,0,0,1,4.31-1.127,6.942,6.942,0,0,1,4.6,1.663,5.6,5.6,0,0,1,1.983,4.527,6.074,6.074,0,0,1-.8,3,19.5,19.5,0,0,1-2.936,3.66l-3.646,3.79H382.4v4.05H368.135v-3.356l5.93-6.074A26.014,26.014,0,0,0,376.627,205.3Z" transform="translate(-367.788 -196.958)"/><path class="a" d="M388.72,197.16v3.906h-7.986v3.386a7.416,7.416,0,0,1,2.056-.26,7.613,7.613,0,0,1,5.036,1.764,5.889,5.889,0,0,1,2.111,4.759,6.351,6.351,0,0,1-2.184,4.949,7.814,7.814,0,0,1-5.4,1.953,8.866,8.866,0,0,1-6.859-3.039l2.373-3.3q.26.26.7.634a9.285,9.285,0,0,0,1.591,1,4.848,4.848,0,0,0,2.316.623,3.255,3.255,0,0,0,2.054-.7,2.435,2.435,0,0,0,.9-2.053,2.49,2.49,0,0,0-.969-2.1,4.027,4.027,0,0,0-2.5-.735,7.7,7.7,0,0,0-3.559,1.1l-1.9-.05.021-11.841Z" transform="translate(-357.908 -196.699)"/></g></g></g></svg>