<svg xmlns="http://www.w3.org/2000/svg" width="62" height="62" viewBox="0 0 62 62"><defs><style>.a{fill:#161a1e;}.b{fill:#fff;}.c{fill:#fed615;}</style></defs><g transform="translate(-135 -19)"><rect class="a" width="62" height="62" transform="translate(135 19)"/><g transform="translate(103.187 -3.952)"><path class="b" d="M72.35,42.2,72.261,68.96l-1.708-1.669V42.213" transform="translate(-9.047 -1.832)"/><path class="b" d="M63.677,39.741H50.759l1.714-1.789,22.424.085-1.665,1.7H63.683l.021-.01" transform="translate(-0.408 0)"/><g transform="translate(49.813 40.887)"><path class="b" d="M60.94,65.364a11.127,11.127,0,0,1,0-22.254v1.5a9.623,9.623,0,0,0,0,19.247Z" transform="translate(-49.813 -43.11)"/></g><g transform="translate(63.856 48.968)"><path class="c" d="M74.869,80.031V78.545a9.506,9.506,0,0,0,0-19.013V58.047a10.992,10.992,0,0,1,0,21.984Z" transform="translate(-74.869 -58.047)"/></g></g></g></svg>