<?xml version="1.0" encoding="iso-8859-1"?>
<!-- Generator: Adobe Illustrator 19.0.0, SVG Export Plug-In . SVG Version: 6.00 Build 0)  -->
<svg version="1.1" id="Capa_1" xmlns="http://www.w3.org/2000/svg" xmlns:xlink="http://www.w3.org/1999/xlink" x="0px" y="0px"
	 viewBox="0 0 512 512" style="enable-background:new 0 0 512 512;" xml:space="preserve">
<path style="fill:#FF9811;" d="M161.496,360.675l-64.398,6.357L64.152,67.878c-0.842-7.639,5.546-14.123,13.198-13.396l44.496,4.229
	c5.772,0.549,10.348,5.108,10.917,10.878L161.496,360.675z"/>
<g>
	<path style="fill:#FFA733;" d="M348.01,369.339l63.878,10.349L462.75,86.766c1.637-9.432-5.801-17.987-15.37-17.676l-38.566,1.255
		c-7.219,0.235-13.261,5.548-14.416,12.678L348.01,369.339z"/>
	<path style="fill:#FFA733;" d="M152.508,305.167l-63.79-10.881l47.704-276.57c0.785-4.546,4.627-7.933,9.236-8.14l45.541-2.042
		c6.256-0.28,11.172,5.287,10.118,11.46L152.508,305.167z"/>
</g>
<path style="fill:#FF9811;" d="M322.56,367.872l-63.79-10.881L298.812,77.41c0.695-4.03,4.103-7.033,8.188-7.217l55.634-0.015
	c5.545-0.249,9.904,4.687,8.971,10.16L322.56,367.872z"/>
<path style="fill:#FFA733;" d="M285.937,366.09h-52.503c-5.462,0-9.89-4.428-9.89-9.89V48.153c0-6.098,5.465-10.742,11.483-9.76
	l53.921,8.803c4.801,0.784,8.318,4.942,8.295,9.807l-1.419,299.244C295.801,361.691,291.38,366.09,285.937,366.09z"/>
<g>
	<path style="fill:#FFB655;" d="M237.089,393.178h-72.235V73.847c0-5.368,4.81-9.456,10.107-8.591l56.295,9.191
		c4.226,0.69,7.322,4.35,7.302,8.632L237.089,393.178z"/>
	<path style="fill:#FFB655;" d="M416.171,343.517h-72.234V23.652c0-5.087,4.559-8.963,9.58-8.143l57.206,9.34
		c4.005,0.654,6.94,4.124,6.921,8.182L416.171,343.517z"/>
</g>
<path style="fill:#C70024;" d="M465.077,222.113l-33.169,125.916l-16.254,61.704l-13.745,52.182l-7.124,27.039
	c-2.408,9.15-10.685,15.521-20.146,15.521H137.375c-9.461,0-17.739-6.371-20.146-15.521l-7.124-27.039L96.36,409.732l-16.254-61.704
	L46.936,222.113c-3.471-13.204,6.491-26.136,20.146-26.136h94.171c1.645,0,2.96,1.334,2.95,2.98v0.03
	c0,50.697,41.106,91.793,91.803,91.793s91.803-41.096,91.803-91.793v-0.03c-0.01-1.645,1.304-2.98,2.95-2.98h94.171
	C458.585,195.977,468.548,208.909,465.077,222.113z"/>
<path style="fill:#A5001E;" d="M401.908,461.914l-7.124,27.039c-2.408,9.15-10.685,15.521-20.146,15.521H137.375
	c-9.461,0-17.739-6.371-20.146-15.521l-7.124-27.039L96.36,409.732l-16.254-61.704L46.937,222.113
	c-3.471-13.204,6.491-26.136,20.146-26.136h39.129c-13.655,0-23.618,12.933-20.146,26.136l33.169,125.916l16.254,61.704l9.612,36.5
	c2.438,9.241,10.796,15.682,20.347,15.682H401.908z"/>
<polygon style="fill:#FF9811;" points="431.907,348.028 415.654,409.732 96.36,409.732 80.106,348.028 "/>
<polygon style="fill:#CC7400;" points="119.235,348.028 80.106,348.028 96.36,409.732 135.489,409.732 "/>
<path d="M409.851,402.207c0.236-0.897,0.497-1.886,0.78-2.96C410.336,400.365,410.078,401.344,409.851,402.207z"/>
<path d="M452.545,189.495l11.297-65.045c0.712-4.094-2.027-7.986-6.13-8.699c-4.093-0.712-7.986,2.027-8.699,6.12l-11.558,66.58
	h-13.023l0.522-111.107l22.685-0.732h0.251c4.164,0,7.565,3.381,7.565,7.535c0,0.441-0.04,0.893-0.12,1.334l-1.174,6.742
	c-0.715,4.168,2.137,8.127,6.354,8.734c4.076,0.587,7.821-2.405,8.527-6.462l1.122-6.445c0.221-1.284,0.341-2.599,0.341-3.903
	c0-12.451-10.143-22.585-22.615-22.585c-0.261,0-0.512,0-0.753,0.01l-22.113,0.722l0.14-29.226
	c0.04-7.806-5.528-14.387-13.234-15.652l-57.199-9.331c-4.575-0.752-9.23,0.542-12.762,3.542c-3.532,3.01-5.558,7.384-5.558,12.02
	V63.82l-31.685,1.445l0.04-8.307c0-9.421-6.083-13.565-11.608-10.986c-3.772,1.746-5.408,6.221-3.652,9.993
	c0.102,0.227,0.263-0.972,0.386,6.633c0.174,10.722,0.133,38.943,0,113.325c-0.048,27.027,0.192,60.149,0,100.741
	c-14.127,5.964-30.405,7.75-44.763,5.889V83.114c0.04-8.026-4.736-14.799-12.662-16.093l-1.395-0.231V48.149
	c0-1.455,1.214-2.358,2.338-2.358c0.13,0,0.261,0.01,0.401,0.03l33.731,5.508c4.104,0.662,7.966-2.117,8.638-6.21
	c0.672-4.104-2.107-7.976-6.211-8.649l-33.731-5.498c-0.933-0.161-1.886-0.231-2.829-0.231c-9.592,0-17.387,7.806-17.387,17.407
	v16.183l-14.398-2.348l7.113-41.728c0.883-5.197-0.612-10.434-4.104-14.387c-3.481-3.953-8.508-6.1-13.775-5.849l-45.54,2.037
	c-8.077,0.371-14.939,6.411-16.314,14.387l-6.01,34.825c-0.15-0.02-0.291-0.04-0.441-0.05c-46.77-4.41-44.695-4.314-46.383-4.314
	c-11.662,0-20.796,10.169-19.504,21.792l2.579,23.407c0.462,4.134,4.184,7.113,8.307,6.652c4.134-0.451,7.113-4.174,6.652-8.297
	l-2.579-23.397c-0.02-0.191-0.03-0.361-0.03-0.532c0-2.803,2.529-4.89,5.037-4.555l43.805,4.154l-21.1,122.324H85.002l-7.495-68.075
	c-0.462-4.134-4.184-7.113-8.307-6.662c-4.134,0.462-7.113,4.174-6.652,8.307l7.314,66.429h-2.779
	c-18.412,0-32.179,17.387-27.421,35.577l5.428,20.618c1.064,4.013,5.177,6.411,9.2,5.358c4.013-1.053,6.411-5.177,5.358-9.19
	l-5.428-20.618c-2.258-8.51,4.193-16.695,12.862-16.695c10.419,0,80.275,0,89.706,0c0.1,2.278,0.281,4.535,0.542,6.772
	c4.395,39.554,32.994,73.829,72.7,84.579c59.621,17.007,122.269-27.242,125.193-91.352c98.104,0,91.401-0.375,94.723,0.983
	c6.08,2.469,9.606,9.084,7.846,15.712c-13.982,53.085-24.256,92.088-31.689,120.307h-96.038c-4.121,0-7.713,3.174-7.837,7.293
	c-0.128,4.261,3.289,7.757,7.522,7.757h92.389l-12.287,46.654h-0.003H102.159l-12.29-46.654h203.446
	c4.121,0,7.713-3.174,7.837-7.293c0.128-4.261-3.289-7.757-7.522-7.757H85.905c-9.018-34.238-16.578-62.939-18.591-70.583
	c-1.053-4.023-5.177-6.421-9.19-5.368c-4.023,1.064-6.421,5.177-5.368,9.2l57.199,217.117c3.271,12.441,14.548,21.13,27.421,21.13
	h199.286c4.118,0,7.707-3.17,7.835-7.286c0.131-4.262-3.278-7.764-7.521-7.764H137.376c-6.04,0-11.327-4.073-12.872-9.913
	c-2.115-8.03-9.534-36.195-18.381-69.78H405.89c-4.655,17.674-10.676,40.537-18.379,69.78c-1.545,5.839-6.833,9.913-12.872,9.913
	h-7.253c-4.127,0-7.721,3.188-7.834,7.313c-0.116,4.261,3.298,7.737,7.522,7.737h7.565c12.872,0,24.15-8.689,27.421-21.13
	l71.031-273.321c0.135-0.52,0.208-1.058,0.193-1.595C472.926,203.327,464.255,192.747,452.545,189.495z M157.331,73.843v114.608
	H114.61l14.197-82.322c1.837-10.652,13.6-78.847,15.03-87.138c0.181-1.053,1.094-1.846,2.157-1.896
	c45.583-1.525,45.823-2.988,47.366-1.274c0.271,0.311,0.702,0.963,0.542,1.906l-7.134,41.828l-10.595-1.726
	c-4.716-0.763-9.491,0.562-13.123,3.652C159.418,64.573,157.331,69.078,157.331,73.843z M231.034,279.181
	c-30.631-9.913-54.58-36.932-58.654-69.75v-65.536V73.843c0-0.451,0.221-0.732,0.411-0.893c0.191-0.161,0.512-0.341,0.953-0.271
	c6.967,1.138,44.528,7.269,56.296,9.19c0.582,0.1,0.993,0.592,0.993,1.174L231.034,279.181L231.034,279.181z M336.412,224.27
	c-5.699,18.09-17.347,33.561-32.648,44.106c0.01-2.055-0.007-186.51,0-188.031l32.648-1.455V224.27z M409.383,188.452h-57.921
	v-34.795c0-139.676-0.139-130.218,0.251-130.561c0.261-0.211,0.512-0.171,0.592-0.161l57.199,9.341
	c0.361,0.06,0.612,0.361,0.612,0.722C409.825,94.83,409.414,181.973,409.383,188.452z"/>
<g>
</g>
<g>
</g>
<g>
</g>
<g>
</g>
<g>
</g>
<g>
</g>
<g>
</g>
<g>
</g>
<g>
</g>
<g>
</g>
<g>
</g>
<g>
</g>
<g>
</g>
<g>
</g>
<g>
</g>
</svg>
