<svg id="Capa_1" enable-background="new 0 0 512 512" height="512" viewBox="0 0 512 512" width="512" xmlns="http://www.w3.org/2000/svg"><path d="m346 421h-75-75l-35.001 30 5.001 61h105 105l5.001-61z" fill="#ffe9cc"/><path d="m381.001 451-35.001-30h-75v91h105z" fill="#ffd399"/><path d="m271 150h-135l12.501 151 19.008 30h103.491 103.491l19.008-30 12.501-151z" fill="#ffe9cc"/><path d="m393.499 301 12.501-151h-135v181h103.491z" fill="#ffd399"/><path d="m271 0c-33.598 0-63.983 12.779-87.632 33.159l9.63 32.847-30.456-10.62c-16.48 22.381-26.542 49.749-26.542 79.614h135 135c0-74.443-60.557-135-135-135z" fill="#fff5f5"/><path d="m271 0v135h135c0-74.443-60.557-135-135-135z" fill="#efe2dd"/><path d="m158.5 0h-82.5v30h67.5l19.041 25.386 25.454 3.843-4.627-26.07z" fill="#895140"/><path d="m252.997 126.006-69.63-92.847c-7.731 6.661-14.769 13.997-20.826 22.227l55.587 74.11z" fill="#5b362a"/><path d="m271 120h-165v60h165 165v-60z" fill="#ff6c6c"/><path d="m271 120h165v60h-165z" fill="#e63950"/><path d="m344.491 301c-6.973-34.189-37.266-60-73.491-60s-66.519 25.811-73.491 60h-49.008l12.499 150h110 110.001l12.499-150z" fill="#ffa7b3"/><path d="m393.499 301h-49.008c-6.973-34.189-37.266-60-73.491-60v210h110.001z" fill="#ff8596"/><path d="m271 361h-45v30h45 45v-30z" fill="#fff5f5"/><path d="m271 361h45v30h-45z" fill="#efe2dd"/></svg>