<svg height="512pt" viewBox="0 0 512 512" width="512pt" xmlns="http://www.w3.org/2000/svg"><path d="m512 256c0 35.253906-7.125 68.859375-20.019531 99.433594-38.820313 91.992187-129.859375 156.566406-235.980469 156.566406s-197.160156-64.574219-235.980469-156.566406c-12.894531-30.574219-20.019531-64.179688-20.019531-99.433594 0-5.015625.144531-10.011719.429688-14.953125.480468-8.285156 1.347656-16.457031 2.589843-24.503906 18.976563-122.648438 125.011719-216.542969 252.980469-216.542969s234.003906 93.894531 252.980469 216.542969c1.242187 8.046875 2.109375 16.21875 2.589843 24.503906.285157 4.941406.429688 9.9375.429688 14.953125zm0 0" fill="#96d6d4"/><path d="m414.496094 66.777344c0 23.835937-19.324219 43.15625-43.15625 43.15625-23.835938 0-43.15625-19.320313-43.15625-43.15625 0-23.832032 19.320312-43.152344 43.15625-43.152344 23.832031 0 43.15625 19.320312 43.15625 43.152344zm0 0" fill="#ffbb16"/><path d="m455.460938 230.683594h-297.097657c-4.417969 0-8.117187-1.578125-10.875-4.054688-7.128906-6.386718-7.996093-18.765625 1.199219-25.507812l83.769531-61.398438c4.097657-2.996094 9.238281-3.863281 13.941407-2.589844 1.910156.5 3.75 1.367188 5.410156 2.589844l26.582031 19.488282c6.53125 4.785156 15.589844 4.074218 21.296875-1.683594l49.644531-50.070313c4.929688-4.972656 12.246094-6.113281 18.273438-3.425781 1.808593.792969 3.5 1.941406 4.972656 3.425781l94.511719 95.335938c10.242187 10.335937 2.925781 27.890625-11.628906 27.890625zm0 0" fill="#757177"/><path d="m367.605469 104.03125c-7.210938-3.011719-24.230469 23.550781-30.125 36.027344-5.902344 12.484375 10.886719 10.898437 6.574219 18.609375-4.304688 7.722656-36.3125 42.894531-36.3125 42.894531l-28.367188 9.988281-12.589844-12.601562 3.132813-11.390625 29.769531-30.03125 49.644531-50.070313c4.929688-4.972656 12.246094-6.113281 18.273438-3.425781zm0 0" fill="#2f373b"/><path d="m246.398438 137.132812c-9.917969-2.976562-37.148438 79.410157-37.148438 79.410157l-61.761719 10.085937c-7.128906-6.386718-7.996093-18.765625 1.199219-25.507812l83.769531-61.398438c4.097657-2.996094 9.238281-3.863281 13.941407-2.589844zm0 0" fill="#2f373b"/><path d="m511.246094 236.28125c-6.664063 12.8125-20.050782 21.558594-35.484375 21.558594-16.382813 0-30.457031-9.863282-36.621094-23.980469-6.167969 14.117187-20.242187 23.980469-36.636719 23.980469-16.382812 0-30.457031-9.863282-36.621094-23.980469-6.167968 14.117187-20.242187 23.980469-36.625 23.980469-16.394531 0-30.46875-9.863282-36.632812-23.980469-6.167969 14.117187-20.242188 23.980469-36.625 23.980469s-30.457031-9.863282-36.625-23.980469c-6.164062 14.117187-20.238281 23.980469-36.632812 23.980469-16.382813 0-30.457032-9.863282-36.625-23.980469-6.164063 14.117187-20.238282 23.980469-36.621094 23.980469-16.394532 0-30.46875-9.863282-36.636719-23.980469-6.164063 14.117187-20.238281 23.980469-36.621094 23.980469-15.433593 0-28.820312-8.746094-35.484375-21.558594.34375-4.480469.792969-8.921875 1.367188-13.332031 1.503906-11.679688 3.792968-23.113281 6.824218-34.242188 7.136719-6.6875 16.738282-10.78125 27.292969-10.78125 16.382813 0 30.457031 9.875 36.621094 23.992188 6.167969-14.117188 20.242187-23.992188 36.636719-23.992188 16.382812 0 30.457031 9.875 36.621094 23.992188 6.167968-14.117188 20.242187-23.992188 36.625-23.992188 16.394531 0 30.46875 9.875 36.632812 23.992188 6.167969-14.117188 20.242188-23.992188 36.625-23.992188s30.457031 9.875 36.625 23.992188c6.164062-14.117188 20.238281-23.992188 36.632812-23.992188 16.382813 0 30.457032 9.875 36.625 23.992188 6.164063-14.117188 20.238282-23.992188 36.621094-23.992188 16.394532 0 30.46875 9.875 36.636719 23.992188 6.164063-14.117188 20.238281-23.992188 36.621094-23.992188 10.554687 0 20.15625 4.09375 27.292969 10.78125 3.03125 11.128907 5.320312 22.5625 6.824218 34.242188.574219 4.410156 1.023438 8.851562 1.367188 13.332031zm0 0" fill="#0a9327"/><path d="m512 256c0 141.386719-114.613281 256-256 256s-256-114.613281-256-256c0-13.417969 1.035156-26.59375 3.019531-39.457031h505.960938c1.984375 12.863281 3.019531 26.039062 3.019531 39.457031zm0 0" fill="#2cce5a"/><path d="m425.074219 203.734375c-4.320313-.359375-7.757813-3.464844-8.734375-7.457031-2.761719 3.042968-7.265625 4.128906-11.234375 2.378906s-6.203125-5.800781-5.824219-9.890625c-3.601562 1.972656-8.207031 1.535156-11.390625-1.402344-3.183594-2.941406-3.980469-7.496093-2.300781-11.242187-4.042969.707031-8.265625-1.199219-10.328125-5.007813-2.066407-3.820312-1.339844-8.394531 1.472656-11.394531-4.0625-.652344-7.4375-3.828125-8.140625-8.113281-.703125-4.273438 1.464844-8.355469 5.09375-10.277344-3.625-1.929687-5.785156-6.015625-5.070312-10.289063.710937-4.28125 4.089843-7.449218 8.152343-8.09375-2.804687-3.003906-3.519531-7.582031-1.449219-11.394531 2.070313-3.808593 6.289063-5.703125 10.335938-4.988281-1.671875-3.75-.863281-8.304688 2.324219-11.234375 3.191406-2.9375 7.800781-3.359375 11.398437-1.375-.375-4.097656 1.871094-8.148437 5.839844-9.890625 3.972656-1.738281 8.476562-.640625 11.238281 2.410156.980469-3.992187 4.421875-7.09375 8.746094-7.445312 4.316406-.351563 8.207031 2.140625 9.824219 5.910156 2.222656-3.453125 6.476562-5.273438 10.679687-4.210938 4.207031 1.0625 7.085938 4.691407 7.394531 8.792969 3.222657-2.546875 7.84375-2.878906 11.472657-.503906 3.621093 2.375 5.160156 6.734375 4.125 10.707031 3.871093-1.359375 8.34375-.183594 11.003906 3.230469 2.667969 3.421875 2.710937 8.050781.4375 11.476563 4.113281-.035157 7.972656 2.53125 9.378906 6.636718 1.40625 4.109375-.058593 8.5-3.324219 11 3.890626 1.304688 6.699219 4.980469 6.699219 9.316406v.058594.078125c-.011719 4.328125-2.820312 8.003907-6.714843 9.300781 3.257812 2.5 4.714843 6.902344 3.296874 11-1.417968 4.101563-5.277343 6.664063-9.390624 6.621094 2.265624 3.425782 2.210937 8.054688-.457032 11.46875-2.671875 3.414063-7.148437 4.582032-11.019531 3.210938 1.03125 3.976562-.515625 8.335937-4.144531 10.703125-3.636719 2.371093-8.253906 2.027343-11.476563-.53125-.3125 4.101562-3.199219 7.730469-7.410156 8.785156-4.203125 1.054687-8.457031-.773437-10.667969-4.234375-1.523437 3.523438-5.03125 5.925781-9.007812 5.925781-.277344 0-.550782-.011719-.828125-.035156zm0 0" fill="#21bf4a"/><path d="m425.167969 84.0625c1.667969-.730469 3.335937-1.078125 4.847656-1.078125 2.09375 0 3.898437.671875 5.015625 1.957031-1.519531-3.535156-5.03125-5.949218-9.019531-5.949218-.269531 0-.539063.011718-.808594.035156-2.160156.175781-4.105469 1.039062-5.625 2.359375-1.523437 1.316406-2.628906 3.089843-3.121094 5.085937-1.867187-2.066406-4.539062-3.238281-7.300781-3.238281-1.316406 0-2.652344.269531-3.9375.828125-3.679688 1.617188-5.882812 5.21875-5.882812 9.003906 0 .292969.015624.589844.042968.886719-1.472656-.8125-3.109375-1.21875-4.75-1.21875-2.375 0-4.757812.855469-6.648437 2.59375-2.105469 1.9375-3.175781 4.582031-3.175781 7.234375 0 1.363281.28125 2.726562.851562 4-.566406-.097656-1.128906-.148438-1.695312-.148438-3.484376 0-6.855469 1.859376-8.636719 5.136719-.8125 1.492188-1.195313 3.097657-1.195313 4.683594 0 2.46875.929688 4.878906 2.636719 6.710937-2.027344.324219-3.886719 1.273438-5.328125 2.683594-1.441406 1.40625-2.464844 3.269532-2.824219 5.410156-.089843.546876-.132812 1.089844-.132812 1.628907 0 3.65625 2.042969 6.976562 5.203125 8.660156-3.164063 1.675781-5.222656 5.007813-5.222656 8.671875 0 .527344.042968 1.0625.132812 1.605469.351562 2.140625 1.371094 4.007812 2.8125 5.417969 1.4375 1.410156 3.296875 2.367187 5.328125 2.691406-1.714844 1.832031-2.65625 4.253906-2.65625 6.730468 0 1.578126.382813 3.179688 1.1875 4.667969 1.773437 3.285157 5.15625 5.152344 8.648437 5.152344.554688 0 1.121094-.046875 1.679688-.148437-.574219 1.28125-.859375 2.65625-.859375 4.023437 0 2.648437 1.0625 5.285156 3.160156 7.222656 1.890625 1.742188 4.277344 2.605469 6.660157 2.605469 1.632812 0 3.265624-.40625 4.726562-1.207031-.027344.300781-.039062.601562-.039062.898437 0 3.773438 2.1875 7.375 5.863281 8.992188 1.289062.570312 2.636719.839844 3.960937.839844 2.746094 0 5.40625-1.164063 7.277344-3.21875.972656 3.992187 4.410156 7.097656 8.730469 7.460937.277343.023437.554687.03125.828125.03125 1.988281 0 3.859375-.601563 5.425781-1.640625.546875-.367188 1.058594-.785156 1.523437-1.25-.765624.210938-1.570312.3125-2.390624.3125-1.773438 0-3.644532-.457031-5.40625-1.234375-3.675782-1.617187-5.867188-6.335937-5.867188-10.273437 0-.3125.015625-.617188.042969-.917969-1.464844.800781-3.09375 1.207031-4.726563 1.207031-2.382812 0-4.773437-.859375-6.660156-2.605469-2.097656-1.9375-3.160156-4.574219-3.160156-7.222656 0-1.367187.285156-2.742187.859375-4.019531-.558594.097656-1.125.144531-1.683594.144531-3.488281 0-6.871094-1.867187-8.648437-5.152344-.800782-1.484375-1.183594-3.089843-1.183594-4.667969 0-2.476562.9375-4.894531 2.65625-6.730468-2.03125-.324219-3.890625-1.28125-5.328125-2.691406-1.441407-1.410157-2.460938-3.273438-2.8125-5.417969-.089844-.539063-.132813-1.074219-.132813-1.605469 0-3.664062 2.058594-6.996094 5.226563-8.671875-3.160157-1.683594-5.207031-5.003906-5.207031-8.660156 0-.539063.042968-1.082031.132812-1.628907.359375-2.136718 1.382812-4.003906 2.820312-5.410156 1.441407-1.40625 3.304688-2.359375 5.332032-2.683594-1.707032-1.828124-2.636719-4.242187-2.636719-6.707031 0-1.585937.382813-3.195312 1.191406-4.6875 1.78125-3.277343 5.15625-5.132812 8.640625-5.132812.566406 0 1.128906.046875 1.691406.144531-.566406-1.269531-.847656-2.636719-.847656-4 0-2.652344 1.070313-5.296875 3.175782-7.234375 1.886718-1.738281 4.269531-2.59375 6.648437-2.59375 1.636719 0 3.277344.410156 4.75 1.21875-.027344-.292969-.039063-.589844-.039063-.882813 0-3.785156 2.195313-7.390624 5.878907-9.007812zm0 0" fill="#17aa3d"/><path d="m460.808594 224.566406h-60.265625c12.03125 0 16.347656-10.234375 16.347656-13.757812v-28.707032c1.035156.632813 2.207031 1.085938 3.476563 1.296876.277343.046874.550781.078124.824218.101562.273438.027344.546875.039062.820313.039062 3.648437 0 6.96875-2.039062 8.652343-5.1875 1.675782 3.183594 5.011719 5.246094 8.6875 5.246094.523438 0 1.054688-.042968 1.589844-.132812 1.289063-.207032 2.476563-.660156 3.523438-1.300782v28.648438c0 3.519531 4.316406 13.753906 16.34375 13.753906zm0 0" fill="#ab5816"/><path d="m422.011719 183.539062c1.289062 0 2.539062-.257812 3.691406-.726562v27.996094c0 3.523437-1.558594 13.757812-5.898437 13.757812h-19.257813c12.027344 0 16.34375-10.234375 16.34375-13.757812v-28.707032c1.035156.632813 2.207031 1.085938 3.476563 1.296876.277343.046874.550781.078124.824218.101562.277344.027344.550782.039062.820313.039062zm0 0" fill="#8c3e09"/><path d="m62.867188 203.734375c-4.320313-.359375-7.757813-3.464844-8.730469-7.457031-2.765625 3.042968-7.269531 4.128906-11.238281 2.378906-3.964844-1.75-6.203126-5.800781-5.824219-9.890625-3.601563 1.972656-8.203125 1.535156-11.386719-1.402344-3.183594-2.941406-3.984375-7.496093-2.300781-11.242187-4.046875.707031-8.269531-1.199219-10.328125-5.007813-2.066406-3.820312-1.34375-8.394531 1.46875-11.394531-4.0625-.652344-7.4375-3.828125-8.140625-8.113281-.703125-4.273438 1.464843-8.355469 5.09375-10.277344-3.625-1.929687-5.785157-6.015625-5.070313-10.289063.714844-4.28125 4.089844-7.449218 8.152344-8.09375-2.804688-3.003906-3.515625-7.582031-1.445312-11.394531 2.066406-3.808593 6.289062-5.703125 10.332031-4.988281-1.671875-3.75-.863281-8.304688 2.328125-11.234375 3.191406-2.9375 7.796875-3.359375 11.394531-1.375-.371094-4.097656 1.871094-8.148437 5.839844-9.890625 3.976562-1.738281 8.480469-.640625 11.238281 2.410156.980469-3.992187 4.425781-7.09375 8.746094-7.445312 4.316406-.351563 8.207031 2.140625 9.828125 5.910156 2.21875-3.453125 6.476562-5.273438 10.675781-4.210938 4.207031 1.0625 7.089844 4.691407 7.394531 8.792969 3.226563-2.546875 7.84375-2.878906 11.472657-.503906 3.625 2.375 5.164062 6.734375 4.125 10.707031 3.875-1.359375 8.347656-.183594 11.007812 3.230469 2.667969 3.421875 2.710938 8.050781.4375 11.476563 4.113281-.035157 7.96875 2.53125 9.378906 6.636718 1.40625 4.109375-.058594 8.5-3.324218 11 3.890624 1.304688 6.699218 4.980469 6.699218 9.316406v.058594.078125c-.011718 4.328125-2.820312 8.003907-6.714844 9.300781 3.257813 2.5 4.714844 6.902344 3.296876 11-1.417969 4.101563-5.277344 6.664063-9.390626 6.621094 2.265626 3.425782 2.210938 8.054688-.460937 11.46875-2.667969 3.414063-7.144531 4.582032-11.015625 3.210938 1.03125 3.976562-.515625 8.335937-4.144531 10.703125-3.636719 2.371093-8.253907 2.027343-11.476563-.53125-.3125 4.101562-3.199218 7.730469-7.410156 8.785156-4.203125 1.054687-8.457031-.773437-10.667969-4.234375-1.523437 3.523438-5.03125 5.925781-9.011719 5.925781-.273437 0-.550781-.011719-.828124-.035156zm0 0" fill="#21bf4a"/><path d="m62.960938 84.0625c1.667968-.730469 3.335937-1.078125 4.847656-1.078125 2.09375 0 3.902344.671875 5.015625 1.957031-1.519531-3.535156-5.03125-5.949218-9.019531-5.949218-.265626 0-.539063.011718-.808594.035156-2.160156.175781-4.101563 1.039062-5.625 2.359375-1.523438 1.316406-2.628906 3.089843-3.121094 5.085937-1.867188-2.066406-4.535156-3.238281-7.300781-3.238281-1.3125 0-2.652344.269531-3.9375.828125-3.679688 1.617188-5.878907 5.21875-5.878907 9.003906 0 .292969.011719.589844.039063.886719-1.46875-.8125-3.109375-1.21875-4.746094-1.21875-2.378906 0-4.761719.855469-6.648437 2.59375-2.109375 1.9375-3.175782 4.582031-3.175782 7.234375 0 1.363281.28125 2.726562.847657 4-.5625-.097656-1.128907-.148438-1.691407-.148438-3.484374 0-6.859374 1.859376-8.640624 5.136719-.808594 1.492188-1.195313 3.097657-1.195313 4.683594 0 2.46875.933594 4.878906 2.640625 6.710937-2.03125.324219-3.890625 1.273438-5.332031 2.683594-1.441407 1.40625-2.464844 3.269532-2.820313 5.410156-.089844.546876-.136718 1.089844-.136718 1.628907 0 3.65625 2.046874 6.976562 5.207031 8.660156-3.167969 1.675781-5.222657 5.007813-5.222657 8.671875 0 .527344.039063 1.0625.128907 1.605469.351562 2.140625 1.375 4.007812 2.816406 5.417969 1.4375 1.410156 3.292969 2.367187 5.328125 2.691406-1.71875 1.832031-2.65625 4.253906-2.65625 6.730468 0 1.578126.378906 3.179688 1.183594 4.667969 1.773437 3.285157 5.15625 5.152344 8.648437 5.152344.558594 0 1.121094-.046875 1.679688-.148437-.574219 1.28125-.859375 2.65625-.859375 4.023437 0 2.648437 1.0625 5.285156 3.164062 7.222656 1.886719 1.742188 4.277344 2.605469 6.660156 2.605469 1.632813 0 3.261719-.40625 4.726563-1.207031-.027344.300781-.042969.601562-.042969.898437 0 3.773438 2.1875 7.375 5.863282 8.992188 1.289062.570312 2.636718.839844 3.960937.839844 2.75 0 5.410156-1.164063 7.277344-3.21875.972656 3.992187 4.410156 7.097656 8.730469 7.460937.277343.023437.554687.03125.828124.03125 1.992188 0 3.859376-.601563 5.429688-1.640625.542969-.367188 1.054688-.785156 1.519531-1.25-.761719.210938-1.566406.3125-2.390625.3125-1.773437 0-3.644531-.457031-5.40625-1.234375-3.675781-1.617187-5.863281-6.335937-5.863281-10.273437 0-.3125.015625-.617188.039063-.917969-1.464844.800781-3.09375 1.207031-4.726563 1.207031-2.382813 0-4.773437-.859375-6.660156-2.605469-2.097657-1.9375-3.160157-4.574219-3.160157-7.222656 0-1.367187.285157-2.742187.859376-4.019531-.558594.097656-1.121094.144531-1.679688.144531-3.492188 0-6.871094-1.867187-8.648438-5.152344-.804687-1.484375-1.1875-3.089843-1.1875-4.667969 0-2.476562.941407-4.894531 2.65625-6.730468-2.03125-.324219-3.890624-1.28125-5.328124-2.691406-1.441407-1.410157-2.460938-3.273438-2.8125-5.417969-.089844-.539063-.132813-1.074219-.132813-1.605469 0-3.664062 2.058594-6.996094 5.226563-8.671875-3.160157-1.683594-5.207032-5.003906-5.207032-8.660156 0-.539063.046875-1.082031.136719-1.628907.355469-2.136718 1.378906-4.003906 2.820313-5.410156 1.441406-1.40625 3.300781-2.359375 5.332031-2.683594-1.710938-1.828124-2.640625-4.242187-2.640625-6.707031 0-1.585937.386718-3.195312 1.195312-4.6875 1.777344-3.277343 5.152344-5.132812 8.636719-5.132812.566406 0 1.128906.046875 1.695313.144531-.566407-1.269531-.851563-2.636719-.851563-4 0-2.652344 1.070313-5.296875 3.175781-7.234375 1.890625-1.738281 4.273438-2.59375 6.648438-2.59375 1.640625 0 3.277344.410156 4.75 1.21875-.027344-.292969-.039063-.589844-.039063-.882813 0-3.785156 2.195313-7.390624 5.878907-9.007812zm0 0" fill="#17aa3d"/><path d="m98.605469 224.566406h-60.265625c12.027344 0 16.34375-10.234375 16.34375-13.757812v-28.707032c1.035156.632813 2.210937 1.085938 3.480468 1.296876.273438.046874.546876.078124.820313.101562.277344.027344.550781.039062.824219.039062 3.644531 0 6.964844-2.039062 8.648437-5.1875 1.675781 3.183594 5.011719 5.246094 8.6875 5.246094.523438 0 1.054688-.042968 1.589844-.132812 1.289063-.207032 2.476563-.660156 3.523437-1.300782v28.648438c0 3.519531 4.316407 13.753906 16.347657 13.753906zm0 0" fill="#ab5816"/><path d="m59.808594 183.539062c1.285156 0 2.539062-.257812 3.6875-.726562v27.996094c0 3.523437-1.554688 13.757812-5.898438 13.757812h-19.257812c12.027344 0 16.34375-10.234375 16.34375-13.757812v-28.707032c1.035156.632813 2.210937 1.085938 3.480468 1.296876.273438.046874.546876.078124.820313.101562.277344.027344.550781.039062.824219.039062zm0 0" fill="#8c3e09"/><path d="m109.121094 211.734375c-4.597656-.386719-8.253906-3.6875-9.289063-7.9375-2.945312 3.238281-7.734375 4.394531-11.960937 2.535156-4.21875-1.863281-6.597656-6.175781-6.195313-10.527343-3.832031 2.097656-8.730469 1.636718-12.117187-1.492188-3.390625-3.128906-4.242188-7.976562-2.449219-11.964844-4.308594.753906-8.800781-1.273437-10.992187-5.328125-2.199219-4.0625-1.429688-8.933593 1.566406-12.125-4.324219-.691406-7.914063-4.070312-8.664063-8.632812-.746093-4.542969 1.558594-8.890625 5.417969-10.933594-3.855469-2.054687-6.152344-6.402344-5.394531-10.949219.757812-4.554687 4.351562-7.929687 8.675781-8.613281-2.984375-3.199219-3.742188-8.066406-1.539062-12.125 2.203124-4.054687 6.691406-6.066406 10.996093-5.308594-1.78125-3.992187-.917969-8.835937 2.472657-11.953125 3.398437-3.125 8.300781-3.578125 12.128906-1.464844-.398438-4.359374 1.988281-8.671874 6.214844-10.523437 4.230468-1.855469 9.019531-.6875 11.957031 2.5625 1.046875-4.25 4.707031-7.550781 9.308593-7.921875 4.589844-.375 8.730469 2.277344 10.457032 6.289062 2.359375-3.675781 6.890625-5.613281 11.359375-4.484374 4.476562 1.132812 7.542969 4.996093 7.867187 9.359374 3.433594-2.707031 8.347656-3.0625 12.210938-.535156 3.855468 2.527344 5.492187 7.167969 4.386718 11.394532 4.125-1.449219 8.882813-.195313 11.714844 3.4375 2.835938 3.644531 2.886719 8.570312.464844 12.214843 4.378906-.039062 8.480469 2.695313 9.980469 7.0625 1.496093 4.371094-.0625 9.042969-3.539063 11.703125 4.144532 1.386719 7.128906 5.300782 7.128906 9.914063v.058593.085938c-.007812 4.609375-3 8.515625-7.144531 9.894531 3.46875 2.667969 5.015625 7.347657 3.511719 11.707031-1.511719 4.367188-5.617188 7.089844-9.992188 7.046876 2.410157 3.644531 2.347657 8.570312-.492187 12.203124-2.839844 3.636719-7.605469 4.878907-11.722656 3.417969 1.097656 4.230469-.550781 8.871094-4.414063 11.390625-3.867187 2.519532-8.78125 2.15625-12.210937-.566406-.332031 4.363281-3.40625 8.226562-7.882813 9.347656-4.476562 1.121094-9-.824218-11.355468-4.507812-1.617188 3.75-5.351563 6.308594-9.585938 6.308594-.289062-.003907-.582031-.015626-.878906-.039063zm0 0" fill="#21bf4a"/><path d="m109.21875 84.386719c1.777344-.773438 3.550781-1.148438 5.160156-1.148438 2.230469 0 4.152344.71875 5.335938 2.082031-1.617188-3.757812-5.351563-6.328124-9.597656-6.328124-.285157 0-.570313.011718-.859376.035156-2.300781.183594-4.367187 1.105468-5.984374 2.511718-1.625 1.402344-2.800782 3.289063-3.324219 5.414063-1.984375-2.203125-4.824219-3.445313-7.765625-3.445313-1.398438 0-2.824219.28125-4.191406.878907-3.917969 1.722656-6.257813 5.554687-6.257813 9.578125 0 .316406.015625.628906.046875.949218-1.566406-.863281-3.308594-1.296874-5.054688-1.296874-2.53125 0-5.066406.910156-7.074218 2.757812-2.242188 2.0625-3.378906 4.875-3.378906 7.699219 0 1.449219.300781 2.902343.902343 4.257812-.601562-.105469-1.199219-.15625-1.800781-.15625-3.707031 0-7.296875 1.976563-9.191406 5.464844-.863282 1.585937-1.273438 3.296875-1.273438 4.980469 0 2.628906.992188 5.195312 2.808594 7.144531-2.160156.34375-4.140625 1.355469-5.671875 2.855469-1.535156 1.496094-2.625 3.480468-3.003906 5.757812-.097657.582032-.144531 1.160156-.144531 1.730469 0 3.890625 2.175781 7.425781 5.539062 9.214844-3.371094 1.785156-5.558594 5.332031-5.558594 9.226562 0 .566407.046875 1.136719.140625 1.710938.375 2.28125 1.460938 4.261719 2.996094 5.765625 1.527344 1.5 3.503906 2.519531 5.667969 2.863281-1.828125 1.953125-2.828125 4.527344-2.828125 7.164063 0 1.679687.40625 3.382812 1.261719 4.964843 1.890624 3.492188 5.488281 5.484375 9.203124 5.484375.59375 0 1.195313-.050781 1.789063-.15625-.609375 1.359375-.914063 2.824219-.914063 4.28125 0 2.816406 1.132813 5.621094 3.363282 7.683594 2.011718 1.855469 4.554687 2.773438 7.089844 2.773438 1.738281 0 3.472656-.433594 5.03125-1.285157-.027344.320313-.046876.636719-.046876.953125 0 4.019532 2.328126 7.851563 6.242188 9.574219 1.371094.601563 2.804688.890625 4.214844.890625 2.921875 0 5.753906-1.234375 7.742187-3.425781 1.035157 4.25 4.695313 7.554687 9.289063 7.9375.296875.027343.59375.035156.882812.035156 2.117188 0 4.105469-.636719 5.773438-1.746094.582031-.390625 1.125-.832031 1.621094-1.328125-.8125.222656-1.667969.328125-2.542969.328125-1.886719 0-3.875-.480469-5.75-1.308593-3.914063-1.726563-6.242188-6.742188-6.242188-10.933594 0-.332032.015625-.660156.042969-.976563-1.558594.851563-3.292969 1.285157-5.03125 1.285157-2.535156 0-5.078125-.917969-7.085938-2.773438-2.234374-2.0625-3.363281-4.867188-3.363281-7.683594 0-1.457031.304688-2.921875.914063-4.28125-.59375.105469-1.195313.15625-1.789063.15625-3.714843 0-7.3125-1.988281-9.203125-5.484375-.855468-1.582031-1.261718-3.289062-1.261718-4.964843 0-2.636719 1-5.210938 2.828124-7.164063-2.164062-.34375-4.140624-1.363281-5.671874-2.863281-1.53125-1.503906-2.617188-3.484375-2.992188-5.765625-.09375-.574219-.140625-1.144531-.140625-1.710938 0-3.894531 2.1875-7.441406 5.5625-9.226562-3.363281-1.789063-5.542969-5.324219-5.542969-9.214844 0-.570313.046875-1.148437.144532-1.730469.378906-2.277344 1.46875-4.261718 3-5.757812 1.535156-1.5 3.515624-2.511719 5.671874-2.855469-1.816406-1.949219-2.804687-4.515625-2.804687-7.140625 0-1.6875.40625-3.398438 1.269531-4.984375 1.894532-3.488281 5.484375-5.464844 9.195313-5.464844.601562 0 1.199219.050781 1.800781.15625-.605469-1.355469-.90625-2.808593-.90625-4.257812 0-2.824219 1.140625-5.636719 3.382812-7.699219 2.007813-1.847656 4.542969-2.757812 7.074219-2.757812 1.742188 0 3.488281.433593 5.050781 1.296874-.027343-.316406-.039062-.628906-.039062-.945312-.003906-4.023438 2.332031-7.859375 6.25-9.582031zm0 0" fill="#17aa3d"/><path d="m147.148438 233.902344h-64.128907c12.800781 0 17.394531-10.894532 17.394531-14.640625v-30.546875c1.101563.671875 2.347657 1.152344 3.699219 1.378906.296875.046875.585938.082031.878907.109375.292968.023437.582031.039063.875.039063 3.878906 0 7.414062-2.171876 9.203124-5.519532 1.785157 3.386719 5.335938 5.578125 9.246094 5.578125.558594 0 1.125-.042969 1.691406-.136719 1.371094-.222656 2.636719-.703124 3.75-1.386718v30.484375c0 3.746093 4.59375 14.640625 17.390626 14.640625zm0 0" fill="#ab5816"/><path d="m105.863281 190.242188c1.371094 0 2.703125-.273438 3.925781-.769532v29.789063c0 3.746093-1.65625 14.640625-6.273437 14.640625h-20.496094c12.800781 0 17.394531-10.894532 17.394531-14.640625v-30.546875c1.101563.671875 2.351563 1.152344 3.703126 1.378906.292968.046875.582031.082031.875.109375.292968.023437.582031.039063.871093.039063zm0 0" fill="#8c3e09"/><path d="m512 256c0 35.253906-7.125 68.859375-20.019531 99.433594h-471.960938c-12.894531-30.574219-20.019531-64.179688-20.019531-99.433594 0-5.015625.144531-10.011719.429688-14.953125h511.140624c.285157 4.941406.429688 9.9375.429688 14.953125zm0 0" fill="#0084a6"/><g fill="#17aa3d"><path d="m352.632812 482.304688h-20.878906v-5.226563c0-14.332031-13.894531-19.546875-14.035156-19.601563-2.710938-.984374-4.113281-3.984374-3.125-6.695312s3.984375-4.109375 6.695312-3.121094c.78125.28125 17.625 6.617188 20.5 24.195313h.808594c2.875-17.578125 19.71875-23.914063 20.5-24.195313 2.710938-.988281 5.707032.410156 6.695313 3.121094.984375 2.707031-.40625 5.695312-3.105469 6.6875-.625.238281-14.054688 5.476562-14.054688 19.609375zm0 0"/><path d="m343.109375 482.304688c-.390625 0-.792969-.046876-1.191406-.136719-2.808594-.65625-4.550781-3.460938-3.902344-6.265625.066406-.292969 4.753906-21.726563-8.136719-34.617188-2.039062-2.042968-2.039062-5.347656 0-7.390625 2.039063-2.039062 5.351563-2.039062 7.390625 0 17.0625 17.066407 11.183594 43.265625 10.925781 44.371094-.566406 2.410156-2.714843 4.039063-5.085937 4.039063zm0 0"/><path d="m185.515625 474.851562h-20.878906v-5.222656c0-14.332031-13.894531-19.550781-14.035157-19.601562-2.714843-.988282-4.113281-3.984375-3.125-6.695313.984376-2.710937 3.984376-4.109375 6.695313-3.125.78125.285157 17.625 6.617188 20.5 24.195313h.808594c2.875-17.578125 19.71875-23.910156 20.5-24.195313 2.710937-.984375 5.707031.414063 6.695312 3.125.980469 2.703125-.40625 5.691407-3.105469 6.6875-.628906.238281-14.054687 5.472657-14.054687 19.605469zm0 0"/><path d="m175.992188 474.855469c-.394532 0-.792969-.046875-1.191407-.140625-2.808593-.65625-4.550781-3.457032-3.902343-6.265625.066406-.289063 4.753906-21.726563-8.136719-34.613281-2.039063-2.042969-2.039063-5.347657 0-7.390626 2.039062-2.039062 5.351562-2.039062 7.386719 0 17.066406 17.0625 11.183593 43.265626 10.925781 44.371094-.5625 2.410156-2.710938 4.039063-5.082031 4.039063zm0 0"/><path d="m512 256h-512c0-5.015625.144531-10.011719.429688-14.953125h511.140624c.285157 4.941406.429688 9.9375.429688 14.953125zm0 0"/></g><path d="m358.816406 305.390625c-42.894531 0-120.507812 18.382813-57.1875 25.527344 63.308594 7.148437 44.929688 24.515625 4.074219 24.515625h-158.289063c116.421876 0 62.292969-28.601563 3.058594-28.601563-29.613281 0-50.039062-22.464843 65.371094-22.464843 115.398438 0 82.371094-20.488282 49.203125-20.488282-66.6875 0-65.328125-27.878906 2.875-27.878906h68.429687c-37.679687 2.523438-58.316406 21.816406-14.304687 21.816406 62.867187 0 79.660156 27.574219 36.769531 27.574219zm0 0" fill="#69b8d4"/><path d="m194.726562 285.757812c0-3.007812-13.613281-5.445312-30.410156-5.445312s-30.410156 2.4375-30.410156 5.445312c0 3.007813 13.613281 5.449219 30.410156 5.449219s30.410156-2.441406 30.410156-5.449219zm0 0" fill="#69b8d4"/><path d="m410.78125 319.800781c0-3.007812-13.617188-5.449219-30.414062-5.449219-16.792969 0-30.410157 2.441407-30.410157 5.449219 0 3.007813 13.617188 5.445313 30.410157 5.445313 16.796874 0 30.414062-2.4375 30.414062-5.445313zm0 0" fill="#69b8d4"/></svg>