<svg xmlns="http://www.w3.org/2000/svg" viewBox="0 0 500 500"><g id="freepik--background-complete--inject-136"><path d="M59.81,308.76A30.06,30.06,0,1,1,100.21,322,30.07,30.07,0,0,1,59.81,308.76Z" style="fill:#dbdbdb"></path><path d="M102.44,295.37c-2.35,10-11.64,17.7-11.64,17.7S79,310.22,72.55,302.33c-5.42-6.59-5-15.17.45-18.28,7.75-4.47,13.27,9.56,13.27,9.56S85,278.59,94,279.17C100.19,279.57,104.39,287.07,102.44,295.37Z" style="fill:#fff"></path><path d="M424.61,394.11a30.08,30.08,0,0,1-31.5-2.72,30.06,30.06,0,1,1,31.5,2.72Z" style="fill:#dbdbdb"></path><path d="M420.45,364.63a9.15,9.15,0,1,1-8.33-9.9A9.14,9.14,0,0,1,420.45,364.63Z" style="fill:#fff"></path><path d="M424.93,390.35l-.32,3.76a30.08,30.08,0,0,1-31.5-2.72l.32-3.75a15.81,15.81,0,1,1,31.5,2.71Z" style="fill:#fff"></path><path d="M406.85,149.7h-3.56a4,4,0,0,1-4-4,4.05,4.05,0,0,1,4-4h5l2.33-13.47h-4.5a4,4,0,0,1,0-8.06H412l1.53-9.22a4,4,0,0,1,4-3.33,4.13,4.13,0,0,1,4,4.74l-1.38,7.81h12.15l1.55-9.22a4,4,0,0,1,4.11-3.33A4.09,4.09,0,0,1,442,112.3l-1.32,7.81h3.57a4,4,0,0,1,4,4,4.09,4.09,0,0,1-4,4h-4.95l-2.33,13.47h4.41a4,4,0,0,1,4,4,4,4,0,0,1-4,4h-5.81l-1.63,9.52a4,4,0,0,1-4,3.33,4.09,4.09,0,0,1-4-4.71l1.48-8.14H415.14l-1.63,9.52a4,4,0,0,1-4.08,3.33,4,4,0,0,1-4-4.71Zm21.78-8.06L431,128.17H418.87l-2.33,13.47Z" style="fill:#ebebeb"></path><circle cx="379.3" cy="68.55" r="33.03" transform="translate(30 231.52) rotate(-35.26)" style="fill:#dbdbdb"></circle><g id="freepik--xsrjP0--inject-136"><path d="M374.8,81.69c-.88-.55-1.64-1.34-2.81-1.23-.45,0-.35-.33-.35-.57q0-6.6,0-13.2c0-.32,0-.58.37-.76,3.36-1.69,4.81-5,6.87-7.88a13.15,13.15,0,0,0,2.44-10c-.14-1,.32-1.43,1.21-1.63a2.19,2.19,0,0,1,2.51.79A17.48,17.48,0,0,1,387,53c.2,1.67-.4,3.29-.61,4.95-.15,1.2-.43,2.4-.66,3.62.29.21.63.1.95.11h11.15c1.57,0,2.33.45,2.55,1.49a3,3,0,0,1-1.62,3.22c-.28.14-.78,0-.81.45s.48.4.74.58c1.34.92,1.09,2.82-.46,3.93-.38.26-1.1.14-1.12.69s.67.43,1,.74c1.08,1.07.54,3.07-1.08,3.88a5.5,5.5,0,0,0-.65.26c-.19.12-.37.26,0,.51,1.61,1.15,1.58,2.75-.05,3.92l-.48.35a3.21,3.21,0,0,1-2,.43H376.33A2.05,2.05,0,0,1,374.8,81.69Z" style="fill:#fff;fill-rule:evenodd"></path><path d="M358.22,73.93c0-2.79,0-5.59,0-8.38,0-.57.06-.85.75-.84,3.42,0,6.82,0,10.23,0,.67,0,.77.23.77.82q0,8.43,0,16.87c0,.72-.19.92-.91.91-3.3,0-6.61,0-9.91,0-.83,0-.94-.28-.93-1C358.25,79.53,358.22,76.73,358.22,73.93Z" style="fill:#fff;fill-rule:evenodd"></path></g></g><g id="freepik--Shadow--inject-136"><path d="M110.51,433.1c0,3.63-14.8,6.57-33.06,6.57s-33.06-2.94-33.06-6.57,14.8-6.58,33.06-6.58S110.51,429.46,110.51,433.1Z" style="fill:#ebebeb"></path></g><g id="freepik--Floor--inject-136"><polygon points="39.45 408.55 92.09 408.31 144.73 408.22 250 408.05 355.27 408.22 407.91 408.31 460.55 408.55 407.91 408.8 355.27 408.88 250 409.05 144.73 408.88 92.09 408.8 39.45 408.55" style="fill:#263238"></polygon></g><g id="freepik--Screen--inject-136"><rect x="114.15" y="94.11" width="271.69" height="338.99" style="fill:#455a64"></rect><rect x="129.59" y="131.79" width="240.82" height="240.82" style="fill:#fff"></rect><path d="M141.21,119.61a7.89,7.89,0,1,1,3.52-8.59A7.9,7.9,0,0,1,141.21,119.61Z" style="fill:#fff"></path><path d="M139.46,112a2.4,2.4,0,1,1-2.4-2.4A2.39,2.39,0,0,1,139.46,112Z" style="fill:#37474f"></path><path d="M141.21,118.62v1a7.89,7.89,0,0,1-8.3,0v-1a4.15,4.15,0,0,1,8.3,0Z" style="fill:#37474f"></path><path d="M365.52,112a.75.75,0,0,1,.74.75.74.74,0,0,1-.74.73.73.73,0,0,1-.73-.73A.74.74,0,0,1,365.52,112Z" style="fill:#c7c7c7"></path><path d="M367.8,112a.76.76,0,0,1,.75.75.74.74,0,0,1-.75.73.73.73,0,0,1-.73-.73A.74.74,0,0,1,367.8,112Z" style="fill:#c7c7c7"></path><path d="M370.09,112a.75.75,0,0,1,.74.75.74.74,0,1,1-.74-.75Z" style="fill:#c7c7c7"></path><rect x="154.12" y="110.97" width="75.99" height="3.86" style="fill:#37474f"></rect><polygon points="370.41 372.62 177.63 372.62 177.63 430.62 370.41 372.62" style="fill:#37474f"></polygon><path d="M145.46,390.66a19.21,19.21,0,0,1-4.2,4.93,28.39,28.39,0,0,1-2.8,2.2h-.74c-.2-.14-5-3.36-7-7.14-1.43-2.63-1.63-5.56-.49-7.47a3.72,3.72,0,0,1,3.3-1.89,5.17,5.17,0,0,1,4.56,3.21,5.16,5.16,0,0,1,4.55-3.21,3.72,3.72,0,0,1,3.31,1.89C147.09,385.1,146.9,388,145.46,390.66Z" style="fill:#74B9FF"></path><path d="M194.65,398.74l-1.17-.23-2.39-8.91-5.52-6,.49-1.11h19.48l.53,1.06Zm-7.09-15,4.62,5,.15.28,2.08,7.76,9.8-13.08Z" style="fill:#c7c7c7"></path><rect x="190.38" y="385.53" width="16.48" height="1.32" transform="translate(-139.59 113.77) rotate(-23.93)" style="fill:#c7c7c7"></rect><path d="M165.24,397.9a8.33,8.33,0,1,1,8-5.94l1.26,5.12-.8.8-4.37-1A8.32,8.32,0,0,1,165.24,397.9Zm0-15.29a7,7,0,1,0,3.6,13l.49-.07,3.59.83-1-4.24,0-.36a7.14,7.14,0,0,0,.34-2.14A7,7,0,0,0,165.24,382.61Z" style="fill:#c7c7c7"></path><path d="M359.08,397.78l-1.05-.54V383.12l.67-.66h11.47l.66.66v14.12l-1.05.54-5.35-4.86Zm.28-14v12.16l4.68-4.37h.78l4.69,4.37V383.78Z" style="fill:#c7c7c7"></path></g><g id="freepik--Character--inject-136"><path d="M278.29,251.86a.87.87,0,0,1-.82.82c-1-.05-2.22-.14-3.58-.23-2.09-8.7-4.65-15.73-4.09-13a42.94,42.94,0,0,1,.57,12.79l-7.05-.57c-.84-14.94-3-26.22-3.18-22.86-.88,13.58-2.24,17.8-3.79,22.29-17-1.43-39.3-3.56-55.38-5.44-.79-8.3-1.27-17.24-1.63-16.67-2.79,4.27-4.25,10.8-5,15.88-5.11-.64-9.19-1.24-11.66-1.73,0,0-.3-6.93-.18-9.18a46.91,46.91,0,0,1,4-16.74c2.44-5.43,6-10,9.49-14.78l.09-.11s0,0,0,0a48.36,48.36,0,0,0,5.66-9.95l0-.07a46.61,46.61,0,0,0,2.39-7.91c2-9.85,8.79-17.72,18.49-19.13,19.86-14.32,36.64-5,40.3,8.46.35,1.31.66,2.8,1,4.42v.05c1.06,6,1.69,13.67,2.43,19.63,0,0,0,0,0,0s0,0,0,.06v0a53.91,53.91,0,0,0,1.22,6.94C270.75,215.78,280.17,223,278.29,251.86Z" style="fill:#263238"></path><path d="M218.29,167.4c-6.56,2.4-10.94,6.58-12.84,13.72-1.11,4.16-1.94,8.26-4.09,12s-5.32,6.94-8.5,10c-5,4.8-8.77,9.75-10.39,16.8s-2.41,15.74-.86,22.81a0,0,0,0,0,.07,0c-1.08-7.11.11-16.6,2.28-23.61,2.38-7.71,7.49-12.09,12.84-17.48a33.07,33.07,0,0,0,8.83-15.21c.93-3.53,1.37-7.27,3.26-10.46,2.25-3.82,6-5.93,9.74-7.77A.43.43,0,0,0,218.29,167.4Z" style="fill:#263238"></path><path d="M276.47,217.29c-3.59-6.21-7.46-11.61-9.08-18.94-1.47-6.68-1.91-13.6-3.42-20.28,0-.11-.19-.08-.16,0,2.13,11.79,1.33,23.3,7.39,33.77,3.29,5.69,6.63,11,8.43,17.54a55.52,55.52,0,0,1,1.42,21,.18.18,0,1,0,.35.05A46.08,46.08,0,0,0,276.47,217.29Z" style="fill:#263238"></path><path d="M252.28,256.7c31.94,33.47,71.65,103.43,63.79,117.34-8.74,15.5-54.8-32.15-53.35-34.43,1.23-1.94-14.69-44.06-26.25-74.87S244.38,248.42,252.28,256.7Z" style="fill:#c95f50"></path><path d="M291.41,296.83l-45.85,8.26s-11.45-32.5-13.72-50.54c-1.28-10.11,4.67-10.52,12.14-5.15C270.15,268.21,291.41,296.83,291.41,296.83Z" style="fill:#74B9FF"></path><path d="M242,260.27a3.69,3.69,0,0,1-.77.89,5.35,5.35,0,0,1-.5.4h-.14a4.54,4.54,0,0,1-1.26-1.3,1.4,1.4,0,0,1-.09-1.35.66.66,0,0,1,.59-.34.88.88,0,0,0,1.65,0,.67.67,0,0,1,.6.34A1.42,1.42,0,0,1,242,260.27Zm14.17-1.15a1.53,1.53,0,0,0,.17,1.14,4.53,4.53,0,0,0,1.26,1.3h.14a4.82,4.82,0,0,0,.51-.4.57.57,0,0,0,.11-.11C257.68,260.41,257,259.75,256.21,259.12ZM233.61,248a.65.65,0,0,0-.59-.34.79.79,0,0,0-.38.09h0a6.32,6.32,0,0,0-.87,2.62,3.22,3.22,0,0,0,.36.27h.14s.23-.17.49-.4a3.69,3.69,0,0,0,.77-.89A1.42,1.42,0,0,0,233.61,248Zm8.51,32.77a.67.67,0,0,0-.6-.34.88.88,0,0,1-1.65,0,.66.66,0,0,0-.59.34,1.4,1.4,0,0,0,.09,1.35,4.45,4.45,0,0,0,1.26,1.29h.14a4.43,4.43,0,0,0,.5-.39,3.74,3.74,0,0,0,.77-.9A1.4,1.4,0,0,0,242.12,280.73Zm17,0a.68.68,0,0,0-.6-.34.94.94,0,0,0-.83.58.92.92,0,0,0-.82-.58.68.68,0,0,0-.6.34,1.4,1.4,0,0,0,.09,1.35,4.44,4.44,0,0,0,1.27,1.29h.13a5.1,5.1,0,0,0,.51-.39,3.7,3.7,0,0,0,.76-.9A1.43,1.43,0,0,0,259.14,280.73Zm17,0a.67.67,0,0,0-.6-.34.92.92,0,0,0-.82.58.93.93,0,0,0-.83-.58.66.66,0,0,0-.59.34,1.4,1.4,0,0,0,.08,1.35,4.44,4.44,0,0,0,1.27,1.29h.14a5.75,5.75,0,0,0,.5-.39,3.49,3.49,0,0,0,.76-.9A1.4,1.4,0,0,0,276.15,280.73Zm-25.52-11a.67.67,0,0,0-.6-.34.92.92,0,0,0-.82.58.93.93,0,0,0-.83-.58.69.69,0,0,0-.6.34,1.43,1.43,0,0,0,.09,1.35,4.53,4.53,0,0,0,1.27,1.3h.13s.25-.17.51-.4a3.49,3.49,0,0,0,.76-.9A1.4,1.4,0,0,0,250.63,269.78Zm17,0a.69.69,0,0,0-.6-.34.88.88,0,0,1-1.65,0,.67.67,0,0,0-.6.34,1.4,1.4,0,0,0,.09,1.35,4.68,4.68,0,0,0,1.26,1.3h.14s.24-.17.51-.4a3.94,3.94,0,0,0,.76-.9A1.43,1.43,0,0,0,267.65,269.78Zm-8.51,32.76a.71.71,0,0,0-.6-.34.92.92,0,0,0-.82.58.94.94,0,0,0-.83-.58.67.67,0,0,0-.59.34,1.12,1.12,0,0,0-.14.64l3-.54A.19.19,0,0,0,259.14,302.54Zm-8.51-10.94a.68.68,0,0,0-.6-.35.93.93,0,0,0-.82.59.94.94,0,0,0-.83-.59.7.7,0,0,0-.6.35,1.43,1.43,0,0,0,.09,1.35,4.44,4.44,0,0,0,1.27,1.29h.13a3.65,3.65,0,0,0,.51-.4,3.29,3.29,0,0,0,.76-.89A1.4,1.4,0,0,0,250.63,291.6Zm17,0a.7.7,0,0,0-.6-.35.87.87,0,0,1-1.65,0,.68.68,0,0,0-.6.35,1.4,1.4,0,0,0,.09,1.35,4.59,4.59,0,0,0,1.26,1.29h.14a4.45,4.45,0,0,0,.51-.4,3.68,3.68,0,0,0,.76-.89A1.43,1.43,0,0,0,267.65,291.6Zm17,0a.68.68,0,0,0-.6-.35.93.93,0,0,0-.82.59,1,1,0,0,0-.83-.59.69.69,0,0,0-.6.35,1.43,1.43,0,0,0,.09,1.35,4.44,4.44,0,0,0,1.27,1.29h.13a4.45,4.45,0,0,0,.51-.4,3.29,3.29,0,0,0,.76-.89A1.4,1.4,0,0,0,284.66,291.6Z" style="fill:#fff"></path><path d="M245.86,297.58c6.95-1.86,25.94-6.34,38.67-7.64.08,0,.14.28.07.3C274.17,292.92,253,296.76,246,298,245.82,298,245.73,297.61,245.86,297.58Z" style="fill:#263238"></path><path d="M285.27,297.94l-39.72,7.14s-11.44-32.49-13.71-50.52c-.82-6.47,1.33-9,4.94-8.53Z" style="opacity:0.1"></path><path d="M270.91,372.67H154.69s10.57-81.08,48-123.71c10.1-11.5,28.42-8.1,37.08-.32a81.65,81.65,0,0,1,8.43,9.58c7.87,10.12,20.73,34.4,21.93,41,2,10.86-7.62,22.6-7.62,22.6Z" style="fill:#74B9FF"></path><path d="M208,260.27a3.88,3.88,0,0,1-.76.89,6.34,6.34,0,0,1-.51.4h-.13a4.53,4.53,0,0,1-1.27-1.3,1.4,1.4,0,0,1-.09-1.35.67.67,0,0,1,.6-.34.92.92,0,0,1,.82.58.93.93,0,0,1,.83-.58.69.69,0,0,1,.6.34A1.45,1.45,0,0,1,208,260.27Zm17.1-1.36a.67.67,0,0,0-.6-.34.92.92,0,0,0-.82.58.94.94,0,0,0-.83-.58.68.68,0,0,0-.6.34,1.43,1.43,0,0,0,.09,1.35,4.53,4.53,0,0,0,1.27,1.3h.13a4.82,4.82,0,0,0,.51-.4,3.45,3.45,0,0,0,.76-.89A1.42,1.42,0,0,0,225.11,258.91Zm17,0a.67.67,0,0,0-.6-.34.88.88,0,0,1-1.65,0,.66.66,0,0,0-.59.34,1.4,1.4,0,0,0,.09,1.35,4.54,4.54,0,0,0,1.26,1.3h.14a5.35,5.35,0,0,0,.5-.4,3.69,3.69,0,0,0,.77-.89A1.42,1.42,0,0,0,242.12,258.91ZM216.6,248a.67.67,0,0,0-.6-.34.93.93,0,0,0-.82.58,1,1,0,0,0-.83-.58.66.66,0,0,0-.59.34,1.42,1.42,0,0,0,.08,1.36,4.73,4.73,0,0,0,1.27,1.29h.14s.24-.17.5-.4a3.29,3.29,0,0,0,.76-.89A1.42,1.42,0,0,0,216.6,248Zm17,0a.68.68,0,0,0-.6-.34,1,1,0,0,0-.83.58.93.93,0,0,0-.82-.58.67.67,0,0,0-.6.34,1.42,1.42,0,0,0,.09,1.36,4.59,4.59,0,0,0,1.27,1.29h.13a6.34,6.34,0,0,0,.51-.4,3.48,3.48,0,0,0,.76-.89A1.45,1.45,0,0,0,233.62,248Zm-42.54,32.77a.67.67,0,0,0-.6-.34.92.92,0,0,0-.82.58.93.93,0,0,0-.83-.58.69.69,0,0,0-.6.34,1.43,1.43,0,0,0,.09,1.35,4.44,4.44,0,0,0,1.27,1.29h.14a5.75,5.75,0,0,0,.5-.39,3.49,3.49,0,0,0,.76-.9A1.4,1.4,0,0,0,191.08,280.73Zm17,0a.69.69,0,0,0-.6-.34.93.93,0,0,0-.83.58.92.92,0,0,0-.82-.58.67.67,0,0,0-.6.34,1.4,1.4,0,0,0,.09,1.35,4.44,4.44,0,0,0,1.27,1.29h.13a5.1,5.1,0,0,0,.51-.39,3.94,3.94,0,0,0,.76-.9A1.43,1.43,0,0,0,208.1,280.73Zm17,0a.67.67,0,0,0-.6-.34.92.92,0,0,0-.82.58.94.94,0,0,0-.83-.58.68.68,0,0,0-.6.34,1.43,1.43,0,0,0,.09,1.35,4.44,4.44,0,0,0,1.27,1.29h.13a4.07,4.07,0,0,0,.51-.39,3.49,3.49,0,0,0,.76-.9A1.4,1.4,0,0,0,225.11,280.73Zm17,0a.67.67,0,0,0-.6-.34.88.88,0,0,1-1.65,0,.66.66,0,0,0-.59.34,1.4,1.4,0,0,0,.09,1.35,4.45,4.45,0,0,0,1.26,1.29h.14a4.43,4.43,0,0,0,.5-.39,3.74,3.74,0,0,0,.77-.9A1.4,1.4,0,0,0,242.12,280.73Zm17,0a.68.68,0,0,0-.6-.34.94.94,0,0,0-.83.58.92.92,0,0,0-.82-.58.68.68,0,0,0-.6.34,1.4,1.4,0,0,0,.09,1.35,4.44,4.44,0,0,0,1.27,1.29h.13a5.1,5.1,0,0,0,.51-.39,3.7,3.7,0,0,0,.76-.9A1.43,1.43,0,0,0,259.14,280.73Zm-59.55-11a.68.68,0,0,0-.6-.34.92.92,0,0,0-.82.58.94.94,0,0,0-.83-.58.68.68,0,0,0-.6.34,1.43,1.43,0,0,0,.09,1.35,4.53,4.53,0,0,0,1.27,1.3h.13s.24-.17.51-.4a3.49,3.49,0,0,0,.76-.9A1.4,1.4,0,0,0,199.59,269.78Zm17,0a.67.67,0,0,0-.6-.34.92.92,0,0,0-.82.58.93.93,0,0,0-.83-.58.66.66,0,0,0-.59.34,1.4,1.4,0,0,0,.08,1.35,4.67,4.67,0,0,0,1.27,1.3h.14s.24-.17.5-.4a3.49,3.49,0,0,0,.76-.9A1.4,1.4,0,0,0,216.6,269.78Zm17,0a.68.68,0,0,0-.6-.34.94.94,0,0,0-.83.58.92.92,0,0,0-.82-.58.67.67,0,0,0-.6.34,1.4,1.4,0,0,0,.09,1.35,4.53,4.53,0,0,0,1.27,1.3h.13s.24-.17.51-.4a3.7,3.7,0,0,0,.76-.9A1.43,1.43,0,0,0,233.62,269.78Zm17,0a.67.67,0,0,0-.6-.34.92.92,0,0,0-.82.58.93.93,0,0,0-.83-.58.69.69,0,0,0-.6.34,1.43,1.43,0,0,0,.09,1.35,4.53,4.53,0,0,0,1.27,1.3h.13s.25-.17.51-.4a3.49,3.49,0,0,0,.76-.9A1.4,1.4,0,0,0,250.63,269.78Zm-76.57,32.76a.67.67,0,0,0-.59-.34.94.94,0,0,0-.83.58s0-.07,0-.1c-.25.64-.49,1.27-.71,1.92h0a5.63,5.63,0,0,0,.7.58h.14s.23-.17.5-.4a3.88,3.88,0,0,0,.76-.89A1.42,1.42,0,0,0,174.06,302.54Zm17,0a.67.67,0,0,0-.6-.34.93.93,0,0,0-.82.58,1,1,0,0,0-.83-.58.69.69,0,0,0-.6.34,1.45,1.45,0,0,0,.09,1.36,4.44,4.44,0,0,0,1.27,1.29h.14a4.92,4.92,0,0,0,.5-.4,3.29,3.29,0,0,0,.76-.89A1.42,1.42,0,0,0,191.08,302.54Zm17,0a.69.69,0,0,0-.6-.34,1,1,0,0,0-.83.58.93.93,0,0,0-.82-.58.67.67,0,0,0-.6.34,1.42,1.42,0,0,0,.09,1.36,4.44,4.44,0,0,0,1.27,1.29h.13a4.45,4.45,0,0,0,.51-.4,3.68,3.68,0,0,0,.76-.89A1.45,1.45,0,0,0,208.1,302.54Zm17,0a.67.67,0,0,0-.6-.34.93.93,0,0,0-.82.58,1,1,0,0,0-.83-.58.68.68,0,0,0-.6.34,1.45,1.45,0,0,0,.09,1.36,4.44,4.44,0,0,0,1.27,1.29h.13a3.65,3.65,0,0,0,.51-.4,3.29,3.29,0,0,0,.76-.89A1.42,1.42,0,0,0,225.11,302.54Zm17,0a.67.67,0,0,0-.6-.34.88.88,0,0,1-1.65,0,.66.66,0,0,0-.59.34,1.42,1.42,0,0,0,.09,1.36,4.45,4.45,0,0,0,1.26,1.29h.14a3.92,3.92,0,0,0,.5-.4,3.51,3.51,0,0,0,.77-.89A1.42,1.42,0,0,0,242.12,302.54Zm17,0a.68.68,0,0,0-.6-.34,1,1,0,0,0-.83.58.93.93,0,0,0-.82-.58.68.68,0,0,0-.6.34,1.42,1.42,0,0,0,.09,1.36,4.44,4.44,0,0,0,1.27,1.29h.13a4.45,4.45,0,0,0,.51-.4,3.48,3.48,0,0,0,.76-.89A1.45,1.45,0,0,0,259.14,302.54ZM182.57,291.6a.67.67,0,0,0-.59-.35.87.87,0,0,1-1.65,0,.68.68,0,0,0-.6.35,1.4,1.4,0,0,0,.09,1.35,4.59,4.59,0,0,0,1.26,1.29h.14a4.45,4.45,0,0,0,.51-.4,3.68,3.68,0,0,0,.76-.89A1.4,1.4,0,0,0,182.57,291.6Zm17,0a.69.69,0,0,0-.6-.35.93.93,0,0,0-.82.59,1,1,0,0,0-.83-.59.69.69,0,0,0-.6.35,1.43,1.43,0,0,0,.09,1.35,4.44,4.44,0,0,0,1.27,1.29h.13a4.45,4.45,0,0,0,.51-.4,3.29,3.29,0,0,0,.76-.89A1.4,1.4,0,0,0,199.59,291.6Zm17,0a.68.68,0,0,0-.6-.35.93.93,0,0,0-.82.59.94.94,0,0,0-.83-.59.67.67,0,0,0-.59.35,1.4,1.4,0,0,0,.08,1.35,4.57,4.57,0,0,0,1.27,1.29h.14a4.92,4.92,0,0,0,.5-.4,3.29,3.29,0,0,0,.76-.89A1.4,1.4,0,0,0,216.6,291.6Zm17,0a.69.69,0,0,0-.6-.35,1,1,0,0,0-.83.59.93.93,0,0,0-.82-.59.68.68,0,0,0-.6.35,1.4,1.4,0,0,0,.09,1.35,4.44,4.44,0,0,0,1.27,1.29h.13a4.45,4.45,0,0,0,.51-.4,3.48,3.48,0,0,0,.76-.89A1.43,1.43,0,0,0,233.62,291.6Zm17,0a.68.68,0,0,0-.6-.35.93.93,0,0,0-.82.59.94.94,0,0,0-.83-.59.7.7,0,0,0-.6.35,1.43,1.43,0,0,0,.09,1.35,4.44,4.44,0,0,0,1.27,1.29h.13a3.65,3.65,0,0,0,.51-.4,3.29,3.29,0,0,0,.76-.89A1.4,1.4,0,0,0,250.63,291.6Zm16.62-.32a.69.69,0,0,0-.2,0,1,1,0,0,0-.83.58.94.94,0,0,0-.83-.58.66.66,0,0,0-.59.34,1.42,1.42,0,0,0,.08,1.36,4.81,4.81,0,0,0,1.28,1.3h.13s.24-.17.5-.41a3.51,3.51,0,0,0,.77-.89,1.9,1.9,0,0,0,.18-.52h0Zm-93.18,33.08a.68.68,0,0,0-.6-.34.94.94,0,0,0-.83.58.92.92,0,0,0-.82-.58.67.67,0,0,0-.6.34,1.4,1.4,0,0,0,.09,1.35,4.53,4.53,0,0,0,1.27,1.3h.13a6.34,6.34,0,0,0,.51-.4,3.65,3.65,0,0,0,.76-.89A1.45,1.45,0,0,0,174.07,324.36Zm17,0a.67.67,0,0,0-.6-.34.92.92,0,0,0-.82.58.93.93,0,0,0-.83-.58.69.69,0,0,0-.6.34,1.43,1.43,0,0,0,.09,1.35,4.53,4.53,0,0,0,1.27,1.3h.14s.24-.17.5-.4a3.45,3.45,0,0,0,.76-.89A1.42,1.42,0,0,0,191.08,324.36Zm17,0a.69.69,0,0,0-.6-.34.93.93,0,0,0-.83.58.92.92,0,0,0-.82-.58.67.67,0,0,0-.6.34,1.4,1.4,0,0,0,.09,1.35,4.53,4.53,0,0,0,1.27,1.3h.13a6.34,6.34,0,0,0,.51-.4,3.88,3.88,0,0,0,.76-.89A1.45,1.45,0,0,0,208.1,324.36Zm17,0a.67.67,0,0,0-.6-.34.92.92,0,0,0-.82.58.94.94,0,0,0-.83-.58.68.68,0,0,0-.6.34,1.43,1.43,0,0,0,.09,1.35,4.53,4.53,0,0,0,1.27,1.3h.13a4.82,4.82,0,0,0,.51-.4,3.45,3.45,0,0,0,.76-.89A1.42,1.42,0,0,0,225.11,324.36Zm17,0a.67.67,0,0,0-.6-.34.88.88,0,0,1-1.65,0,.66.66,0,0,0-.59.34,1.4,1.4,0,0,0,.09,1.35,4.54,4.54,0,0,0,1.26,1.3h.14a5.35,5.35,0,0,0,.5-.4,3.69,3.69,0,0,0,.77-.89A1.42,1.42,0,0,0,242.12,324.36Zm17,0a.68.68,0,0,0-.6-.34.94.94,0,0,0-.83.58.92.92,0,0,0-.82-.58.68.68,0,0,0-.6.34,1.4,1.4,0,0,0,.09,1.35,4.53,4.53,0,0,0,1.27,1.3h.13a6.34,6.34,0,0,0,.51-.4,3.65,3.65,0,0,0,.76-.89A1.45,1.45,0,0,0,259.14,324.36Zm-76.57-10.95a.66.66,0,0,0-.59-.34.88.88,0,0,1-1.65,0,.67.67,0,0,0-.6.34,1.4,1.4,0,0,0,.09,1.35,4.68,4.68,0,0,0,1.26,1.3h.14a6.34,6.34,0,0,0,.51-.4,3.68,3.68,0,0,0,.76-.89A1.42,1.42,0,0,0,182.57,313.41Zm17,0a.68.68,0,0,0-.6-.34.92.92,0,0,0-.82.58.94.94,0,0,0-.83-.58.68.68,0,0,0-.6.34,1.43,1.43,0,0,0,.09,1.35,4.53,4.53,0,0,0,1.27,1.3h.13a6.34,6.34,0,0,0,.51-.4,3.29,3.29,0,0,0,.76-.89A1.42,1.42,0,0,0,199.59,313.41Zm17,0a.67.67,0,0,0-.6-.34.92.92,0,0,0-.82.58.93.93,0,0,0-.83-.58.66.66,0,0,0-.59.34,1.4,1.4,0,0,0,.08,1.35,4.67,4.67,0,0,0,1.27,1.3h.14s.24-.17.5-.4a3.29,3.29,0,0,0,.76-.89A1.42,1.42,0,0,0,216.6,313.41Zm17,0a.68.68,0,0,0-.6-.34.94.94,0,0,0-.83.58.92.92,0,0,0-.82-.58.67.67,0,0,0-.6.34,1.4,1.4,0,0,0,.09,1.35,4.53,4.53,0,0,0,1.27,1.3h.13a6.34,6.34,0,0,0,.51-.4,3.48,3.48,0,0,0,.76-.89A1.45,1.45,0,0,0,233.62,313.41Zm17,0a.67.67,0,0,0-.6-.34.92.92,0,0,0-.82.58.93.93,0,0,0-.83-.58.69.69,0,0,0-.6.34,1.43,1.43,0,0,0,.09,1.35,4.53,4.53,0,0,0,1.27,1.3h.13a4.82,4.82,0,0,0,.51-.4,3.29,3.29,0,0,0,.76-.89A1.42,1.42,0,0,0,250.63,313.41Zm16.42-.34a.93.93,0,0,0-.83.58.92.92,0,0,0-.83-.58.66.66,0,0,0-.59.34,1.4,1.4,0,0,0,.08,1.35,4.5,4.5,0,0,0,1.28,1.3h.13c.45-.82.91-1.71,1.34-2.66A.65.65,0,0,0,267.05,313.07Zm-93,33.11a.69.69,0,0,0-.6-.35,1,1,0,0,0-.83.59.93.93,0,0,0-.82-.59.68.68,0,0,0-.6.35,1.4,1.4,0,0,0,.09,1.35,4.44,4.44,0,0,0,1.27,1.29h.13a4.45,4.45,0,0,0,.51-.4,3.48,3.48,0,0,0,.76-.89A1.43,1.43,0,0,0,174.07,346.18Zm17,0a.68.68,0,0,0-.6-.35.93.93,0,0,0-.82.59.94.94,0,0,0-.83-.59.7.7,0,0,0-.6.35,1.43,1.43,0,0,0,.09,1.35,4.44,4.44,0,0,0,1.27,1.29h.14a4.92,4.92,0,0,0,.5-.4,3.29,3.29,0,0,0,.76-.89A1.4,1.4,0,0,0,191.08,346.18Zm17,0a.7.7,0,0,0-.6-.35.94.94,0,0,0-.83.59.93.93,0,0,0-.82-.59.68.68,0,0,0-.6.35,1.4,1.4,0,0,0,.09,1.35,4.44,4.44,0,0,0,1.27,1.29h.13a4.45,4.45,0,0,0,.51-.4,3.68,3.68,0,0,0,.76-.89A1.43,1.43,0,0,0,208.1,346.18Zm17,0a.68.68,0,0,0-.6-.35.93.93,0,0,0-.82.59,1,1,0,0,0-.83-.59.69.69,0,0,0-.6.35,1.43,1.43,0,0,0,.09,1.35,4.44,4.44,0,0,0,1.27,1.29h.13a3.65,3.65,0,0,0,.51-.4,3.29,3.29,0,0,0,.76-.89A1.4,1.4,0,0,0,225.11,346.18Zm17,0a.68.68,0,0,0-.6-.35.87.87,0,0,1-1.65,0,.67.67,0,0,0-.59.35,1.4,1.4,0,0,0,.09,1.35,4.45,4.45,0,0,0,1.26,1.29h.14a3.92,3.92,0,0,0,.5-.4,3.51,3.51,0,0,0,.77-.89A1.4,1.4,0,0,0,242.12,346.18Zm17,0a.69.69,0,0,0-.6-.35,1,1,0,0,0-.83.59.93.93,0,0,0-.82-.59.69.69,0,0,0-.6.35,1.4,1.4,0,0,0,.09,1.35,4.44,4.44,0,0,0,1.27,1.29h.13a4.45,4.45,0,0,0,.51-.4,3.48,3.48,0,0,0,.76-.89A1.43,1.43,0,0,0,259.14,346.18Zm-93.58-10.95a.67.67,0,0,0-.6-.34.92.92,0,0,0-.82.58.93.93,0,0,0-.83-.58.69.69,0,0,0-.6.34,1.43,1.43,0,0,0,.09,1.35,4.53,4.53,0,0,0,1.27,1.3h.13s.25-.17.51-.4a3.49,3.49,0,0,0,.76-.9A1.4,1.4,0,0,0,165.56,335.23Zm17,0a.66.66,0,0,0-.59-.34.88.88,0,0,1-1.65,0,.67.67,0,0,0-.6.34,1.4,1.4,0,0,0,.09,1.35,4.68,4.68,0,0,0,1.26,1.3h.14s.24-.17.51-.4a3.94,3.94,0,0,0,.76-.9A1.4,1.4,0,0,0,182.57,335.23Zm17,0a.68.68,0,0,0-.6-.34.92.92,0,0,0-.82.58.94.94,0,0,0-.83-.58.68.68,0,0,0-.6.34,1.43,1.43,0,0,0,.09,1.35,4.53,4.53,0,0,0,1.27,1.3h.13s.24-.17.51-.4a3.49,3.49,0,0,0,.76-.9A1.4,1.4,0,0,0,199.59,335.23Zm17,0a.67.67,0,0,0-.6-.34.92.92,0,0,0-.82.58.93.93,0,0,0-.83-.58.66.66,0,0,0-.59.34,1.4,1.4,0,0,0,.08,1.35,4.67,4.67,0,0,0,1.27,1.3h.14s.24-.17.5-.4a3.49,3.49,0,0,0,.76-.9A1.4,1.4,0,0,0,216.6,335.23Zm17,0a.68.68,0,0,0-.6-.34.94.94,0,0,0-.83.58.92.92,0,0,0-.82-.58.67.67,0,0,0-.6.34,1.4,1.4,0,0,0,.09,1.35,4.53,4.53,0,0,0,1.27,1.3h.13s.24-.17.51-.4a3.7,3.7,0,0,0,.76-.9A1.43,1.43,0,0,0,233.62,335.23Zm17,0a.67.67,0,0,0-.6-.34.92.92,0,0,0-.82.58.93.93,0,0,0-.83-.58.69.69,0,0,0-.6.34,1.43,1.43,0,0,0,.09,1.35,4.53,4.53,0,0,0,1.27,1.3h.13s.25-.17.51-.4a3.49,3.49,0,0,0,.76-.9A1.4,1.4,0,0,0,250.63,335.23Zm14.12.13a1.42,1.42,0,0,0,.13,1.22.62.62,0,0,0,.11.17ZM157.05,368a.68.68,0,0,0-.6-.35.93.93,0,0,0-.82.58,1.41,1.41,0,0,0-.21-.31c-.16.89-.27,1.67-.38,2.32a5.6,5.6,0,0,0,.52.4h.14l.5-.39a3.21,3.21,0,0,0,.76-.91A1.38,1.38,0,0,0,157.05,368Zm17,0a.68.68,0,0,0-.6-.34,1,1,0,0,0-.83.58.93.93,0,0,0-.82-.58.67.67,0,0,0-.6.34,1.42,1.42,0,0,0,.09,1.36,4.59,4.59,0,0,0,1.27,1.29h.13a6.34,6.34,0,0,0,.51-.4,3.48,3.48,0,0,0,.76-.89A1.45,1.45,0,0,0,174.07,368Zm17,0a.67.67,0,0,0-.6-.34.93.93,0,0,0-.82.58,1,1,0,0,0-.83-.58.69.69,0,0,0-.6.34,1.45,1.45,0,0,0,.09,1.36,4.59,4.59,0,0,0,1.27,1.29h.14s.24-.17.5-.4a3.29,3.29,0,0,0,.76-.89A1.42,1.42,0,0,0,191.08,368Zm17,0a.69.69,0,0,0-.6-.34,1,1,0,0,0-.83.58.93.93,0,0,0-.82-.58.67.67,0,0,0-.6.34,1.42,1.42,0,0,0,.09,1.36,4.59,4.59,0,0,0,1.27,1.29h.13a6.34,6.34,0,0,0,.51-.4,3.68,3.68,0,0,0,.76-.89A1.45,1.45,0,0,0,208.1,368Zm17,0a.67.67,0,0,0-.6-.34.93.93,0,0,0-.82.58,1,1,0,0,0-.83-.58.68.68,0,0,0-.6.34,1.45,1.45,0,0,0,.09,1.36,4.59,4.59,0,0,0,1.27,1.29h.13a4.82,4.82,0,0,0,.51-.4,3.29,3.29,0,0,0,.76-.89A1.42,1.42,0,0,0,225.11,368Zm17,0a.67.67,0,0,0-.6-.34.88.88,0,0,1-1.65,0,.66.66,0,0,0-.59.34,1.42,1.42,0,0,0,.09,1.36,4.6,4.6,0,0,0,1.26,1.29h.14a5.35,5.35,0,0,0,.5-.4,3.51,3.51,0,0,0,.77-.89A1.42,1.42,0,0,0,242.12,368Zm17,0a.68.68,0,0,0-.6-.34,1,1,0,0,0-.83.58.93.93,0,0,0-.82-.58.68.68,0,0,0-.6.34,1.42,1.42,0,0,0,.09,1.36,4.59,4.59,0,0,0,1.27,1.29h.13a6.34,6.34,0,0,0,.51-.4,3.48,3.48,0,0,0,.76-.89A1.45,1.45,0,0,0,259.14,368ZM165.56,357a.67.67,0,0,0-.6-.34.93.93,0,0,0-.82.58,1,1,0,0,0-.83-.58.69.69,0,0,0-.6.34,1.45,1.45,0,0,0,.09,1.36,4.44,4.44,0,0,0,1.27,1.29h.13a3.65,3.65,0,0,0,.51-.4,3.29,3.29,0,0,0,.76-.89A1.42,1.42,0,0,0,165.56,357Zm17,0a.66.66,0,0,0-.59-.34.88.88,0,0,1-1.65,0,.67.67,0,0,0-.6.34,1.42,1.42,0,0,0,.09,1.36,4.59,4.59,0,0,0,1.26,1.29h.14a4.45,4.45,0,0,0,.51-.4,3.68,3.68,0,0,0,.76-.89A1.42,1.42,0,0,0,182.57,357Zm17,0a.68.68,0,0,0-.6-.34.93.93,0,0,0-.82.58,1,1,0,0,0-.83-.58.68.68,0,0,0-.6.34,1.45,1.45,0,0,0,.09,1.36,4.44,4.44,0,0,0,1.27,1.29h.13a4.45,4.45,0,0,0,.51-.4,3.29,3.29,0,0,0,.76-.89A1.42,1.42,0,0,0,199.59,357Zm17,0a.67.67,0,0,0-.6-.34.93.93,0,0,0-.82.58,1,1,0,0,0-.83-.58.66.66,0,0,0-.59.34,1.42,1.42,0,0,0,.08,1.36,4.57,4.57,0,0,0,1.27,1.29h.14a4.92,4.92,0,0,0,.5-.4,3.29,3.29,0,0,0,.76-.89A1.42,1.42,0,0,0,216.6,357Zm17,0a.68.68,0,0,0-.6-.34,1,1,0,0,0-.83.58.93.93,0,0,0-.82-.58.67.67,0,0,0-.6.34,1.42,1.42,0,0,0,.09,1.36,4.44,4.44,0,0,0,1.27,1.29h.13a4.45,4.45,0,0,0,.51-.4,3.48,3.48,0,0,0,.76-.89A1.45,1.45,0,0,0,233.62,357Zm17,0a.67.67,0,0,0-.6-.34.93.93,0,0,0-.82.58,1,1,0,0,0-.83-.58.69.69,0,0,0-.6.34,1.45,1.45,0,0,0,.09,1.36,4.44,4.44,0,0,0,1.27,1.29h.13a3.65,3.65,0,0,0,.51-.4,3.29,3.29,0,0,0,.76-.89A1.42,1.42,0,0,0,250.63,357Zm17,0a.69.69,0,0,0-.6-.34.88.88,0,0,1-1.65,0,.67.67,0,0,0-.6.34,1.42,1.42,0,0,0,.09,1.36,4.59,4.59,0,0,0,1.26,1.29h.14a4.45,4.45,0,0,0,.51-.4,3.68,3.68,0,0,0,.76-.89A1.45,1.45,0,0,0,267.65,357Z" style="fill:#fff"></path><path d="M271.33,298.6c-1.08-4.48-3.57-8.57-5.76-12.57-2.31-4.23-4.73-8.39-7.22-12.51l-.27-.44c-.41-1.32-1-2.61-1.51-3.89-.64-1.63-1.33-3.25-2-4.9,0-.05-.11,0-.09,0,.52,1.71,1,3.42,1.66,5.09l.48,1.31c-.84-1.37-1.68-2.74-2.55-4.1-1.48-2.31-3-4.57-4.52-6.88,0-.06-.13,0-.09.05,2.37,4.06,4.65,8.17,7,12.23s4.68,8.14,6.9,12.28c1.09,2.05,2.16,4.12,3.19,6.21a53.5,53.5,0,0,1,2.66,6.06,19.54,19.54,0,0,1,.09,12.44c-1.43,4.58-4,8.74-6.4,12.85-.1.16.15.36.28.2C268.31,315.37,273.44,307.39,271.33,298.6Z" style="fill:#263238"></path><path d="M316.07,374c-7.48,10.34-27.42,12-77.23,20.9-6.9,1.23-28.67-45.08-21.38-46.77,9.19-2.14,45.3-8.42,48-8.55C288.22,338.56,321.15,367,316.07,374Z" style="fill:#c95f50"></path><path d="M227.43,346.07s-21.09,2.82-31.7,7.74c-14.22,6.58-23.79,18.12-27.51,23.19-7.76,10.6-19.19,41.58-10.84,46.44,7.55,4.39,17.64-27.88,17.64-27.88s-15.71,31.2-5.64,34.81S189,395.87,189,395.87s-15.43,32.42-4.46,34.5c8.3,1.57,18.92-32.46,18.92-32.46s-13.06,27.95-4.6,29.94C208.25,430,220,399.24,220,399.24c22.36,1.43,33.59-7,40.86-14C262.64,383.55,227.43,346.07,227.43,346.07Z" style="fill:#c95f50"></path><path d="M179.77,384.42c-2,3.6-4,7.23-5.66,11s-3.17,7.59-4.47,11.48c-3.17,9.57-3.67,16.05-3.59,15.65,1.75-9.39,7.45-23,9.11-26.71s3.11-7.59,4.75-11.35C180,384.39,179.81,384.34,179.77,384.42Z" style="fill:#263238"></path><path d="M193.46,390.14c-2.33,4.71-4.81,9.29-6.93,14.1s-3.7,9.51-5.47,14.42c-.14.38.11.33.26,0,2-4.85,4.17-9.17,6.19-14s3.87-9.72,6.06-14.44C193.61,390.12,193.49,390.07,193.46,390.14Z" style="fill:#263238"></path><path d="M206.09,392.94c-3.93,7-6.55,14.73-9,22.36-.12.38.19.28.34-.1,2.83-7.49,5-13.39,8.85-22.13C206.39,392.94,206.17,392.79,206.09,392.94Z" style="fill:#263238"></path><path d="M287.44,345.21c-3.31-2.1-12.69-7-21.91-5.66a.08.08,0,1,0,0,.16c7.6,0,18.46,3.86,21.84,5.63C287.45,345.39,287.52,345.26,287.44,345.21Z" style="fill:#263238"></path><path d="M218.42,243.49c.5,1.92,10.05,14.18,18.85,13.52,2.87-.22,2.38-15.91,2.38-15.91l.23-1.17,3.18-16.34-19.41-11.72-2.8-1.54s-.58,4.53-1.24,10.17c0,.26-.07.52-.1.8s-.09.62-.12.92c-.11.84-.22,1.7-.31,2.56-.07.66-.14,1.29-.19,2s-.12,1.36-.19,2.05A107.63,107.63,0,0,0,218.42,243.49Z" style="fill:#c95f50"></path><path d="M219.61,220.5a33.39,33.39,0,0,0,20.27,19.43l3.18-16.34-19.41-11.72-2.8-1.54S220.27,214.86,219.61,220.5Z" style="fill:#263238"></path><path d="M267.22,195.73c4.71,28.84-12,34.92-18.24,35.93-5.65.91-25,3.32-32.66-24.88s4.26-39.5,17.06-42.28S262.51,166.9,267.22,195.73Z" style="fill:#c95f50"></path><path d="M260.37,189.9a19.06,19.06,0,0,1-2-.19,3.28,3.28,0,0,1-2-.59,1,1,0,0,1-.14-1.27,2.58,2.58,0,0,1,2.46-.88,3.8,3.8,0,0,1,2.51,1.07A1.11,1.11,0,0,1,260.37,189.9Z" style="fill:#263238"></path><path d="M241.69,192.12c.68-.16,1.27-.41,1.92-.63a3.28,3.28,0,0,0,1.83-1,1,1,0,0,0-.14-1.26,2.58,2.58,0,0,0-2.59-.32,3.8,3.8,0,0,0-2.22,1.6A1.11,1.11,0,0,0,241.69,192.12Z" style="fill:#263238"></path><path d="M246.38,199c0-.08-.14.11-.13.19.33,2,.37,4.27-1.32,5.16-.05,0,0,.13,0,.11C247.1,203.88,247,200.82,246.38,199Z" style="fill:#263238"></path><path d="M244.34,197.19c-3.21.19-2.59,6.59.37,6.41S247,197,244.34,197.19Z" style="fill:#263238"></path><path d="M243.12,197.65c-.53.42-1,1.11-1.68,1.24s-1.42-.46-2-1.06c-.05-.06-.1,0-.1.09.1,1.22.69,2.43,2,2.49s2-1.11,2.16-2.37C243.56,197.8,243.33,197.49,243.12,197.65Z" style="fill:#263238"></path><path d="M257.72,197.08c0-.08.16.08.16.16.11,2,.58,4.24,2.43,4.74.05,0,.06.12,0,.12C258.08,202,257.5,199,257.72,197.08Z" style="fill:#263238"></path><path d="M259.3,194.85c3.17-.52,4,5.85,1.05,6.33S256.65,195.29,259.3,194.85Z" style="fill:#263238"></path><path d="M260.69,195.1c.54.28,1.12.83,1.72.79s1.13-.8,1.5-1.52c0-.07.09,0,.1.06.19,1.21-.05,2.53-1.19,2.92s-2-.6-2.4-1.78C260.34,195.36,260.47,195,260.69,195.1Z" style="fill:#263238"></path><path d="M247,214.69c.5.44,1,1.06,1.73,1.08a5.11,5.11,0,0,0,2.11-.6.07.07,0,0,1,.09.1,2.69,2.69,0,0,1-2.47,1.2,2.13,2.13,0,0,1-1.65-1.68C246.74,214.68,246.89,214.63,247,214.69Z" style="fill:#263238"></path><path d="M255.33,206.23s.73,2.93.88,4.33a7.59,7.59,0,0,1-7.58-1.48c-.12-.11.05-.29.19-.21a10.13,10.13,0,0,0,6.27,1.08c0-.39-1.42-5-1.2-5a12.12,12.12,0,0,1,3.26.38c-1.35-6.14-3.66-12-4.91-18.14a.19.19,0,0,1,.36-.13c2.86,6,4.56,13,6.11,19.31C258.91,207.15,255.92,206.41,255.33,206.23Z" style="fill:#263238"></path><path d="M254.28,210.61a7.16,7.16,0,0,1-2.7,2.51,3.28,3.28,0,0,1-2,.3c-1.46-.25-1.62-1.56-1.45-2.71a8.14,8.14,0,0,1,.48-1.78A9.45,9.45,0,0,0,254.28,210.61Z" style="fill:#263238"></path><path d="M251.58,213.12a3.28,3.28,0,0,1-2,.3c-1.46-.25-1.62-1.56-1.45-2.71C249.71,210.73,251.32,211.64,251.58,213.12Z" style="fill:#ff9abb"></path><path d="M217.18,205.33c5.52.49,6.45-12.15,6.45-12.15s23.26-4.86,24.52-24c0,0,4.48,12,17,17,0,0-1.62-20.86-18.34-24.29,0,0-20.84-6.7-31.78,10.05S213.48,205,217.18,205.33Z" style="fill:#263238"></path><path d="M248.18,167.77a20.89,20.89,0,0,1-.71,8.74,21.57,21.57,0,0,1-4.13,7.87,18.11,18.11,0,0,1-1.52,1.64l-.78.8c-.28.24-.58.47-.87.7-.59.45-1.16.93-1.77,1.36s-1.27.76-1.91,1.13c-.33.18-.64.37-1,.54l-1,.44-2,.87c-1.4.45-2.82.82-4.23,1.17,1.32-.64,2.68-1.13,4-1.77l1.91-1,.94-.5c.31-.19.59-.41.89-.61q.87-.62,1.77-1.2c.56-.43,1.08-.91,1.63-1.37l.81-.68.73-.77a19,19,0,0,0,1.41-1.57,24.76,24.76,0,0,0,4.19-7.34,26.63,26.63,0,0,0,1.16-4.13A25.65,25.65,0,0,0,248.18,167.77Z" style="fill:#263238"></path><path d="M221.27,207.27s-7.05-8.62-11-6,1.82,15.4,6.8,16.84a4.94,4.94,0,0,0,6.4-3.14Z" style="fill:#c95f50"></path><path d="M212,204.87c-.07,0-.08.11,0,.13,3.5,1.12,5.53,4.13,7,7.31-1.11-1.19-2.54-1.77-4.13-.44-.08.07,0,.2.1.17a3.06,3.06,0,0,1,3.42.81,14,14,0,0,1,1.8,2.58c.18.29.72.08.58-.26l0-.07C220.52,210.76,216.7,205,212,204.87Z" style="fill:#263238"></path><path d="M219.81,216.56a1.19,1.19,0,1,1-1.19-1.18A1.19,1.19,0,0,1,219.81,216.56Z" style="fill:#fff"></path><circle cx="216.03" cy="214.62" r="0.85" style="fill:#fff"></circle><rect x="207.86" y="203.23" width="3.01" height="1.25" rx="0.6" transform="translate(18.22 -17.17) rotate(4.91)" style="fill:#74B9FF"></rect><rect x="207.8" y="205.24" width="3.01" height="1.25" rx="0.6" transform="matrix(0.99, -0.13, 0.13, 0.99, -24.53, 28.35)" style="fill:#74B9FF"></rect><path d="M209.5,187.47l-1.66,2.65,8.49,7.67,3.6-6Zm6.49,7.38-5.93-4.77.37-.63,6.87,3.31Z" style="fill:#74B9FF"></path><path d="M210.39,182.58l-.54,3.08,10.76,3.91,1.09-6.89Zm8.8,4.39-7.3-2.18.11-.72,7.61.48Z" style="fill:#74B9FF"></path><path d="M220.86,165.35c2.23-.83,4.35-13.27-3.83-19.19s-18.66.84-14.27,11C205.54,163.64,216.15,167.11,220.86,165.35Z" style="fill:#263238"></path><path d="M205.59,145.42a14,14,0,0,0-4.71,7.89,8.39,8.39,0,0,0,2.48,8,17,17,0,0,0,8.12,4,25.26,25.26,0,0,0,4.67.57,12.55,12.55,0,0,0,4.71-.52,11.17,11.17,0,0,1-4.67,1.39,20.94,20.94,0,0,1-4.94-.08,16.4,16.4,0,0,1-9.12-4,9.74,9.74,0,0,1-2.69-4.47,9.88,9.88,0,0,1,.09-5.15A12.33,12.33,0,0,1,205.59,145.42Z" style="fill:#263238"></path><polygon points="294.7 279.29 308.62 277.41 303.18 237.11 285.57 239.49 294.7 279.29" style="fill:#74B9FF"></polygon><polygon points="285.57 239.49 289.05 254.67 294.7 279.3 308.62 277.42 303.18 237.11 285.57 239.49" style="fill:#74B9FF"></polygon><polygon points="285.57 239.49 289.05 254.67 305.26 252.48 303.18 237.11 285.57 239.49" style="opacity:0.1"></polygon><rect x="283.51" y="227.46" width="22.11" height="16.8" transform="translate(618.03 430.2) rotate(172.31)" style="fill:#74B9FF"></rect><polygon points="266.99 224.91 284.24 224.31 280.61 197.38 263.81 201.37 266.99 224.91" style="fill:#74B9FF"></polygon><polygon points="288.64 190.86 294.01 230.61 323.03 230.18 392.74 245.65 379.86 150.18 316.75 183.58 288.64 190.86" style="fill:#74B9FF"></polygon><ellipse cx="387.85" cy="197.71" rx="15.56" ry="48.41" transform="translate(-22.96 53.64) rotate(-7.69)" style="fill:#74B9FF"></ellipse><ellipse cx="388.53" cy="196.78" rx="12.74" ry="42.97" transform="translate(-22.83 53.73) rotate(-7.69)" style="opacity:0.2"></ellipse><path d="M378,198.21c.42,3.13.93,6.16,1.52,9.07A9.6,9.6,0,0,0,394,197.79l-.6-4.5A9.6,9.6,0,0,0,377,187.92C377.15,191.23,377.49,194.68,378,198.21Z" style="fill:#74B9FF"></path><polygon points="278.9 234.89 312.26 233.74 305.23 181.65 272.76 189.38 278.9 234.89" style="fill:#74B9FF"></polygon><polygon points="278.9 234.89 312.26 233.74 305.23 181.65 272.76 189.38 278.9 234.89" style="opacity:0.2"></polygon><path d="M376.27,157.32a30,30,0,0,0-3.77,10.16,68.9,68.9,0,0,0-1.29,10.81c-.13,1.82-.08,3.63-.11,5.45s.1,3.63.22,5.44.24,3.63.44,5.43.39,3.61.64,5.41a118.88,118.88,0,0,0,4.79,21.22,61.9,61.9,0,0,0,4.33,10c1.81,3.12,3.91,6.23,6.88,8.34A26.62,26.62,0,0,1,382,231a62.24,62.24,0,0,1-4-10,126.68,126.68,0,0,1-4.53-21.12A129.64,129.64,0,0,1,372,178.32a68,68,0,0,1,1-10.75A31.36,31.36,0,0,1,376.27,157.32Z" style="opacity:0.2"></path><path d="M411.18,150.49c-2,1.48-4,3-5.92,4.63s-3.84,3.22-5.73,4.87-3.75,3.33-5.56,5.06l-2.71,2.6c-.88.9-1.79,1.77-2.64,2.69,1-.73,2-1.51,3-2.27l2.93-2.36c1.95-1.58,3.84-3.22,5.73-4.87s3.74-3.33,5.55-5.06S409.46,152.32,411.18,150.49Z" style="fill:#263238"></path><path d="M394.26,223.18c2.71.82,5.45,1.52,8.19,2.21s5.5,1.3,8.26,1.91,5.53,1.16,8.31,1.66l4.17.73c1.41.21,2.8.45,4.21.62-1.36-.42-2.73-.77-4.09-1.16l-4.11-1.05c-2.74-.69-5.49-1.3-8.25-1.91s-5.53-1.16-8.31-1.66S397.07,223.54,394.26,223.18Z" style="fill:#263238"></path><path d="M446.65,215.43c-4.13-.49-8.27-.86-12.41-1.21s-8.28-.64-12.42-.91-8.29-.49-12.44-.65l-6.23-.23c-2.07,0-4.15-.11-6.23-.11,2.06.25,4.13.44,6.2.66l6.2.55c4.14.36,8.29.64,12.43.91s8.29.49,12.44.65S442.49,215.41,446.65,215.43Z" style="fill:#263238"></path><path d="M434.32,152.25c-3.64,2.13-7.21,4.37-10.77,6.62s-7.08,4.56-10.59,6.88-7,4.68-10.46,7.1l-5.17,3.62c-1.7,1.25-3.43,2.46-5.11,3.73,1.82-1.06,3.61-2.18,5.42-3.26l5.35-3.36c3.56-2.25,7.08-4.56,10.59-6.88s7-4.69,10.46-7.1S430.94,154.77,434.32,152.25Z" style="fill:#263238"></path><path d="M395.9,196.25c4.85-.47,9.68-1.06,14.5-1.67s9.64-1.32,14.46-2,9.62-1.44,14.41-2.23l7.2-1.21c2.39-.44,4.79-.85,7.18-1.33-2.43.23-4.84.52-7.26.78l-7.24.89c-4.83.61-9.64,1.32-14.46,2s-9.62,1.44-14.41,2.24S400.68,195.32,395.9,196.25Z" style="fill:#263238"></path><path d="M191.94,263.31c-15.14,24.79-40.76,78.3-31,97.75,9.39,18.73,104.15-32.64,116.14-42,5.23-4.06-19.22-52.16-25.18-48.34-8,5.09-46.67,36.63-47.52,36.79-1.8.35,3.58-17.47,7.22-39.55C216.88,235.85,202.83,245.49,191.94,263.31Z" style="fill:#c95f50"></path><path d="M315.22,251.1c3.55,4.19.53,9,.53,9a11.72,11.72,0,0,1,6.3,4.86c2.4,4.19-3.11,9.78-3.11,9.78a14.35,14.35,0,0,1,5.82,6.18c1.89,4.24-2.86,10.67-2.86,10.67a12.62,12.62,0,0,1,1.7,8.66c-1.64,8-13.24,12.37-20.64,15.11-11,4.08-30.9,3.93-35.37,4.6l-18.53-47.13s29.43-22.06,38.57-24.15C295.32,246.91,311.23,246.41,315.22,251.1Z" style="fill:#c95f50"></path><path d="M315.13,259.46c-8.63-.09-16.82,2.38-25.13,4.38a.14.14,0,0,0,.07.28c8.24-2.08,16.79-2.5,25.1-4.25A.21.21,0,0,0,315.13,259.46Z" style="fill:#263238"></path><path d="M318.54,274.17a22.77,22.77,0,0,0-5.74,1.26c-2,.59-4,1.22-6,1.87-4,1.31-7.9,2.7-11.79,4.22-.17.06-.12.34.07.28,3.95-1.29,7.92-2.53,11.93-3.66q3-.84,6-1.65a26.05,26.05,0,0,0,5.62-1.77A.3.3,0,0,0,318.54,274.17Z" style="fill:#263238"></path><path d="M321.73,291.63c-1.7,0-3.53.86-5.11,1.41-1.8.64-3.59,1.26-5.39,1.87-3.6,1.23-7.21,2.46-10.85,3.56a.15.15,0,0,0,.08.28c3.7-1.1,7.42-2.15,11.12-3.28,1.81-.55,3.62-1.12,5.43-1.69,1.54-.49,3.52-.93,4.79-2A.11.11,0,0,0,321.73,291.63Z" style="fill:#263238"></path><path d="M228.47,345.66c-6.13,3-12.32,5.86-18.65,8.43S197.16,359,190.71,361c-3.62,1.15-7.27,2.26-11,3.22-.1,0,0,.18.05.16a155.58,155.58,0,0,0,19.79-5.17q4.83-1.65,9.56-3.61c3.11-1.29,6.23-2.62,9.23-4.16,3.44-1.77,6.88-3.59,10.19-5.6A.1.1,0,0,0,228.47,345.66Z" style="fill:#263238"></path><path d="M296,317.11c-7.33,2-19,1.45-19.11,1.53-2.21,1.95-11.32,7.85-13.64,9.16-.09.05,0,.18.09.14,5-2.29,11.28-5.7,13.92-8.23,10.37.36,15.55-1.43,18.78-2.37C296.21,317.27,296.18,317.05,296,317.11Z" style="fill:#263238"></path><path d="M160.43,303.66l46.57,1.6s6.68-33.8,6.34-52c-.19-10.19-6.13-9.75-12.76-3.36C177.38,272.28,160.43,303.66,160.43,303.66Z" style="fill:#74B9FF"></path><path d="M191.17,259.81a1.83,1.83,0,0,1-.18.46,3.62,3.62,0,0,1-.76.89,6.34,6.34,0,0,1-.51.4h-.08Zm16.93-.9a.69.69,0,0,0-.6-.34.93.93,0,0,0-.83.58.92.92,0,0,0-.82-.58.67.67,0,0,0-.6.34,1.4,1.4,0,0,0,.09,1.35,4.53,4.53,0,0,0,1.27,1.3h.13a6.34,6.34,0,0,0,.51-.4,3.88,3.88,0,0,0,.76-.89A1.45,1.45,0,0,0,208.1,258.91Zm-34.64,23.82a2.33,2.33,0,0,0,.52-.65,1,1,0,0,0,.1-.24C173.88,282.14,173.67,282.44,173.46,282.73Zm17.62-2a.67.67,0,0,0-.6-.34.92.92,0,0,0-.82.58.93.93,0,0,0-.83-.58.69.69,0,0,0-.6.34,1.43,1.43,0,0,0,.09,1.35,4.44,4.44,0,0,0,1.27,1.29h.14a5.75,5.75,0,0,0,.5-.39,3.49,3.49,0,0,0,.76-.9A1.4,1.4,0,0,0,191.08,280.73Zm17,0a.69.69,0,0,0-.6-.34.93.93,0,0,0-.83.58.92.92,0,0,0-.82-.58.67.67,0,0,0-.6.34,1.4,1.4,0,0,0,.09,1.35,4.44,4.44,0,0,0,1.27,1.29h.13a5.1,5.1,0,0,0,.51-.39,3.94,3.94,0,0,0,.76-.9A1.43,1.43,0,0,0,208.1,280.73ZM181,272.34l.12.09h.14a5.36,5.36,0,0,0,.51-.41,3.26,3.26,0,0,0,.75-.89,1.67,1.67,0,0,0,.21-1C182.09,270.84,181.52,271.6,181,272.34Zm18.63-2.56a.68.68,0,0,0-.6-.34.92.92,0,0,0-.82.58.94.94,0,0,0-.83-.58.68.68,0,0,0-.6.34,1.43,1.43,0,0,0,.09,1.35,4.53,4.53,0,0,0,1.27,1.3h.13s.24-.17.51-.4a3.49,3.49,0,0,0,.76-.9A1.4,1.4,0,0,0,199.59,269.78Zm-25.53,32.76a.67.67,0,0,0-.59-.34.94.94,0,0,0-.83.58.91.91,0,0,0-.82-.58.7.7,0,0,0-.6.34,1.42,1.42,0,0,0,.08,1.35l.09.14,2.46.09a2.53,2.53,0,0,0,.13-.22A1.42,1.42,0,0,0,174.06,302.54Zm17,0a.69.69,0,0,0-.6-.34.88.88,0,0,1-1.65,0,.7.7,0,0,0-.6.34,1.43,1.43,0,0,0,.09,1.35,3.35,3.35,0,0,0,.6.75l1.43.05a3.76,3.76,0,0,0,.64-.79A1.42,1.42,0,0,0,191.08,302.54Zm16.42-.34a.88.88,0,0,1-1.65,0,.69.69,0,0,0-.6.34,1.38,1.38,0,0,0,.09,1.35,4.39,4.39,0,0,0,1.27,1.3h.13l.32-.24c.09-.46.27-1.4.51-2.74Zm-24.93-10.6a.67.67,0,0,0-.59-.35.87.87,0,0,1-1.65,0,.68.68,0,0,0-.6.35,1.4,1.4,0,0,0,.09,1.35,4.59,4.59,0,0,0,1.26,1.29h.14a4.45,4.45,0,0,0,.51-.4,3.68,3.68,0,0,0,.76-.89A1.4,1.4,0,0,0,182.57,291.6Zm17,0a.69.69,0,0,0-.6-.35.93.93,0,0,0-.82.59,1,1,0,0,0-.83-.59.69.69,0,0,0-.6.35,1.43,1.43,0,0,0,.09,1.35,4.44,4.44,0,0,0,1.27,1.29h.13a4.45,4.45,0,0,0,.51-.4,3.29,3.29,0,0,0,.76-.89A1.4,1.4,0,0,0,199.59,291.6Z" style="fill:#fff"></path><path d="M205.63,297.87c-7.14-.84-26.59-2.56-39.37-2-.08,0-.1.3,0,.3,10.7,1.16,32.17,1.94,39.36,2.16C205.73,298.31,205.76,297.89,205.63,297.87Z" style="fill:#263238"></path><path d="M213.3,270.63q-.8,3-1.51,6.06c0-.24.06-.49.08-.74.29-2.83.56-5.65.77-8.49,0-.07-.11-.08-.12,0-1.38,9.9-5.29,34.91-5.52,37.64-.22,0-2.34.06-2.84,0-.11,0-.1.16,0,.17s3.44.41,3.46.34c1.39-4.82,3.49-23.05,3.94-27.09.72-2.6,1.33-5.22,1.79-7.88C213.36,270.61,213.31,270.6,213.3,270.63Z" style="fill:#263238"></path></g><g id="freepik--Hearts--inject-136"><path d="M299.76,154.59c-.78,7.72-7,14.46-7,14.46s-9.12-1-14.79-6.28c-4.72-4.41-5.22-10.92-1.46-13.79,5.39-4.12,10.92,5.88,10.92,5.88s-2.41-11.18,4.36-11.62C296.5,142.93,300.41,148.15,299.76,154.59Z" style="fill:#74B9FF"></path><path d="M283.25,104.67a11.72,11.72,0,0,1-2.81,5.81,11.76,11.76,0,0,1-5.93-2.52c-1.9-1.77-2.1-4.38-.59-5.54,2.16-1.65,4.38,2.36,4.38,2.36s-1-4.48,1.75-4.66C282,100,283.51,102.09,283.25,104.67Z" style="fill:#74B9FF"></path><path d="M311.05,128.62c-3.43,4.56-9.92,6.44-9.92,6.44s-5.37-4.09-6.92-9.58c-1.3-4.59.86-8.87,4.32-9.25,5-.55,4.65,7.86,4.65,7.86s2.73-8,7.17-5.66C313.44,120,313.91,124.81,311.05,128.62Z" style="fill:#74B9FF"></path></g><g id="freepik--speech-bubbles--inject-136"><rect x="56.28" y="131.74" width="97.78" height="55.21" style="fill:#74B9FF"></rect><polygon points="72.82 186.95 56.28 203.92 56.28 186.95 72.82 186.95" style="fill:#74B9FF"></polygon><rect x="70.41" y="142.83" width="58.06" height="1.71" style="fill:#fff"></rect><rect x="70.41" y="148.05" width="39.78" height="1.71" style="fill:#fff"></rect><rect x="70.41" y="153.27" width="69.51" height="1.71" style="fill:#fff"></rect><rect x="70.41" y="158.49" width="23.91" height="1.71" style="fill:#fff"></rect><rect x="70.41" y="163.72" width="54.54" height="1.71" style="fill:#fff"></rect><rect x="70.41" y="168.94" width="58.06" height="1.71" style="fill:#fff"></rect><rect x="70.41" y="174.16" width="43.5" height="1.71" style="fill:#fff"></rect><rect x="75.57" y="204.35" width="97.78" height="40.4" transform="translate(248.92 449.1) rotate(180)" style="fill:#dbdbdb"></rect><polygon points="156.81 244.75 173.35 261.72 173.35 244.75 156.81 244.75" style="fill:#dbdbdb"></polygon><rect x="90.65" y="212.92" width="52.64" height="1.76" style="fill:#fff"></rect><rect x="90.65" y="218.3" width="67.01" height="1.76" style="fill:#fff"></rect><rect x="90.65" y="223.67" width="48.7" height="1.76" style="fill:#fff"></rect><rect x="90.65" y="229.05" width="61.25" height="1.76" style="fill:#fff"></rect><rect x="90.65" y="234.42" width="40.17" height="1.76" style="fill:#fff"></rect><rect x="304.07" y="71.04" width="76" height="32.14" style="fill:#74B9FF"></rect><polygon points="333.24 103.18 350.89 103.18 342.07 115.32 333.24 103.18" style="fill:#74B9FF"></polygon><path d="M332.92,88.22a19.21,19.21,0,0,1-4.2,4.93,28.39,28.39,0,0,1-2.8,2.2h-.74c-.2-.14-5-3.36-7-7.14-1.43-2.63-1.63-5.56-.49-7.47a3.72,3.72,0,0,1,3.3-1.89,5.17,5.17,0,0,1,4.56,3.21,5.16,5.16,0,0,1,4.55-3.21,3.73,3.73,0,0,1,3.31,1.89C334.55,82.66,334.36,85.59,332.92,88.22Z" style="fill:#fff"></path><path d="M365.28,81.37l-9.06,12.11-1.94-7.22-1.12.5-.54-1.21,1.05-.46-4.3-4.69h14.85l3-1.32H347.87l-.49,1.11,5.52,6,2.39,8.91,1.18.22,11.3-15.08Z" style="fill:#fff"></path><polygon points="365.28 81.37 356.22 93.48 354.28 86.26 365.28 81.37" style="fill:#fff"></polygon><polygon points="364.22 80.4 353.67 85.09 349.37 80.4 364.22 80.4" style="fill:#fff"></polygon></g><g id="freepik--Plant--inject-136"><path d="M106.27,348.09c-11.62,15.73-23.74,34-26.69,53.73,0,.3.45.39.51.1a118,118,0,0,1,5.14-15.8c7.64-2.1,15.14-3.83,19.15-11.41,4.09-7.8,3.57-18,2.79-26.45C107.12,347.81,106.5,347.79,106.27,348.09Z" style="fill:#74B9FF"></path><path d="M85.35,386c5.22-11.71,11.92-23.47,20.43-33.1.06-.07.15,0,.1.09-5.58,6.86-9.81,14.33-13.95,21.93,3.84-3.91,8.06-7.4,11.7-11.55.07-.08.19,0,.12.12-3.62,4.34-7.57,9.06-12.28,12.28-1.27,2.33-2.54,4.67-3.84,7,.32-.18.65-.34,1-.5.06,0,.11.06.05.09-.36.18-.71.37-1.08.53-.62,1.1-1.22,2.21-1.85,3.32C85.58,386.43,85.24,386.22,85.35,386Z" style="fill:#263238"></path><path d="M89.23,381.88a68.17,68.17,0,0,0,8.92-5.95c.08-.06.19,0,.11.11a47.23,47.23,0,0,1-8.9,6.06A.13.13,0,0,1,89.23,381.88Z" style="fill:#263238"></path><path d="M78.24,398.88c0,.24.43.24.42,0,.06-6.5,0-13,.11-19.56,1.66-3.36,5.23-5.22,7.72-7.91A34.81,34.81,0,0,0,91.12,365,46.24,46.24,0,0,0,96.5,347c.69-6.95-2-29.89-4.88-29.09-1.52.41-6.44,11.77-7.74,15.53a108.36,108.36,0,0,0-4.63,19C76.88,367.79,77.08,383.5,78.24,398.88Z" style="fill:#74B9FF"></path><path d="M78.19,370.85l0,0c.36-8.23,2.21-16.53,3.94-24.5,1.87-8.6,4.06-16.68,8.48-24.35.08-.14.29,0,.22.13a90.45,90.45,0,0,0-6.81,18.69c.3-.47.65-.91,1-1.34.12-.18.41,0,.29.16a11.81,11.81,0,0,1-1.38,1.95l-.06,0c-1.52,6.14-2.61,12.42-3.55,18.69l.21-.24a.06.06,0,0,1,.09.07c-.11.21-.24.41-.37.62-.47,3.18-.91,6.35-1.34,9.5,5.66-4.84,10.49-10.54,13.22-17.57,0,0,.07,0,0,0-2.67,7.29-6.88,13.77-13.36,18.2l-.36,2.54c0,.17-.31.13-.31,0,0-.75,0-1.5.07-2.25C78.13,371.05,78.09,370.93,78.19,370.85Z" style="fill:#263238"></path><path d="M80.86,358.94c4.33-6.46,8.37-12.73,11.53-19.87,0-.08.18,0,.15.06-2.67,7.09-6.41,14.28-11.46,20C81,359.22,80.77,359.07,80.86,358.94Z" style="fill:#263238"></path><path d="M86.61,337.47c1.79-3.17,3.68-6.25,5.37-9.49,0-.09.17,0,.13.08a49.13,49.13,0,0,1-5.22,9.58A.16.16,0,0,1,86.61,337.47Z" style="fill:#263238"></path><path d="M85.91,338.85a0,0,0,0,1,0,.06A0,0,0,0,1,85.91,338.85Z" style="fill:#263238"></path><path d="M73.84,380.09a66.22,66.22,0,0,1-1.52,12.8c.07.47.13.93.2,1.41A60.79,60.79,0,0,0,74.81,380a.43.43,0,0,0,0-.45h0a94.45,94.45,0,0,0-1.43-19.34c-2-11.94-6.41-23.4-14.74-32.35a.59.59,0,0,0-.92.19c-3.36,8.54-2.19,18.74.67,27.27a50.13,50.13,0,0,0,6.61,13C67.88,372.31,71.52,375.7,73.84,380.09Z" style="fill:#74B9FF"></path><path d="M59.65,331.88C67.54,344.69,73,359.88,73.7,375c0,.27-.44.34-.48.07-.18-1.36-.39-2.71-.61-4.05h0c-3.27-3.13-6.62-6.43-9-10.33a.08.08,0,0,1,.12-.09,109.81,109.81,0,0,0,8.69,9.47c-.56-3.35-1.23-6.64-2-9.89l-.63-.73c-.13-.16.09-.39.24-.23l.19.21a115.22,115.22,0,0,0-4.13-13.11c-2-2.39-4.26-4.47-5.72-7.35a.06.06,0,1,1,.1-.06c1.18,1.65,2.32,3.31,3.65,4.84.54.61,1.12,1.18,1.67,1.78a100.56,100.56,0,0,0-6.46-13.47A.18.18,0,0,1,59.65,331.88Z" style="fill:#263238"></path><path d="M61.24,347.68c2.55,3.44,5.46,6.71,7.83,10.26.07.1-.08.21-.16.13a52.42,52.42,0,0,1-7.84-10.29C61,347.67,61.17,347.58,61.24,347.68Z" style="fill:#263238"></path><path d="M69.43,358.74l.11.1c.07.08,0,.2-.12.12l-.11-.11A.08.08,0,0,1,69.43,358.74Z" style="fill:#263238"></path><path d="M47.28,356.51a39.26,39.26,0,0,0,8.33,19.54,20.79,20.79,0,0,0,6.75,5.27c2.93,1.45,6,3.11,9,4.3A60,60,0,0,1,74.57,397c.1-.33.19-.67.29-1C72.92,379.27,62.12,365,48.31,355.85A.67.67,0,0,0,47.28,356.51Z" style="fill:#74B9FF"></path><path d="M52.05,361.44c-.1-.09,0-.26.14-.19a56.53,56.53,0,0,1,17.6,21.69c.1.23-.21.43-.34.2-.64-1.12-1.3-2.21-2-3.29h0c-3.15-.59-6.13-2.81-8.47-4.92-.07-.05,0-.15.09-.09a19.11,19.11,0,0,0,4,2.8c1.28.65,2.67,1.07,4,1.59-1.17-1.86-2.39-3.63-3.66-5.36A36.57,36.57,0,0,1,54,368.54c-.09-.06,0-.21.09-.15a94.49,94.49,0,0,0,8.81,4.71,78.63,78.63,0,0,0-6.22-7.25c-1.07-.57-2.16-1.13-3.2-1.74-.08-.05,0-.19.07-.16a11.64,11.64,0,0,1,2.46,1.2C54.71,363.89,53.42,362.65,52.05,361.44Z" style="fill:#263238"></path><path d="M52.34,367.2a4,4,0,0,1,.54.38s0,.11-.07.08a3.43,3.43,0,0,1-.56-.31C52.16,367.29,52.25,367.14,52.34,367.2Z" style="fill:#263238"></path><polygon points="96.42 433.1 58.57 433.1 61.62 398.63 62.29 391.03 92.69 391.03 93.36 398.63 96.42 433.1" style="fill:#455a64"></polygon><polygon points="93.36 398.63 61.62 398.63 62.29 391.03 92.69 391.03 93.36 398.63" style="fill:#263238"></polygon><rect x="60.48" y="385.71" width="34.02" height="7.52" style="fill:#455a64"></rect></g></svg>